NobotoFlex-Scale-min.ufo
<glyph name="quotedbl" format="1">
  <advance width="296"/>
  <unicode hex="0022"/>
  <outline>
    <contour>
      <point x="123" y="768" type="line"/>
      <point x="73" y="768" type="line"/>
      <point x="73" y="695" type="line"/>
      <point x="72" y="543" type="line"/>
      <point x="113" y="543" type="line"/>
      <point x="123" y="698" type="line"/>
    </contour>
    <contour>
      <point x="241" y="768" type="line"/>
      <point x="192" y="768" type="line"/>
      <point x="192" y="697" type="line"/>
      <point x="190" y="543" type="line"/>
      <point x="231" y="543" type="line"/>
      <point x="241" y="698" type="line"/>
    </contour>
  </outline>
</glyph>
<glyph name="numbersign" format="1">
  <advance width="597"/>
  <unicode hex="0023"/>
  <outline>
    <contour>
      <point x="132" y="0" type="line"/>
      <point x="183" y="0" type="line"/>
      <point x="320" y="728" type="line"/>
      <point x="269" y="728" type="line"/>
    </contour>
    <contour>
      <point x="339" y="0" type="line"/>
      <point x="389" y="0" type="line"/>
      <point x="527" y="728" type="line"/>
      <point x="476" y="728" type="line"/>
    </contour>
    <contour>
      <point x="601" y="473" type="line"/>
      <point x="601" y="520" type="line"/>
      <point x="81" y="520" type="line"/>
      <point x="81" y="473" type="line"/>
    </contour>
    <contour>
      <point x="564" y="205" type="line"/>
      <point x="564" y="251" type="line"/>
      <point x="43" y="251" type="line"/>
      <point x="43" y="205" type="line"/>
    </contour>
  </outline>
</glyph>
<glyph name="percent" format="1">
  <advance width="757"/>
  <unicode hex="0025"/>
  <outline>
    <contour>
      <point x="55" y="550" type="line"/>
      <point x="55" y="468"/>
      <point x="111" y="400"/>
      <point x="199" y="400" type="curve" smooth="yes"/>
      <point x="285" y="400"/>
      <point x="340" y="468"/>
      <point x="340" y="550" type="curve" smooth="yes"/>
      <point x="340" y="588" type="line" smooth="yes"/>
      <point x="340" y="671"/>
      <point x="285" y="739"/>
      <point x="198" y="739" type="curve" smooth="yes"/>
      <point x="111" y="739"/>
      <point x="55" y="671"/>
      <point x="55" y="588" type="curve" smooth="yes"/>
    </contour>
    <contour>
      <point x="104" y="588" type="line"/>
      <point x="104" y="643"/>
      <point x="135" y="696"/>
      <point x="198" y="696" type="curve" smooth="yes"/>
      <point x="261" y="696"/>
      <point x="291" y="643"/>
      <point x="291" y="588" type="curve" smooth="yes"/>
      <point x="291" y="550" type="line" smooth="yes"/>
      <point x="291" y="496"/>
      <point x="261" y="443"/>
      <point x="199" y="443" type="curve" smooth="yes"/>
      <point x="134" y="443"/>
      <point x="104" y="496"/>
      <point x="104" y="550" type="curve" smooth="yes"/>
    </contour>
    <contour>
      <point x="421" y="140" type="line"/>
      <point x="421" y="58"/>
      <point x="476" y="-10"/>
      <point x="564" y="-10" type="curve" smooth="yes"/>
      <point x="651" y="-10"/>
      <point x="706" y="58"/>
      <point x="706" y="140" type="curve" smooth="yes"/>
      <point x="706" y="179" type="line" smooth="yes"/>
      <point x="706" y="261"/>
      <point x="651" y="329"/>
      <point x="563" y="329" type="curve" smooth="yes"/>
      <point x="476" y="329"/>
      <point x="421" y="261"/>
      <point x="421" y="179" type="curve" smooth="yes"/>
    </contour>
    <contour>
      <point x="470" y="179" type="line"/>
      <point x="470" y="236"/>
      <point x="501" y="286"/>
      <point x="563" y="286" type="curve" smooth="yes"/>
      <point x="627" y="286"/>
      <point x="657" y="236"/>
      <point x="657" y="179" type="curve" smooth="yes"/>
      <point x="657" y="140" type="line" smooth="yes"/>
      <point x="657" y="85"/>
      <point x="627" y="33"/>
      <point x="564" y="33" type="curve" smooth="yes"/>
      <point x="500" y="33"/>
      <point x="470" y="86"/>
      <point x="470" y="140" type="curve" smooth="yes"/>
    </contour>
    <contour>
      <point x="573" y="630" type="line"/>
      <point x="535" y="654" type="line"/>
      <point x="180" y="85" type="line"/>
      <point x="218" y="61" type="line"/>
    </contour>
  </outline>
</glyph>
<glyph name="quotesingle" format="1">
  <advance width="175"/>
  <unicode hex="0027"/>
  <outline>
    <contour>
      <point x="114" y="768" type="line"/>
      <point x="62" y="768" type="line"/>
      <point x="62" y="693" type="line"/>
      <point x="60" y="546" type="line"/>
      <point x="105" y="546" type="line"/>
      <point x="114" y="698" type="line"/>
    </contour>
  </outline>
</glyph>
<glyph name="asterisk" format="1">
  <advance width="435"/>
  <unicode hex="002A"/>
  <outline>
    <contour>
      <point x="72" y="350" type="line"/>
      <point x="115" y="320" type="line"/>
      <point x="217" y="472" type="line"/>
      <point x="323" y="319" type="line"/>
      <point x="367" y="350" type="line"/>
      <point x="256" y="498" type="line"/>
      <point x="422" y="556" type="line"/>
      <point x="405" y="606" type="line"/>
      <point x="243" y="542" type="line"/>
      <point x="247" y="728" type="line"/>
      <point x="195" y="728" type="line"/>
      <point x="197" y="543" type="line"/>
      <point x="31" y="605" type="line"/>
      <point x="15" y="555" type="line"/>
      <point x="180" y="501" type="line"/>
    </contour>
  </outline>
</glyph>
<glyph name="comma" format="1">
  <advance width="197"/>
  <unicode hex="002C"/>
  <outline>
    <contour>
      <point x="137" y="94" type="line"/>
      <point x="77" y="94" type="line"/>
      <point x="77" y="23" type="line"/>
      <point x="77" y="-30"/>
      <point x="61" y="-69"/>
      <point x="30" y="-110" type="curve"/>
      <point x="66" y="-136" type="line"/>
      <point x="110" y="-97"/>
      <point x="137" y="-37"/>
      <point x="137" y="24" type="curve"/>
    </contour>
    <contour>
      <point x="130" y="110" type="move" name="_bottom"/>
    </contour>
    <contour>
      <point x="77" y="23" type="move" name="_right"/>
    </contour>
  </outline>
</glyph>
<glyph name="hyphen" format="1">
  <advance width="293"/>
  <unicode hex="002D"/>
  <outline>
    <contour>
      <point x="264" y="347" type="line"/>
      <point x="25" y="347" type="line"/>
      <point x="25" y="297" type="line"/>
      <point x="264" y="297" type="line"/>
    </contour>
  </outline>
</glyph>
<glyph name="zero" format="1">
  <advance width="568"/>
  <unicode hex="0030"/>
  <outline>
    <contour>
      <point x="508" y="427" type="line"/>
      <point x="508" y="640"/>
      <point x="425" y="739"/>
      <point x="284" y="739" type="curve" smooth="yes"/>
      <point x="144" y="739"/>
      <point x="60" y="640"/>
      <point x="60" y="427" type="curve"/>
      <point x="60" y="304" type="line"/>
      <point x="60" y="91"/>
      <point x="145" y="-10"/>
      <point x="285" y="-10" type="curve" smooth="yes"/>
      <point x="426" y="-10"/>
      <point x="508" y="91"/>
      <point x="508" y="304" type="curve"/>
    </contour>
    <contour>
      <point x="447" y="297" type="line"/>
      <point x="447" y="134"/>
      <point x="394" y="40"/>
      <point x="285" y="40" type="curve" smooth="yes"/>
      <point x="177" y="40"/>
      <point x="121" y="134"/>
      <point x="121" y="297" type="curve" smooth="yes"/>
      <point x="121" y="434" type="line" smooth="yes"/>
      <point x="121" y="600"/>
      <point x="176" y="689"/>
      <point x="284" y="689" type="curve" smooth="yes"/>
      <point x="393" y="689"/>
      <point x="447" y="600"/>
      <point x="447" y="434" type="curve"/>
    </contour>
  </outline>
</glyph>
<glyph name="two" format="1">
  <advance width="568"/>
  <unicode hex="0032"/>
  <outline>
    <contour>
      <point x="526" y="50" type="line"/>
      <point x="143" y="50" type="line"/>
      <point x="346" y="280" type="line" smooth="yes"/>
      <point x="421" y="364"/>
      <point x="489" y="455"/>
      <point x="489" y="543" type="curve" smooth="yes"/>
      <point x="489" y="665"/>
      <point x="408" y="738"/>
      <point x="277" y="738" type="curve" smooth="yes"/>
      <point x="137" y="738"/>
      <point x="53" y="639"/>
      <point x="53" y="519" type="curve"/>
      <point x="114" y="519" type="line"/>
      <point x="114" y="617"/>
      <point x="176" y="688"/>
      <point x="277" y="688" type="curve" smooth="yes"/>
      <point x="375" y="688"/>
      <point x="428" y="626"/>
      <point x="428" y="538" type="curve" smooth="yes"/>
      <point x="428" y="477"/>
      <point x="396" y="418"/>
      <point x="307" y="316" type="curve" smooth="yes"/>
      <point x="69" y="46" type="line"/>
      <point x="69" y="0" type="line"/>
      <point x="526" y="0" type="line"/>
    </contour>
  </outline>
</glyph>
<glyph name="three" format="1">
  <advance width="568"/>
  <unicode hex="0033"/>
  <outline>
    <contour>
      <point x="202" y="397" type="line"/>
      <point x="202" y="357" type="line"/>
      <point x="271" y="357" type="line"/>
      <point x="417" y="357"/>
      <point x="493" y="449"/>
      <point x="493" y="537" type="curve"/>
      <point x="493" y="665"/>
      <point x="408" y="738"/>
      <point x="280" y="738" type="curve" smooth="yes"/>
      <point x="154" y="738"/>
      <point x="60" y="656"/>
      <point x="60" y="537" type="curve"/>
      <point x="121" y="537" type="line"/>
      <point x="121" y="630"/>
      <point x="189" y="688"/>
      <point x="280" y="688" type="curve" smooth="yes"/>
      <point x="384" y="688"/>
      <point x="432" y="626"/>
      <point x="432" y="539" type="curve"/>
      <point x="432" y="461"/>
      <point x="374" y="397"/>
      <point x="263" y="397" type="curve" smooth="yes"/>
    </contour>
    <contour>
      <point x="202" y="346" type="line"/>
      <point x="263" y="346" type="line" smooth="yes"/>
      <point x="371" y="346"/>
      <point x="446" y="302"/>
      <point x="446" y="196" type="curve" smooth="yes"/>
      <point x="446" y="96"/>
      <point x="385" y="40"/>
      <point x="283" y="40" type="curve" smooth="yes"/>
      <point x="181" y="40"/>
      <point x="111" y="105"/>
      <point x="111" y="198" type="curve"/>
      <point x="50" y="198" type="line"/>
      <point x="50" y="59"/>
      <point x="164" y="-10"/>
      <point x="283" y="-10" type="curve" smooth="yes"/>
      <point x="411" y="-10"/>
      <point x="507" y="66"/>
      <point x="507" y="198" type="curve" smooth="yes"/>
      <point x="507" y="303"/>
      <point x="437" y="385"/>
      <point x="271" y="385" type="curve" smooth="yes"/>
      <point x="202" y="385" type="line"/>
    </contour>
  </outline>
</glyph>
<glyph name="six" format="1">
  <advance width="568"/>
  <unicode hex="0036"/>
  <outline>
    <contour>
      <point x="413" y="734" type="line"/>
      <point x="177" y="734"/>
      <point x="65" y="572"/>
      <point x="65" y="322" type="curve"/>
      <point x="65" y="257" type="line"/>
      <point x="65" y="110"/>
      <point x="154" y="-10"/>
      <point x="301" y="-10" type="curve" smooth="yes"/>
      <point x="436" y="-10"/>
      <point x="517" y="99"/>
      <point x="517" y="239" type="curve"/>
      <point x="517" y="368"/>
      <point x="447" y="478"/>
      <point x="307" y="478" type="curve"/>
      <point x="188" y="478"/>
      <point x="96" y="398"/>
      <point x="86" y="274" type="curve"/>
      <point x="121" y="273" type="line"/>
      <point x="124" y="357"/>
      <point x="207" y="428"/>
      <point x="298" y="428" type="curve"/>
      <point x="405" y="428"/>
      <point x="457" y="340"/>
      <point x="457" y="237" type="curve" smooth="yes"/>
      <point x="457" y="129"/>
      <point x="398" y="40"/>
      <point x="301" y="40" type="curve" smooth="yes"/>
      <point x="204" y="40"/>
      <point x="127" y="122"/>
      <point x="127" y="256" type="curve" smooth="yes"/>
      <point x="127" y="356" type="line" smooth="yes"/>
      <point x="127" y="559"/>
      <point x="228" y="683"/>
      <point x="413" y="683" type="curve"/>
      <point x="422" y="683" type="line"/>
      <point x="422" y="734" type="line"/>
    </contour>
  </outline>
</glyph>
<glyph name="seven" format="1">
  <advance width="568"/>
  <unicode hex="0037"/>
  <outline>
    <contour>
      <point x="518" y="728" type="line"/>
      <point x="39" y="728" type="line"/>
      <point x="39" y="678" type="line"/>
      <point x="452" y="678" type="line"/>
      <point x="144" y="0" type="line"/>
      <point x="207" y="0" type="line"/>
      <point x="518" y="695" type="line"/>
    </contour>
  </outline>
</glyph>
<glyph name="eight" format="1">
  <advance width="568"/>
  <unicode hex="0038"/>
  <outline>
    <contour>
      <point x="517" y="193" type="curve" smooth="yes"/>
      <point x="517" y="308"/>
      <point x="416" y="389"/>
      <point x="285" y="389" type="curve" smooth="yes"/>
      <point x="151" y="389"/>
      <point x="54" y="308"/>
      <point x="54" y="193" type="curve" smooth="yes"/>
      <point x="54" y="61"/>
      <point x="154" y="-10"/>
      <point x="286" y="-10" type="curve" smooth="yes"/>
      <point x="415" y="-10"/>
      <point x="517" y="61"/>
    </contour>
    <contour>
      <point x="456" y="193" type="curve" smooth="yes"/>
      <point x="456" y="95"/>
      <point x="385" y="40"/>
      <point x="286" y="40" type="curve" smooth="yes"/>
      <point x="185" y="40"/>
      <point x="115" y="95"/>
      <point x="115" y="193" type="curve" smooth="yes"/>
      <point x="115" y="287"/>
      <point x="185" y="349"/>
      <point x="285" y="349" type="curve" smooth="yes"/>
      <point x="382" y="349"/>
      <point x="456" y="287"/>
    </contour>
    <contour>
      <point x="498" y="541" type="curve" smooth="yes"/>
      <point x="498" y="668"/>
      <point x="405" y="738"/>
      <point x="284" y="738" type="curve" smooth="yes"/>
      <point x="163" y="738"/>
      <point x="72" y="668"/>
      <point x="72" y="541" type="curve" smooth="yes"/>
      <point x="72" y="434"/>
      <point x="162" y="357"/>
      <point x="285" y="357" type="curve" smooth="yes"/>
      <point x="405" y="357"/>
      <point x="498" y="434"/>
    </contour>
    <contour>
      <point x="437" y="542" type="curve" smooth="yes"/>
      <point x="437" y="454"/>
      <point x="372" y="399"/>
      <point x="285" y="399" type="curve" smooth="yes"/>
      <point x="196" y="399"/>
      <point x="133" y="454"/>
      <point x="133" y="542" type="curve" smooth="yes"/>
      <point x="133" y="632"/>
      <point x="197" y="688"/>
      <point x="284" y="688" type="curve" smooth="yes"/>
      <point x="371" y="688"/>
      <point x="437" y="627"/>
    </contour>
  </outline>
</glyph>
<glyph name="less" format="1">
  <advance width="524"/>
  <unicode hex="003C"/>
  <outline>
    <contour>
      <point x="80" y="339" type="line"/>
      <point x="39" y="343" type="line"/>
      <point x="39" y="305" type="line"/>
      <point x="452" y="116" type="line"/>
      <point x="452" y="177" type="line"/>
    </contour>
    <contour>
      <point x="452" y="480" type="line"/>
      <point x="452" y="542" type="line"/>
      <point x="39" y="353" type="line"/>
      <point x="39" y="314" type="line"/>
      <point x="80" y="317" type="line"/>
    </contour>
  </outline>
</glyph>
<glyph name="equal" format="1">
  <advance width="567"/>
  <unicode hex="003D"/>
  <outline>
    <contour>
      <point x="492" y="467" type="line"/>
      <point x="75" y="467" type="line"/>
      <point x="75" y="415" type="line"/>
      <point x="492" y="415" type="line"/>
    </contour>
    <contour>
      <point x="492" y="262" type="line"/>
      <point x="75" y="262" type="line"/>
      <point x="75" y="210" type="line"/>
      <point x="492" y="210" type="line"/>
    </contour>
  </outline>
</glyph>
<glyph name="question" format="1">
  <advance width="466"/>
  <unicode hex="003F"/>
  <outline>
    <contour>
      <point x="249" y="203" type="line"/>
      <point x="249" y="256"/>
      <point x="262" y="305"/>
      <point x="305" y="341" type="curve" smooth="yes"/>
      <point x="374" y="405"/>
      <point x="423" y="463"/>
      <point x="423" y="552" type="curve" smooth="yes"/>
      <point x="423" y="662"/>
      <point x="356" y="738"/>
      <point x="237" y="738" type="curve" smooth="yes"/>
      <point x="130" y="738"/>
      <point x="44" y="672"/>
      <point x="42" y="558" type="curve"/>
      <point x="103" y="558" type="line"/>
      <point x="104" y="638"/>
      <point x="160" y="686"/>
      <point x="237" y="686" type="curve" smooth="yes"/>
      <point x="319" y="686"/>
      <point x="362" y="631"/>
      <point x="362" y="551" type="curve" smooth="yes"/>
      <point x="362" y="471"/>
      <point x="324" y="437"/>
      <point x="271" y="383" type="curve" smooth="yes"/>
      <point x="209" y="324"/>
      <point x="189" y="287"/>
      <point x="188" y="203" type="curve"/>
    </contour>
    <component base="period" xOffset="213"/>
  </outline>
</glyph>
<glyph name="at" format="1">
  <advance width="935"/>
  <unicode hex="0040"/>
  <outline>
    <contour>
      <point x="876" y="257" type="curve"/>
      <point x="887" y="535"/>
      <point x="758" y="711"/>
      <point x="492" y="711" type="curve" smooth="yes"/>
      <point x="241" y="711"/>
      <point x="74" y="519"/>
      <point x="61" y="239" type="curve" smooth="yes"/>
      <point x="49" y="-48"/>
      <point x="196" y="-226"/>
      <point x="450" y="-226" type="curve" smooth="yes"/>
      <point x="510" y="-226"/>
      <point x="588" y="-211"/>
      <point x="632" y="-182" type="curve"/>
      <point x="617" y="-143" type="line"/>
      <point x="576" y="-167"/>
      <point x="510" y="-182"/>
      <point x="452" y="-182" type="curve" smooth="yes"/>
      <point x="224" y="-182"/>
      <point x="100" y="-9"/>
      <point x="112" y="239" type="curve" smooth="yes"/>
      <point x="124" y="497"/>
      <point x="276" y="664"/>
      <point x="490" y="664" type="curve" smooth="yes"/>
      <point x="738" y="664"/>
      <point x="841" y="509"/>
      <point x="828" y="257" type="curve" smooth="yes"/>
      <point x="823" y="130"/>
      <point x="775" y="33"/>
      <point x="687" y="33" type="curve" smooth="yes"/>
      <point x="655" y="33"/>
      <point x="600" y="48"/>
      <point x="609" y="155" type="curve"/>
      <point x="634" y="441" type="line"/>
      <point x="583" y="441" type="line"/>
      <point x="558" y="155" type="line" smooth="yes"/>
      <point x="549" y="54"/>
      <point x="595" y="-10"/>
      <point x="681" y="-10" type="curve"/>
      <point x="816" y="-10"/>
      <point x="871" y="131"/>
    </contour>
    <contour>
      <point x="336" y="214" type="curve" smooth="yes"/>
      <point x="352" y="374"/>
      <point x="423" y="450"/>
      <point x="503" y="450" type="curve" smooth="yes"/>
      <point x="548" y="450"/>
      <point x="579" y="431"/>
      <point x="600" y="408" type="curve"/>
      <point x="634" y="441" type="line"/>
      <point x="599" y="469"/>
      <point x="567" y="495"/>
      <point x="499" y="495" type="curve" smooth="yes"/>
      <point x="391" y="495"/>
      <point x="298" y="386"/>
      <point x="282" y="214" type="curve" smooth="yes"/>
      <point x="270" y="80"/>
      <point x="317" y="-10"/>
      <point x="412" y="-10" type="curve" smooth="yes"/>
      <point x="492" y="-10"/>
      <point x="559" y="49"/>
      <point x="591" y="163" type="curve"/>
      <point x="567" y="193" type="line"/>
      <point x="534" y="70"/>
      <point x="475" y="38"/>
      <point x="424" y="38" type="curve" smooth="yes"/>
      <point x="356" y="38"/>
      <point x="326" y="111"/>
    </contour>
  </outline>
</glyph>
<glyph name="A" format="1">
  <advance width="641"/>
  <unicode hex="0041"/>
  <outline>
    <contour>
      <point x="348" y="726" type="line"/>
      <point x="336" y="728" type="line"/>
      <point x="291" y="728" type="line"/>
      <point x="16" y="0" type="line"/>
      <point x="81" y="0" type="line"/>
    </contour>
    <contour>
      <point x="561" y="0" type="line"/>
      <point x="626" y="0" type="line"/>
      <point x="350" y="728" type="line"/>
      <point x="305" y="728" type="line"/>
      <point x="293" y="726" type="line"/>
    </contour>
    <contour>
      <point x="517" y="256" type="line"/>
      <point x="129" y="256" type="line"/>
      <point x="129" y="205" type="line"/>
      <point x="517" y="205" type="line"/>
    </contour>
    <contour>
      <point x="616" y="0" type="move" name="ogonek"/>
    </contour>
    <contour>
      <point x="641" y="800" type="move" name="top_dd"/>
    </contour>
    <contour>
      <point x="332" y="0" type="move" name="bottom"/>
    </contour>
    <contour>
      <point x="641" y="-203" type="move" name="bottom_dd"/>
    </contour>
    <contour>
      <point x="641" y="804" type="move" name="top0315"/>
    </contour>
    <contour>
      <point x="322" y="804" type="move" name="top"/>
    </contour>
    <contour>
      <point x="161" y="727" type="move" name="tonos"/>
    </contour>
    <contour>
      <point x="625" y="0" type="move" name="right"/>
    </contour>
  </outline>
</glyph>
<glyph name="B" format="1">
  <advance width="628"/>
  <unicode hex="0042"/>
  <outline>
    <contour>
      <point x="343" y="351" type="line"/>
      <point x="382" y="370" type="line"/>
      <point x="483" y="381"/>
      <point x="546" y="448"/>
      <point x="546" y="538" type="curve"/>
      <point x="546" y="670"/>
      <point x="456" y="728"/>
      <point x="308" y="728" type="curve"/>
      <point x="92" y="728" type="line"/>
      <point x="92" y="0" type="line"/>
      <point x="155" y="0" type="line"/>
      <point x="155" y="677" type="line"/>
      <point x="308" y="677" type="line"/>
      <point x="424" y="677"/>
      <point x="483" y="633"/>
      <point x="483" y="540" type="curve"/>
      <point x="483" y="449"/>
      <point x="421" y="402"/>
      <point x="314" y="402" type="curve"/>
      <point x="138" y="402" type="line"/>
      <point x="139" y="351" type="line"/>
    </contour>
    <contour>
      <point x="339" y="0" type="line"/>
      <point x="478" y="0"/>
      <point x="572" y="73"/>
      <point x="572" y="205" type="curve" smooth="yes"/>
      <point x="572" y="296"/>
      <point x="507" y="373"/>
      <point x="408" y="383" type="curve"/>
      <point x="397" y="402" type="line"/>
      <point x="216" y="402" type="line"/>
      <point x="215" y="351" type="line"/>
      <point x="343" y="351" type="line" smooth="yes"/>
      <point x="456" y="351"/>
      <point x="509" y="287"/>
      <point x="509" y="204" type="curve" smooth="yes"/>
      <point x="509" y="109"/>
      <point x="445" y="52"/>
      <point x="339" y="52" type="curve" smooth="yes"/>
      <point x="151" y="52" type="line"/>
      <point x="119" y="0" type="line"/>
    </contour>
    <contour>
      <point x="628" y="806" type="move" name="top0315"/>
    </contour>
    <contour>
      <point x="628" y="800" type="move" name="top_dd"/>
    </contour>
    <contour>
      <point x="292" y="806" type="move" name="top"/>
    </contour>
    <contour>
      <point x="628" y="-203" type="move" name="bottom_dd"/>
    </contour>
    <contour>
      <point x="294" y="5" type="move" name="bottom"/>
    </contour>
  </outline>
</glyph>
<glyph name="E" format="1">
  <advance width="583"/>
  <unicode hex="0045"/>
  <outline>
    <contour>
      <point x="545" y="52" type="line"/>
      <point x="137" y="52" type="line"/>
      <point x="137" y="0" type="line"/>
      <point x="545" y="0" type="line"/>
    </contour>
    <contour>
      <point x="155" y="728" type="line"/>
      <point x="92" y="728" type="line"/>
      <point x="92" y="0" type="line"/>
      <point x="155" y="0" type="line"/>
    </contour>
    <contour>
      <point x="494" y="401" type="line"/>
      <point x="137" y="401" type="line"/>
      <point x="137" y="350" type="line"/>
      <point x="494" y="350" type="line"/>
    </contour>
    <contour>
      <point x="543" y="728" type="line"/>
      <point x="137" y="728" type="line"/>
      <point x="137" y="677" type="line"/>
      <point x="543" y="677" type="line"/>
    </contour>
    <contour>
      <point x="512" y="0" type="move" name="ogonek"/>
    </contour>
    <contour>
      <point x="583" y="800" type="move" name="top_dd"/>
    </contour>
    <contour>
      <point x="310" y="5" type="move" name="bottom"/>
    </contour>
    <contour>
      <point x="583" y="-203" type="move" name="bottom_dd"/>
    </contour>
    <contour>
      <point x="583" y="806" type="move" name="top0315"/>
    </contour>
    <contour>
      <point x="310" y="806" type="move" name="top"/>
    </contour>
    <contour>
      <point x="-28" y="728" type="move" name="tonos"/>
    </contour>
  </outline>
</glyph>
<glyph name="F" format="1">
  <advance width="576"/>
  <unicode hex="0046"/>
  <outline>
    <contour>
      <point x="155" y="728" type="line"/>
      <point x="92" y="728" type="line"/>
      <point x="92" y="0" type="line"/>
      <point x="155" y="0" type="line"/>
    </contour>
    <contour>
      <point x="493" y="393" type="line"/>
      <point x="135" y="393" type="line"/>
      <point x="135" y="341" type="line"/>
      <point x="493" y="341" type="line"/>
    </contour>
    <contour>
      <point x="543" y="728" type="line"/>
      <point x="135" y="728" type="line"/>
      <point x="135" y="677" type="line"/>
      <point x="543" y="677" type="line"/>
    </contour>
    <contour>
      <point x="576" y="806" type="move" name="top0315"/>
    </contour>
    <contour>
      <point x="576" y="800" type="move" name="top_dd"/>
    </contour>
    <contour>
      <point x="166" y="169" type="move" name="cross"/>
    </contour>
    <contour>
      <point x="310" y="806" type="move" name="top"/>
    </contour>
    <contour>
      <point x="576" y="-203" type="move" name="bottom_dd"/>
    </contour>
    <contour>
      <point x="266" y="5" type="move" name="bottom"/>
    </contour>
  </outline>
</glyph>
<glyph name="G" format="1">
  <advance width="700"/>
  <unicode hex="0047"/>
  <outline>
    <contour>
      <point x="618" y="346" type="line"/>
      <point x="361" y="346" type="line"/>
      <point x="361" y="294" type="line"/>
      <point x="556" y="294" type="line"/>
      <point x="556" y="105" type="line"/>
      <point x="535" y="79"/>
      <point x="476" y="42"/>
      <point x="365" y="42" type="curve" smooth="yes"/>
      <point x="227" y="42"/>
      <point x="135" y="153"/>
      <point x="135" y="322" type="curve" smooth="yes"/>
      <point x="135" y="413" type="line" smooth="yes"/>
      <point x="135" y="577"/>
      <point x="214" y="687"/>
      <point x="355" y="687" type="curve" smooth="yes"/>
      <point x="486" y="687"/>
      <point x="540" y="611"/>
      <point x="555" y="524" type="curve"/>
      <point x="618" y="524" type="line"/>
      <point x="602" y="646"/>
      <point x="517" y="738"/>
      <point x="355" y="738" type="curve" smooth="yes"/>
      <point x="180" y="738"/>
      <point x="72" y="611"/>
      <point x="72" y="412" type="curve" smooth="yes"/>
      <point x="72" y="322" type="line" smooth="yes"/>
      <point x="72" y="119"/>
      <point x="193" y="-10"/>
      <point x="365" y="-10" type="curve" smooth="yes"/>
      <point x="518" y="-10"/>
      <point x="593" y="50"/>
      <point x="618" y="87" type="curve"/>
    </contour>
    <contour>
      <point x="700" y="817" type="move" name="top0315"/>
    </contour>
    <contour>
      <point x="700" y="800" type="move" name="top_dd"/>
    </contour>
    <contour>
      <point x="344" y="817" type="move" name="top"/>
    </contour>
    <contour>
      <point x="700" y="-203" type="move" name="bottom_dd"/>
    </contour>
    <contour>
      <point x="365" y="-2" type="move" name="bottom"/>
    </contour>
  </outline>
</glyph>
<glyph name="H" format="1">
  <advance width="725"/>
  <unicode hex="0048"/>
  <outline>
    <contour>
      <point x="581" y="401" type="line"/>
      <point x="141" y="401" type="line"/>
      <point x="141" y="350" type="line"/>
      <point x="581" y="350" type="line"/>
    </contour>
    <contour>
      <point x="155" y="728" type="line"/>
      <point x="92" y="728" type="line"/>
      <point x="92" y="0" type="line"/>
      <point x="155" y="0" type="line"/>
    </contour>
    <contour>
      <point x="632" y="728" type="line"/>
      <point x="569" y="728" type="line"/>
      <point x="569" y="0" type="line"/>
      <point x="632" y="0" type="line"/>
    </contour>
    <contour>
      <point x="725" y="800" type="move" name="top_dd"/>
    </contour>
    <contour>
      <point x="358" y="5" type="move" name="bottom"/>
    </contour>
    <contour>
      <point x="725" y="-203" type="move" name="bottom_dd"/>
    </contour>
    <contour>
      <point x="725" y="806" type="move" name="top0315"/>
    </contour>
    <contour>
      <point x="357" y="806" type="move" name="top"/>
    </contour>
    <contour>
      <point x="-22" y="729" type="move" name="tonos"/>
    </contour>
    <contour>
      <point x="632" y="0" type="move" name="right"/>
    </contour>
  </outline>
</glyph>
<glyph name="K" format="1">
  <advance width="646"/>
  <unicode hex="004B"/>
  <outline>
    <contour>
      <point x="155" y="728" type="line"/>
      <point x="92" y="728" type="line"/>
      <point x="92" y="0" type="line"/>
      <point x="155" y="0" type="line"/>
    </contour>
    <contour>
      <point x="605" y="728" type="line"/>
      <point x="526" y="728" type="line"/>
      <point x="253" y="439" type="line"/>
      <point x="127" y="307" type="line"/>
      <point x="133" y="241" type="line"/>
      <point x="291" y="395" type="line"/>
    </contour>
    <contour>
      <point x="552" y="0" type="line"/>
      <point x="629" y="0" type="line"/>
      <point x="285" y="424" type="line"/>
      <point x="247" y="375" type="line"/>
    </contour>
    <contour>
      <point x="646" y="800" type="move" name="top_dd"/>
    </contour>
    <contour>
      <point x="137" y="615" type="move" name="cross"/>
    </contour>
    <contour>
      <point x="321" y="50" type="move" name="bottom"/>
    </contour>
    <contour>
      <point x="646" y="-203" type="move" name="bottom_dd"/>
    </contour>
    <contour>
      <point x="646" y="779" type="move" name="top0315"/>
    </contour>
    <contour>
      <point x="302" y="779" type="move" name="top"/>
    </contour>
    <contour>
      <point x="601" y="-8" type="move" name="right"/>
    </contour>
  </outline>
</glyph>
<glyph name="L" format="1">
  <advance width="541"/>
  <unicode hex="004C"/>
  <outline>
    <contour>
      <point x="514" y="52" type="line"/>
      <point x="137" y="52" type="line"/>
      <point x="137" y="0" type="line"/>
      <point x="514" y="0" type="line"/>
    </contour>
    <contour>
      <point x="155" y="728" type="line"/>
      <point x="92" y="728" type="line"/>
      <point x="92" y="0" type="line"/>
      <point x="155" y="0" type="line"/>
    </contour>
    <contour>
      <point x="541" y="800" type="move" name="top_dd"/>
    </contour>
    <contour>
      <point x="311" y="5" type="move" name="bottom"/>
    </contour>
    <contour>
      <point x="541" y="-203" type="move" name="bottom_dd"/>
    </contour>
    <contour>
      <point x="541" y="786" type="move" name="top0315"/>
    </contour>
    <contour>
      <point x="294" y="728" type="move" name="caron"/>
    </contour>
    <contour>
      <point x="124" y="786" type="move" name="top"/>
    </contour>
    <contour>
      <point x="301" y="386" type="move" name="dot"/>
    </contour>
  </outline>
</glyph>
<glyph name="N" format="1">
  <advance width="728"/>
  <unicode hex="004E"/>
  <outline>
    <contour>
      <point x="635" y="728" type="line"/>
      <point x="573" y="728" type="line"/>
      <point x="573" y="102" type="line"/>
      <point x="155" y="728" type="line"/>
      <point x="92" y="728" type="line"/>
      <point x="92" y="0" type="line"/>
      <point x="154" y="0" type="line"/>
      <point x="154" y="627" type="line"/>
      <point x="572" y="0" type="line"/>
      <point x="635" y="0" type="line"/>
    </contour>
    <contour>
      <point x="728" y="804" type="move" name="top0315"/>
    </contour>
    <contour>
      <point x="728" y="800" type="move" name="top_dd"/>
    </contour>
    <contour>
      <point x="363" y="804" type="move" name="top"/>
    </contour>
    <contour>
      <point x="728" y="-203" type="move" name="bottom_dd"/>
    </contour>
    <contour>
      <point x="635" y="0" type="move" name="right"/>
    </contour>
    <contour>
      <point x="362" y="5" type="move" name="bottom"/>
    </contour>
  </outline>
</glyph>
<glyph name="O" format="1">
  <advance width="694"/>
  <unicode hex="004F"/>
  <outline>
    <contour>
      <point x="631" y="404" type="line"/>
      <point x="631" y="607"/>
      <point x="519" y="738"/>
      <point x="347" y="738" type="curve" smooth="yes"/>
      <point x="177" y="738"/>
      <point x="63" y="607"/>
      <point x="63" y="404" type="curve"/>
      <point x="63" y="325" type="line"/>
      <point x="63" y="121"/>
      <point x="178" y="-10"/>
      <point x="348" y="-10" type="curve" smooth="yes"/>
      <point x="520" y="-10"/>
      <point x="631" y="121"/>
      <point x="631" y="325" type="curve"/>
    </contour>
    <contour>
      <point x="568" y="325" type="line"/>
      <point x="568" y="152"/>
      <point x="488" y="43"/>
      <point x="348" y="43" type="curve" smooth="yes"/>
      <point x="211" y="43"/>
      <point x="126" y="152"/>
      <point x="126" y="325" type="curve" smooth="yes"/>
      <point x="126" y="405" type="line" smooth="yes"/>
      <point x="126" y="577"/>
      <point x="210" y="685"/>
      <point x="347" y="685" type="curve" smooth="yes"/>
      <point x="487" y="685"/>
      <point x="568" y="577"/>
      <point x="568" y="405" type="curve"/>
    </contour>
    <contour>
      <point x="694" y="810" type="move" name="top0315"/>
    </contour>
    <contour>
      <point x="694" y="800" type="move" name="top_dd"/>
    </contour>
    <contour>
      <point x="346" y="810" type="move" name="top"/>
    </contour>
    <contour>
      <point x="70" y="727" type="move" name="tonos"/>
    </contour>
    <contour>
      <point x="694" y="-203" type="move" name="bottom_dd"/>
    </contour>
    <contour>
      <point x="348" y="0" type="move" name="bottom"/>
    </contour>
  </outline>
</glyph>
<glyph name="S" format="1">
  <advance width="607"/>
  <unicode hex="0053"/>
  <outline>
    <contour>
      <point x="503" y="179" type="curve"/>
      <point x="503" y="96"/>
      <point x="430" y="42"/>
      <point x="316" y="42" type="curve" smooth="yes"/>
      <point x="217" y="42"/>
      <point x="107" y="85"/>
      <point x="107" y="208" type="curve"/>
      <point x="44" y="208" type="line"/>
      <point x="44" y="54"/>
      <point x="187" y="-10"/>
      <point x="316" y="-10" type="curve" smooth="yes"/>
      <point x="461" y="-10"/>
      <point x="567" y="62"/>
      <point x="567" y="180" type="curve"/>
      <point x="567" y="298"/>
      <point x="480" y="355"/>
      <point x="325" y="397" type="curve"/>
      <point x="179" y="436"/>
      <point x="131" y="482"/>
      <point x="131" y="552" type="curve"/>
      <point x="131" y="625"/>
      <point x="193" y="687"/>
      <point x="312" y="687" type="curve" smooth="yes"/>
      <point x="431" y="687"/>
      <point x="499" y="616"/>
      <point x="499" y="521" type="curve"/>
      <point x="562" y="521" type="line"/>
      <point x="562" y="642"/>
      <point x="465" y="738"/>
      <point x="312" y="738" type="curve" smooth="yes"/>
      <point x="169" y="738"/>
      <point x="68" y="663"/>
      <point x="68" y="551" type="curve"/>
      <point x="68" y="436"/>
      <point x="159" y="384"/>
      <point x="305" y="343" type="curve" smooth="yes"/>
      <point x="456" y="301"/>
      <point x="503" y="260"/>
    </contour>
    <contour>
      <point x="607" y="810" type="move" name="top0315"/>
    </contour>
    <contour>
      <point x="607" y="800" type="move" name="top_dd"/>
    </contour>
    <contour>
      <point x="314" y="810" type="move" name="top"/>
    </contour>
    <contour>
      <point x="607" y="-203" type="move" name="bottom_dd"/>
    </contour>
    <contour>
      <point x="315" y="-3" type="move" name="bottom"/>
    </contour>
  </outline>
</glyph>
<glyph name="U" format="1">
  <advance width="673"/>
  <unicode hex="0055"/>
  <outline>
    <contour>
      <point x="531" y="728" type="line"/>
      <point x="531" y="235" type="line" smooth="yes"/>
      <point x="531" y="107"/>
      <point x="450" y="42"/>
      <point x="337" y="42" type="curve" smooth="yes"/>
      <point x="225" y="42"/>
      <point x="144" y="107"/>
      <point x="144" y="235" type="curve" smooth="yes"/>
      <point x="144" y="728" type="line"/>
      <point x="81" y="728" type="line"/>
      <point x="81" y="235" type="line"/>
      <point x="81" y="71"/>
      <point x="192" y="-10"/>
      <point x="337" y="-10" type="curve" smooth="yes"/>
      <point x="479" y="-10"/>
      <point x="594" y="71"/>
      <point x="594" y="235" type="curve"/>
      <point x="594" y="728" type="line"/>
    </contour>
    <contour>
      <point x="469" y="19" type="move" name="ogonek"/>
    </contour>
    <contour>
      <point x="673" y="800" type="move" name="top_dd"/>
    </contour>
    <contour>
      <point x="337" y="0" type="move" name="bottom"/>
    </contour>
    <contour>
      <point x="673" y="-203" type="move" name="bottom_dd"/>
    </contour>
    <contour>
      <point x="673" y="804" type="move" name="top0315"/>
    </contour>
    <contour>
      <point x="341" y="804" type="move" name="top"/>
    </contour>
    <contour>
      <point x="409" y="0" type="move" name="right"/>
    </contour>
  </outline>
</glyph>
<glyph name="bracketleft" format="1">
  <advance width="247"/>
  <unicode hex="005B"/>
  <outline>
    <contour>
      <point x="248" y="832" type="line"/>
      <point x="82" y="832" type="line"/>
      <point x="82" y="-156" type="line"/>
      <point x="248" y="-156" type="line"/>
      <point x="248" y="-106" type="line"/>
      <point x="143" y="-106" type="line"/>
      <point x="143" y="782" type="line"/>
      <point x="248" y="782" type="line"/>
    </contour>
  </outline>
</glyph>
<glyph name="bracketright" format="1">
  <advance width="247"/>
  <unicode hex="005D"/>
  <outline>
    <contour>
      <point x="1" y="782" type="line"/>
      <point x="106" y="782" type="line"/>
      <point x="106" y="-106" type="line"/>
      <point x="1" y="-106" type="line"/>
      <point x="1" y="-156" type="line"/>
      <point x="167" y="-156" type="line"/>
      <point x="167" y="832" type="line"/>
      <point x="1" y="832" type="line"/>
    </contour>
  </outline>
</glyph>
<glyph name="underscore" format="1">
  <advance width="443"/>
  <unicode hex="005F"/>
  <outline>
    <contour>
      <point x="442" y="0" type="line"/>
      <point x="1" y="0" type="line"/>
      <point x="1" y="-50" type="line"/>
      <point x="442" y="-50" type="line"/>
    </contour>
    <contour>
      <point x="219" y="79" type="move" name="_bottom"/>
    </contour>
  </outline>
</glyph>
<glyph name="grave" format="1">
  <advance width="294"/>
  <unicode hex="0060"/>
  <outline>
    <contour>
      <point x="125" y="768" type="line"/>
      <point x="51" y="768" type="line"/>
      <point x="165" y="629" type="line"/>
      <point x="220" y="629" type="line"/>
    </contour>
    <contour>
      <point x="183" y="795" type="move" name="mkmktop_acc"/>
    </contour>
    <contour>
      <point x="183" y="646" type="move" name="_top"/>
    </contour>
  </outline>
</glyph>
<glyph name="a" format="1">
  <advance width="549"/>
  <unicode hex="0061"/>
  <outline>
    <contour>
      <point x="407" y="97" type="line"/>
      <point x="407" y="64"/>
      <point x="411" y="24"/>
      <point x="420" y="0" type="curve"/>
      <point x="485" y="0" type="line"/>
      <point x="485" y="6" type="line"/>
      <point x="474" y="32"/>
      <point x="468" y="76"/>
      <point x="468" y="114" type="curve" smooth="yes"/>
      <point x="468" y="375" type="line"/>
      <point x="468" y="493"/>
      <point x="387" y="551"/>
      <point x="271" y="551" type="curve" smooth="yes"/>
      <point x="147" y="551"/>
      <point x="64" y="473"/>
      <point x="64" y="392" type="curve"/>
      <point x="125" y="392" type="line"/>
      <point x="125" y="453"/>
      <point x="185" y="502"/>
      <point x="268" y="502" type="curve" smooth="yes"/>
      <point x="358" y="502"/>
      <point x="407" y="454"/>
      <point x="407" y="376" type="curve"/>
    </contour>
    <contour>
      <point x="421" y="315" type="line"/>
      <point x="297" y="315" type="line"/>
      <point x="145" y="315"/>
      <point x="51" y="249"/>
      <point x="51" y="144" type="curve" smooth="yes"/>
      <point x="51" y="56"/>
      <point x="120" y="-10"/>
      <point x="226" y="-10" type="curve" smooth="yes"/>
      <point x="351" y="-10"/>
      <point x="425" y="76"/>
      <point x="442" y="142" type="curve"/>
      <point x="416" y="176" type="line"/>
      <point x="399" y="104"/>
      <point x="331" y="42"/>
      <point x="233" y="42" type="curve" smooth="yes"/>
      <point x="158" y="42"/>
      <point x="112" y="89"/>
      <point x="112" y="148" type="curve" smooth="yes"/>
      <point x="112" y="223"/>
      <point x="184" y="269"/>
      <point x="306" y="269" type="curve"/>
      <point x="422" y="269" type="line"/>
    </contour>
    <contour>
      <point x="476" y="0" type="move" name="ogonek"/>
    </contour>
    <contour>
      <point x="549" y="800" type="move" name="top_dd"/>
    </contour>
    <contour>
      <point x="350" y="638" type="move" name="rhalfring"/>
    </contour>
    <contour>
      <point x="252" y="0" type="move" name="bottom"/>
    </contour>
    <contour>
      <point x="549" y="-203" type="move" name="bottom_dd"/>
    </contour>
    <contour>
      <point x="549" y="646" type="move" name="top0315"/>
    </contour>
    <contour>
      <point x="439" y="327" type="move" name="rhotichook"/>
    </contour>
    <contour>
      <point x="290" y="646" type="move" name="top"/>
    </contour>
  </outline>
</glyph>
<glyph name="e" format="1">
  <advance width="530"/>
  <unicode hex="0065"/>
  <outline>
    <contour>
      <point x="288" y="-10" type="curve"/>
      <point x="385" y="-10"/>
      <point x="445" y="33"/>
      <point x="480" y="86" type="curve"/>
      <point x="441" y="115" type="line"/>
      <point x="402" y="63"/>
      <point x="355" y="40"/>
      <point x="291" y="40" type="curve" smooth="yes"/>
      <point x="180" y="40"/>
      <point x="106" y="136"/>
      <point x="106" y="256" type="curve" smooth="yes"/>
      <point x="106" y="277" type="line" smooth="yes"/>
      <point x="106" y="409"/>
      <point x="176" y="501"/>
      <point x="277" y="501" type="curve"/>
      <point x="379" y="501"/>
      <point x="428" y="416"/>
      <point x="431" y="325" type="curve"/>
      <point x="431" y="318" type="line"/>
      <point x="82" y="318" type="line"/>
      <point x="82" y="268" type="line"/>
      <point x="492" y="268" type="line"/>
      <point x="492" y="304" type="line" smooth="yes"/>
      <point x="492" y="448"/>
      <point x="415" y="551"/>
      <point x="277" y="551" type="curve" smooth="yes"/>
      <point x="154" y="551"/>
      <point x="45" y="444"/>
      <point x="45" y="277" type="curve" smooth="yes"/>
      <point x="45" y="256" type="line" smooth="yes"/>
      <point x="45" y="101"/>
      <point x="147" y="-10"/>
    </contour>
    <contour>
      <point x="411" y="22" type="move" name="ogonek"/>
    </contour>
    <contour>
      <point x="530" y="800" type="move" name="top_dd"/>
    </contour>
    <contour>
      <point x="283" y="1" type="move" name="bottom"/>
    </contour>
    <contour>
      <point x="530" y="-203" type="move" name="bottom_dd"/>
    </contour>
    <contour>
      <point x="530" y="646" type="move" name="top0315"/>
    </contour>
    <contour>
      <point x="460" y="327" type="move" name="rhotichook"/>
    </contour>
    <contour>
      <point x="283" y="646" type="move" name="top"/>
    </contour>
  </outline>
</glyph>
<glyph name="f" format="1">
  <advance width="340"/>
  <unicode hex="0066"/>
  <outline>
    <contour>
      <point x="182" y="0" type="line"/>
      <point x="182" y="609" type="line"/>
      <point x="182" y="684"/>
      <point x="222" y="727"/>
      <point x="286" y="727" type="curve" smooth="yes"/>
      <point x="309" y="727"/>
      <point x="325" y="725"/>
      <point x="341" y="721" type="curve"/>
      <point x="346" y="770" type="line"/>
      <point x="325" y="776"/>
      <point x="303" y="779"/>
      <point x="282" y="779" type="curve" smooth="yes"/>
      <point x="182" y="779"/>
      <point x="121" y="718"/>
      <point x="121" y="609" type="curve"/>
      <point x="121" y="0" type="line"/>
    </contour>
    <contour>
      <point x="311" y="541" type="line"/>
      <point x="32" y="541" type="line"/>
      <point x="32" y="493" type="line"/>
      <point x="311" y="493" type="line"/>
    </contour>
    <contour>
      <point x="340" y="858" type="move" name="top0315"/>
    </contour>
    <contour>
      <point x="340" y="800" type="move" name="top_dd"/>
    </contour>
    <contour>
      <point x="255" y="858" type="move" name="top"/>
    </contour>
    <contour>
      <point x="340" y="-203" type="move" name="bottom_dd"/>
    </contour>
    <contour>
      <point x="165" y="5" type="move" name="bottom"/>
    </contour>
  </outline>
</glyph>
<glyph name="j" format="1">
  <advance width="234"/>
  <unicode hex="006A"/>
  <outline>
    <contour>
      <point x="83" y="541" type="line"/>
      <point x="83" y="-109" type="line"/>
      <point x="83" y="-177"/>
      <point x="51" y="-211"/>
      <point x="-6" y="-211" type="curve" smooth="yes"/>
      <point x="-21" y="-211"/>
      <point x="-39" y="-208"/>
      <point x="-51" y="-205" type="curve"/>
      <point x="-52" y="-253" type="line"/>
      <point x="-36" y="-259"/>
      <point x="-16" y="-263"/>
      <point x="2" y="-263" type="curve" smooth="yes"/>
      <point x="94" y="-263"/>
      <point x="144" y="-208"/>
      <point x="144" y="-109" type="curve"/>
      <point x="144" y="541" type="line"/>
    </contour>
    <contour>
      <point x="72" y="698" type="curve" smooth="yes"/>
      <point x="72" y="676"/>
      <point x="88" y="659"/>
      <point x="114" y="659" type="curve" smooth="yes"/>
      <point x="140" y="659"/>
      <point x="156" y="676"/>
      <point x="156" y="698" type="curve" smooth="yes"/>
      <point x="156" y="721"/>
      <point x="140" y="738"/>
      <point x="114" y="738" type="curve" smooth="yes"/>
      <point x="88" y="738"/>
      <point x="72" y="721"/>
    </contour>
    <contour>
      <point x="83" y="489" type="line"/>
      <point x="144" y="489" type="line"/>
      <point x="144" y="541" type="line"/>
      <point x="83" y="541" type="line"/>
    </contour>
    <contour>
      <point x="234" y="800" type="move" name="top0315"/>
    </contour>
    <contour>
      <point x="234" y="800" type="move" name="top_dd"/>
    </contour>
    <contour>
      <point x="112" y="800" type="move" name="top"/>
    </contour>
    <contour>
      <point x="234" y="-203" type="move" name="bottom_dd"/>
    </contour>
    <contour>
      <point x="95" y="-229" type="move" name="bottom"/>
    </contour>
  </outline>
</glyph>
<glyph name="k" format="1">
  <advance width="503"/>
  <unicode hex="006B"/>
  <outline>
    <contour>
      <point x="139" y="768" type="line"/>
      <point x="78" y="768" type="line"/>
      <point x="78" y="0" type="line"/>
      <point x="139" y="0" type="line"/>
    </contour>
    <contour>
      <point x="478" y="541" type="line"/>
      <point x="401" y="541" type="line"/>
      <point x="196" y="337" type="line"/>
      <point x="109" y="245" type="line"/>
      <point x="118" y="188" type="line"/>
      <point x="226" y="290" type="line"/>
    </contour>
    <contour>
      <point x="425" y="0" type="line"/>
      <point x="498" y="0" type="line"/>
      <point x="234" y="333" type="line"/>
      <point x="200" y="283" type="line"/>
    </contour>
    <contour>
      <point x="503" y="800" type="move" name="top_dd"/>
    </contour>
    <contour>
      <point x="147" y="645" type="move" name="cross"/>
    </contour>
    <contour>
      <point x="274" y="806" type="move" name="marktop"/>
    </contour>
    <contour>
      <point x="262" y="47" type="move" name="bottom"/>
    </contour>
    <contour>
      <point x="503" y="-203" type="move" name="bottom_dd"/>
    </contour>
    <contour>
      <point x="438" y="806" type="move" name="top0315"/>
    </contour>
    <contour>
      <point x="274" y="806" type="move" name="top"/>
    </contour>
  </outline>
</glyph>
<glyph name="l" format="1">
  <advance width="231"/>
  <unicode hex="006C"/>
  <outline>
    <contour>
      <point x="146" y="768" type="line"/>
      <point x="85" y="768" type="line"/>
      <point x="85" y="0" type="line"/>
      <point x="146" y="0" type="line"/>
    </contour>
    <contour>
      <point x="85" y="0" type="line"/>
      <point x="146" y="0" type="line"/>
      <point x="146" y="52" type="line"/>
      <point x="85" y="52" type="line"/>
    </contour>
    <contour>
      <point x="85" y="716" type="line"/>
      <point x="146" y="716" type="line"/>
      <point x="146" y="768" type="line"/>
      <point x="85" y="768" type="line"/>
    </contour>
    <contour>
      <point x="231" y="800" type="move" name="top_dd"/>
    </contour>
    <contour>
      <point x="116" y="5" type="move" name="bottom"/>
    </contour>
    <contour>
      <point x="260" y="760" type="move" name="marktop"/>
    </contour>
    <contour>
      <point x="231" y="-203" type="move" name="bottom_dd"/>
    </contour>
    <contour>
      <point x="231" y="842" type="move" name="top0315"/>
    </contour>
    <contour>
      <point x="224" y="768" type="move" name="caron"/>
    </contour>
    <contour>
      <point x="116" y="842" type="move" name="top"/>
    </contour>
    <contour>
      <point x="217" y="393" type="move" name="dot"/>
    </contour>
  </outline>
</glyph>
<glyph name="n" format="1">
  <advance width="563"/>
  <unicode hex="006E"/>
  <outline>
    <contour>
      <point x="139" y="426" type="line"/>
      <point x="137" y="541" type="line" smooth="yes"/>
      <point x="137" y="541"/>
      <point x="137" y="541"/>
      <point x="137" y="541" type="curve" smooth="yes"/>
      <point x="78" y="541" type="line" smooth="yes"/>
      <point x="78" y="541"/>
      <point x="78" y="541"/>
      <point x="78" y="541" type="curve" smooth="yes"/>
      <point x="78" y="0" type="line" smooth="yes"/>
      <point x="78" y="0"/>
      <point x="77" y="0"/>
      <point x="78" y="0" type="curve" smooth="yes"/>
      <point x="139" y="0" type="line" smooth="yes"/>
      <point x="139" y="0"/>
      <point x="139" y="0"/>
      <point x="139" y="0" type="curve" smooth="yes"/>
    </contour>
    <contour>
      <point x="126" y="305" type="line"/>
      <point x="128" y="385"/>
      <point x="186" y="500"/>
      <point x="299" y="500" type="curve" smooth="yes"/>
      <point x="377" y="500"/>
      <point x="426" y="465"/>
      <point x="426" y="352" type="curve" smooth="yes"/>
      <point x="426" y="0" type="line" smooth="yes"/>
      <point x="426" y="0"/>
      <point x="426" y="0"/>
      <point x="426" y="0" type="curve" smooth="yes"/>
      <point x="487" y="0" type="line" smooth="yes"/>
      <point x="487" y="0"/>
      <point x="487" y="0"/>
      <point x="487" y="0" type="curve" smooth="yes"/>
      <point x="487" y="352" type="line" smooth="yes"/>
      <point x="487" y="495"/>
      <point x="422" y="551"/>
      <point x="314" y="551" type="curve" smooth="yes"/>
      <point x="190" y="551"/>
      <point x="106" y="447"/>
      <point x="99" y="321" type="curve"/>
    </contour>
    <contour>
      <point x="563" y="800" type="move" name="top_dd"/>
    </contour>
    <contour>
      <point x="285" y="5" type="move" name="bottom"/>
    </contour>
    <contour>
      <point x="288" y="645" type="move" name="marktop"/>
    </contour>
    <contour>
      <point x="563" y="-203" type="move" name="bottom_dd"/>
    </contour>
    <contour>
      <point x="563" y="645" type="move" name="top0315"/>
    </contour>
    <contour>
      <point x="-7" y="769" type="move" name="caron"/>
    </contour>
    <contour>
      <point x="288" y="645" type="move" name="top"/>
    </contour>
    <contour>
      <point x="487" y="0" type="move" name="right"/>
    </contour>
  </outline>
</glyph>
<glyph name="o" format="1">
  <advance width="574"/>
  <unicode hex="006F"/>
  <outline>
    <contour>
      <point x="46" y="262" type="line"/>
      <point x="46" y="105"/>
      <point x="141" y="-10"/>
      <point x="288" y="-10" type="curve" smooth="yes"/>
      <point x="434" y="-10"/>
      <point x="529" y="105"/>
      <point x="529" y="262" type="curve"/>
      <point x="529" y="279" type="line"/>
      <point x="529" y="436"/>
      <point x="434" y="551"/>
      <point x="287" y="551" type="curve" smooth="yes"/>
      <point x="141" y="551"/>
      <point x="46" y="436"/>
      <point x="46" y="279" type="curve"/>
    </contour>
    <contour>
      <point x="107" y="279" type="line"/>
      <point x="107" y="396"/>
      <point x="170" y="501"/>
      <point x="287" y="501" type="curve" smooth="yes"/>
      <point x="404" y="501"/>
      <point x="468" y="396"/>
      <point x="468" y="279" type="curve"/>
      <point x="468" y="262" type="line"/>
      <point x="468" y="143"/>
      <point x="404" y="40"/>
      <point x="288" y="40" type="curve" smooth="yes"/>
      <point x="170" y="40"/>
      <point x="107" y="143"/>
      <point x="107" y="262" type="curve"/>
    </contour>
    <contour>
      <point x="574" y="645" type="move" name="top0315"/>
    </contour>
    <contour>
      <point x="574" y="800" type="move" name="top_dd"/>
    </contour>
    <contour>
      <point x="286" y="645" type="move" name="top"/>
    </contour>
    <contour>
      <point x="500" y="327" type="move" name="rhotichook"/>
    </contour>
    <contour>
      <point x="574" y="-203" type="move" name="bottom_dd"/>
    </contour>
    <contour>
      <point x="288" y="-3" type="move" name="bottom"/>
    </contour>
  </outline>
</glyph>
<glyph name="p" format="1">
  <advance width="568"/>
  <unicode hex="0070"/>
  <outline>
    <contour>
      <point x="139" y="437" type="line"/>
      <point x="134" y="541" type="line"/>
      <point x="78" y="541" type="line"/>
      <point x="78" y="-209" type="line"/>
      <point x="139" y="-209" type="line"/>
    </contour>
    <contour>
      <point x="514" y="276" type="line"/>
      <point x="514" y="444"/>
      <point x="439" y="551"/>
      <point x="306" y="551" type="curve" smooth="yes"/>
      <point x="179" y="551"/>
      <point x="109" y="464"/>
      <point x="90" y="335" type="curve"/>
      <point x="90" y="193" type="line"/>
      <point x="106" y="75"/>
      <point x="177" y="-10"/>
      <point x="308" y="-10" type="curve" smooth="yes"/>
      <point x="439" y="-10"/>
      <point x="514" y="104"/>
      <point x="514" y="265" type="curve" smooth="yes"/>
    </contour>
    <contour>
      <point x="453" y="265" type="line"/>
      <point x="453" y="138"/>
      <point x="402" y="40"/>
      <point x="294" y="40" type="curve" smooth="yes"/>
      <point x="191" y="40"/>
      <point x="141" y="105"/>
      <point x="122" y="182" type="curve"/>
      <point x="122" y="343" type="line"/>
      <point x="136" y="413"/>
      <point x="179" y="500"/>
      <point x="293" y="500" type="curve" smooth="yes"/>
      <point x="402" y="500"/>
      <point x="453" y="402"/>
      <point x="453" y="276" type="curve" smooth="yes"/>
    </contour>
    <contour>
      <point x="304" y="640" type="move" name="marktop"/>
    </contour>
    <contour>
      <point x="568" y="640" type="move" name="top0315"/>
    </contour>
    <contour>
      <point x="304" y="640" type="move" name="top"/>
    </contour>
    <contour>
      <point x="568" y="800" type="move" name="top_dd"/>
    </contour>
    <contour>
      <point x="581" y="-201" type="move" name="bottom_dd"/>
    </contour>
    <contour>
      <point x="107" y="-244" type="move" name="bottom"/>
    </contour>
  </outline>
</glyph>
<glyph name="q" format="1">
  <advance width="572"/>
  <unicode hex="0071"/>
  <outline>
    <contour>
      <point x="429" y="-209" type="line"/>
      <point x="490" y="-209" type="line"/>
      <point x="490" y="541" type="line"/>
      <point x="433" y="541" type="line"/>
      <point x="429" y="437" type="line"/>
    </contour>
    <contour>
      <point x="54" y="265" type="line"/>
      <point x="54" y="104"/>
      <point x="132" y="-10"/>
      <point x="263" y="-10" type="curve" smooth="yes"/>
      <point x="393" y="-10"/>
      <point x="464" y="77"/>
      <point x="480" y="197" type="curve"/>
      <point x="480" y="335" type="line"/>
      <point x="461" y="464"/>
      <point x="392" y="551"/>
      <point x="264" y="551" type="curve" smooth="yes"/>
      <point x="132" y="551"/>
      <point x="54" y="444"/>
      <point x="54" y="276" type="curve" smooth="yes"/>
    </contour>
    <contour>
      <point x="116" y="276" type="line"/>
      <point x="116" y="402"/>
      <point x="166" y="501"/>
      <point x="276" y="501" type="curve" smooth="yes"/>
      <point x="389" y="501"/>
      <point x="434" y="411"/>
      <point x="448" y="343" type="curve"/>
      <point x="448" y="186" type="line"/>
      <point x="429" y="107"/>
      <point x="377" y="40"/>
      <point x="275" y="40" type="curve" smooth="yes"/>
      <point x="166" y="40"/>
      <point x="116" y="138"/>
      <point x="116" y="265" type="curve" smooth="yes"/>
    </contour>
    <contour>
      <point x="269" y="645" type="move" name="marktop"/>
    </contour>
    <contour>
      <point x="572" y="645" type="move" name="top0315"/>
    </contour>
    <contour>
      <point x="269" y="645" type="move" name="top"/>
    </contour>
    <contour>
      <point x="572" y="800" type="move" name="top_dd"/>
    </contour>
    <contour>
      <point x="572" y="-203" type="move" name="bottom_dd"/>
    </contour>
    <contour>
      <point x="461" y="-203" type="move" name="bottom"/>
    </contour>
  </outline>
</glyph>
<glyph name="r" format="1">
  <advance width="345"/>
  <unicode hex="0072"/>
  <outline>
    <contour>
      <point x="139" y="452" type="line"/>
      <point x="138" y="541" type="line"/>
      <point x="78" y="541" type="line"/>
      <point x="78" y="0" type="line"/>
      <point x="139" y="0" type="line"/>
    </contour>
    <contour>
      <point x="330" y="545" type="line"/>
      <point x="323" y="548"/>
      <point x="305" y="551"/>
      <point x="290" y="551" type="curve"/>
      <point x="165" y="551"/>
      <point x="107" y="441"/>
      <point x="107" y="300" type="curve"/>
      <point x="129" y="308" type="line"/>
      <point x="133" y="412"/>
      <point x="185" y="495"/>
      <point x="288" y="495" type="curve"/>
      <point x="303" y="495"/>
      <point x="315" y="494"/>
      <point x="328" y="492" type="curve"/>
    </contour>
    <contour>
      <point x="345" y="645" type="move" name="top0315"/>
    </contour>
    <contour>
      <point x="345" y="800" type="move" name="top_dd"/>
    </contour>
    <contour>
      <point x="205" y="645" type="move" name="top"/>
    </contour>
    <contour>
      <point x="345" y="-203" type="move" name="bottom_dd"/>
    </contour>
    <contour>
      <point x="112" y="8" type="move" name="bottom"/>
    </contour>
  </outline>
</glyph>
<glyph name="s" format="1">
  <advance width="520"/>
  <unicode hex="0073"/>
  <outline>
    <contour>
      <point x="402" y="138" type="curve" smooth="yes"/>
      <point x="402" y="87"/>
      <point x="354" y="40"/>
      <point x="263" y="40" type="curve" smooth="yes"/>
      <point x="195" y="40"/>
      <point x="117" y="66"/>
      <point x="112" y="152" type="curve"/>
      <point x="51" y="152" type="line"/>
      <point x="51" y="67"/>
      <point x="126" y="-10"/>
      <point x="263" y="-10" type="curve" smooth="yes"/>
      <point x="385" y="-10"/>
      <point x="463" y="52"/>
      <point x="463" y="141" type="curve"/>
      <point x="463" y="227"/>
      <point x="405" y="270"/>
      <point x="274" y="300" type="curve" smooth="yes"/>
      <point x="153" y="328"/>
      <point x="130" y="358"/>
      <point x="130" y="406" type="curve"/>
      <point x="130" y="452"/>
      <point x="167" y="501"/>
      <point x="260" y="501" type="curve" smooth="yes"/>
      <point x="349" y="501"/>
      <point x="399" y="446"/>
      <point x="399" y="390" type="curve"/>
      <point x="460" y="390" type="line"/>
      <point x="460" y="482"/>
      <point x="385" y="551"/>
      <point x="260" y="551" type="curve" smooth="yes"/>
      <point x="143" y="551"/>
      <point x="69" y="485"/>
      <point x="69" y="405" type="curve"/>
      <point x="69" y="316"/>
      <point x="137" y="278"/>
      <point x="258" y="253" type="curve" smooth="yes"/>
      <point x="378" y="227"/>
      <point x="402" y="183"/>
    </contour>
    <contour>
      <point x="520" y="645" type="move" name="top0315"/>
    </contour>
    <contour>
      <point x="520" y="800" type="move" name="top_dd"/>
    </contour>
    <contour>
      <point x="269" y="645" type="move" name="top"/>
    </contour>
    <contour>
      <point x="520" y="-203" type="move" name="bottom_dd"/>
    </contour>
    <contour>
      <point x="269" y="-3" type="move" name="bottom"/>
    </contour>
  </outline>
</glyph>
<glyph name="t" format="1">
  <advance width="334"/>
  <unicode hex="0074"/>
  <outline>
    <contour>
      <point x="291" y="541" type="line"/>
      <point x="12" y="541" type="line"/>
      <point x="12" y="493" type="line"/>
      <point x="291" y="493" type="line"/>
    </contour>
    <contour>
      <point x="111" y="665" type="line"/>
      <point x="111" y="132" type="line"/>
      <point x="111" y="24"/>
      <point x="160" y="-10"/>
      <point x="229" y="-10" type="curve" smooth="yes"/>
      <point x="254" y="-10"/>
      <point x="280" y="-7"/>
      <point x="300" y="-2" type="curve"/>
      <point x="298" y="47" type="line"/>
      <point x="279" y="45"/>
      <point x="261" y="42"/>
      <point x="242" y="42" type="curve" smooth="yes"/>
      <point x="205" y="42"/>
      <point x="172" y="56"/>
      <point x="172" y="132" type="curve"/>
      <point x="172" y="665" type="line"/>
    </contour>
    <contour>
      <point x="330" y="800" type="move" name="top_dd"/>
    </contour>
    <contour>
      <point x="161" y="333" type="move" name="cross"/>
    </contour>
    <contour>
      <point x="270" y="661" type="move" name="marktop"/>
    </contour>
    <contour>
      <point x="217" y="0" type="move" name="bottom"/>
    </contour>
    <contour>
      <point x="330" y="-203" type="move" name="bottom_dd"/>
    </contour>
    <contour>
      <point x="330" y="756" type="move" name="top0315"/>
    </contour>
    <contour>
      <point x="255" y="803" type="move" name="caron"/>
    </contour>
    <contour>
      <point x="145" y="756" type="move" name="top"/>
    </contour>
  </outline>
</glyph>
<glyph name="u" format="1">
  <advance width="563"/>
  <unicode hex="0075"/>
  <outline>
    <contour>
      <point x="425" y="125" type="line"/>
      <point x="427" y="0" type="line"/>
      <point x="486" y="0" type="line"/>
      <point x="486" y="541" type="line"/>
      <point x="425" y="541" type="line"/>
    </contour>
    <contour>
      <point x="436" y="225" type="line"/>
      <point x="436" y="128"/>
      <point x="392" y="42"/>
      <point x="261" y="42" type="curve" smooth="yes"/>
      <point x="193" y="42"/>
      <point x="137" y="78"/>
      <point x="137" y="194" type="curve"/>
      <point x="137" y="541" type="line"/>
      <point x="76" y="541" type="line"/>
      <point x="76" y="195" type="line"/>
      <point x="76" y="47"/>
      <point x="148" y="-10"/>
      <point x="254" y="-10" type="curve" smooth="yes"/>
      <point x="406" y="-10"/>
      <point x="467" y="90"/>
      <point x="467" y="226" type="curve"/>
    </contour>
    <contour>
      <point x="483" y="0" type="move" name="ogonek"/>
    </contour>
    <contour>
      <point x="563" y="800" type="move" name="top_dd"/>
    </contour>
    <contour>
      <point x="281" y="0" type="move" name="bottom"/>
    </contour>
    <contour>
      <point x="563" y="-203" type="move" name="bottom_dd"/>
    </contour>
    <contour>
      <point x="563" y="646" type="move" name="top0315"/>
    </contour>
    <contour>
      <point x="461" y="327" type="move" name="rhotichook"/>
    </contour>
    <contour>
      <point x="256" y="0" type="move" name="bottomu"/>
    </contour>
    <contour>
      <point x="287" y="646" type="move" name="top"/>
    </contour>
  </outline>
</glyph>
<glyph name="v" format="1">
  <advance width="493"/>
  <unicode hex="0076"/>
  <outline>
    <contour>
      <point x="238" y="57" type="line"/>
      <point x="227" y="0" type="line"/>
      <point x="271" y="0" type="line"/>
      <point x="473" y="541" type="line"/>
      <point x="410" y="541" type="line"/>
    </contour>
    <contour>
      <point x="82" y="541" type="line"/>
      <point x="19" y="541" type="line"/>
      <point x="222" y="0" type="line"/>
      <point x="267" y="0" type="line"/>
      <point x="257" y="55" type="line"/>
    </contour>
    <contour>
      <point x="493" y="640" type="move" name="top0315"/>
    </contour>
    <contour>
      <point x="493" y="800" type="move" name="top_dd"/>
    </contour>
    <contour>
      <point x="250" y="640" type="move" name="top"/>
    </contour>
    <contour>
      <point x="493" y="-203" type="move" name="bottom_dd"/>
    </contour>
    <contour>
      <point x="249" y="5" type="move" name="bottom"/>
    </contour>
  </outline>
</glyph>
<glyph name="y" format="1">
  <advance width="487"/>
  <unicode hex="0079"/>
  <outline>
    <contour>
      <point x="238" y="54" type="line"/>
      <point x="185" y="-92" type="line" smooth="yes"/>
      <point x="161" y="-156"/>
      <point x="132" y="-190"/>
      <point x="67" y="-190" type="curve" smooth="yes"/>
      <point x="61" y="-190"/>
      <point x="44" y="-188"/>
      <point x="36" y="-187" type="curve"/>
      <point x="37" y="-236" type="line"/>
      <point x="46" y="-239"/>
      <point x="70" y="-242"/>
      <point x="83" y="-242" type="curve" smooth="yes"/>
      <point x="181" y="-242"/>
      <point x="217" y="-160"/>
      <point x="235" y="-111" type="curve" smooth="yes"/>
      <point x="472" y="541" type="line"/>
      <point x="407" y="541" type="line"/>
    </contour>
    <contour>
      <point x="83" y="541" type="line"/>
      <point x="16" y="541" type="line"/>
      <point x="226" y="-10" type="line"/>
      <point x="271" y="14" type="line"/>
      <point x="254" y="74" type="line"/>
    </contour>
    <contour>
      <point x="487" y="800" type="move" name="top_dd"/>
    </contour>
    <contour>
      <point x="357" y="-79" type="move" name="bottom"/>
    </contour>
    <contour>
      <point x="257" y="646" type="move" name="marktop"/>
    </contour>
    <contour>
      <point x="487" y="-203" type="move" name="bottom_dd"/>
    </contour>
    <contour>
      <point x="487" y="646" type="move" name="top0315"/>
    </contour>
    <contour>
      <point x="372" y="327" type="move" name="rhotichook"/>
    </contour>
    <contour>
      <point x="257" y="646" type="move" name="top"/>
    </contour>
  </outline>
</glyph>
<glyph name="z" format="1">
  <advance width="499"/>
  <unicode hex="007A"/>
  <outline>
    <contour>
      <point x="470" y="50" type="line"/>
      <point x="66" y="50" type="line"/>
      <point x="66" y="0" type="line"/>
      <point x="470" y="0" type="line"/>
    </contour>
    <contour>
      <point x="448" y="498" type="line"/>
      <point x="448" y="541" type="line"/>
      <point x="409" y="541" type="line"/>
      <point x="44" y="44" type="line"/>
      <point x="44" y="0" type="line"/>
      <point x="82" y="0" type="line"/>
    </contour>
    <contour>
      <point x="421" y="541" type="line"/>
      <point x="54" y="541" type="line"/>
      <point x="54" y="491" type="line"/>
      <point x="421" y="491" type="line"/>
    </contour>
    <contour>
      <point x="499" y="646" type="move" name="top0315"/>
    </contour>
    <contour>
      <point x="499" y="800" type="move" name="top_dd"/>
    </contour>
    <contour>
      <point x="256" y="646" type="move" name="top"/>
    </contour>
    <contour>
      <point x="499" y="-203" type="move" name="bottom_dd"/>
    </contour>
    <contour>
      <point x="266" y="5" type="move" name="bottom"/>
    </contour>
  </outline>
</glyph>
<glyph name="braceleft" format="1">
  <advance width="339"/>
  <unicode hex="007B"/>
  <outline>
    <contour>
      <point x="319" y="799" type="line"/>
      <point x="189" y="760"/>
      <point x="150" y="671"/>
      <point x="150" y="566" type="curve"/>
      <point x="150" y="452" type="line"/>
      <point x="150" y="374"/>
      <point x="116" y="323"/>
      <point x="34" y="323" type="curve"/>
      <point x="34" y="283" type="line"/>
      <point x="160" y="283"/>
      <point x="211" y="358"/>
      <point x="211" y="452" type="curve"/>
      <point x="211" y="566" type="line"/>
      <point x="211" y="658"/>
      <point x="244" y="732"/>
      <point x="332" y="760" type="curve"/>
    </contour>
    <contour>
      <point x="334" y="-163" type="line"/>
      <point x="245" y="-134"/>
      <point x="211" y="-63"/>
      <point x="211" y="29" type="curve" smooth="yes"/>
      <point x="211" y="142" type="line" smooth="yes"/>
      <point x="211" y="237"/>
      <point x="160" y="312"/>
      <point x="34" y="312" type="curve"/>
      <point x="34" y="272" type="line"/>
      <point x="116" y="272"/>
      <point x="150" y="221"/>
      <point x="150" y="142" type="curve" smooth="yes"/>
      <point x="150" y="29" type="line" smooth="yes"/>
      <point x="150" y="-76"/>
      <point x="189" y="-164"/>
      <point x="319" y="-203" type="curve"/>
    </contour>
  </outline>
</glyph>
<glyph name="braceright" format="1">
  <advance width="339"/>
  <unicode hex="007D"/>
  <outline>
    <contour>
      <point x="7" y="760" type="line"/>
      <point x="95" y="732"/>
      <point x="128" y="658"/>
      <point x="128" y="566" type="curve" smooth="yes"/>
      <point x="128" y="452" type="line" smooth="yes"/>
      <point x="128" y="358"/>
      <point x="179" y="285"/>
      <point x="304" y="285" type="curve"/>
      <point x="304" y="323" type="line"/>
      <point x="223" y="323"/>
      <point x="189" y="374"/>
      <point x="189" y="452" type="curve" smooth="yes"/>
      <point x="189" y="566" type="line" smooth="yes"/>
      <point x="189" y="671"/>
      <point x="150" y="760"/>
      <point x="20" y="799" type="curve"/>
    </contour>
    <contour>
      <point x="20" y="-203" type="line"/>
      <point x="150" y="-164"/>
      <point x="189" y="-76"/>
      <point x="189" y="29" type="curve" smooth="yes"/>
      <point x="189" y="142" type="line" smooth="yes"/>
      <point x="189" y="221"/>
      <point x="223" y="272"/>
      <point x="304" y="272" type="curve"/>
      <point x="304" y="310" type="line"/>
      <point x="179" y="310"/>
      <point x="128" y="237"/>
      <point x="128" y="142" type="curve" smooth="yes"/>
      <point x="128" y="29" type="line" smooth="yes"/>
      <point x="128" y="-63"/>
      <point x="93" y="-134"/>
      <point x="5" y="-163" type="curve"/>
    </contour>
  </outline>
</glyph>
<glyph name="exclamdown" format="1">
  <advance width="227"/>
  <unicode hex="00A1"/>
  <outline>
    <contour>
      <point x="84" y="-180" type="line"/>
      <point x="147" y="-180" type="line"/>
      <point x="144" y="345" type="line"/>
      <point x="88" y="345" type="line"/>
    </contour>
    <contour>
      <point x="154" y="512" type="curve" smooth="yes"/>
      <point x="154" y="534"/>
      <point x="139" y="551"/>
      <point x="113" y="551" type="curve" smooth="yes"/>
      <point x="87" y="551"/>
      <point x="71" y="534"/>
      <point x="71" y="512" type="curve" smooth="yes"/>
      <point x="71" y="490"/>
      <point x="87" y="472"/>
      <point x="113" y="472" type="curve" smooth="yes"/>
      <point x="139" y="472"/>
      <point x="154" y="490"/>
    </contour>
  </outline>
</glyph>
<glyph name="cent" format="1">
  <advance width="558"/>
  <unicode hex="00A2"/>
  <outline>
    <contour>
      <point x="319" y="659" type="line"/>
      <point x="258" y="659" type="line"/>
      <point x="258" y="526" type="line"/>
      <point x="319" y="526" type="line"/>
    </contour>
    <contour>
      <point x="319" y="11" type="line"/>
      <point x="258" y="11" type="line"/>
      <point x="258" y="-122" type="line"/>
      <point x="319" y="-122" type="line"/>
    </contour>
    <component base="c" xOffset="24"/>
  </outline>
</glyph>
<glyph name="section" format="1">
  <advance width="620"/>
  <unicode hex="00A7"/>
  <outline>
    <contour>
      <point x="346" y="67" type="line"/>
      <point x="476" y="67"/>
      <point x="561" y="125"/>
      <point x="561" y="216" type="curve"/>
      <point x="561" y="334"/>
      <point x="473" y="375"/>
      <point x="324" y="414" type="curve" smooth="yes"/>
      <point x="174" y="457"/>
      <point x="138" y="487"/>
      <point x="138" y="562" type="curve"/>
      <point x="138" y="631"/>
      <point x="192" y="688"/>
      <point x="313" y="688" type="curve" smooth="yes"/>
      <point x="426" y="688"/>
      <point x="488" y="614"/>
      <point x="488" y="523" type="curve"/>
      <point x="549" y="523" type="line"/>
      <point x="549" y="662"/>
      <point x="460" y="738"/>
      <point x="313" y="738" type="curve" smooth="yes"/>
      <point x="169" y="738"/>
      <point x="77" y="668"/>
      <point x="77" y="560" type="curve"/>
      <point x="77" y="445"/>
      <point x="159" y="402"/>
      <point x="299" y="366" type="curve" smooth="yes"/>
      <point x="452" y="321"/>
      <point x="500" y="287"/>
      <point x="500" y="214" type="curve"/>
      <point x="500" y="153"/>
      <point x="444" y="105"/>
      <point x="346" y="105" type="curve"/>
    </contour>
    <contour>
      <point x="260" y="426" type="line"/>
      <point x="134" y="426"/>
      <point x="54" y="367"/>
      <point x="54" y="276" type="curve" smooth="yes"/>
      <point x="54" y="157"/>
      <point x="147" y="111"/>
      <point x="293" y="74" type="curve"/>
      <point x="438" y="33"/>
      <point x="477" y="-1"/>
      <point x="477" y="-70" type="curve" smooth="yes"/>
      <point x="477" y="-143"/>
      <point x="414" y="-197"/>
      <point x="304" y="-197" type="curve" smooth="yes"/>
      <point x="214" y="-197"/>
      <point x="112" y="-158"/>
      <point x="112" y="-31" type="curve"/>
      <point x="51" y="-32" type="line"/>
      <point x="51" y="-194"/>
      <point x="179" y="-247"/>
      <point x="304" y="-247" type="curve" smooth="yes"/>
      <point x="446" y="-247"/>
      <point x="538" y="-182"/>
      <point x="538" y="-69" type="curve" smooth="yes"/>
      <point x="538" y="46"/>
      <point x="457" y="87"/>
      <point x="316" y="125" type="curve" smooth="yes"/>
      <point x="155" y="171"/>
      <point x="115" y="199"/>
      <point x="115" y="277" type="curve" smooth="yes"/>
      <point x="115" y="340"/>
      <point x="161" y="388"/>
      <point x="260" y="388" type="curve"/>
    </contour>
  </outline>
</glyph>
<glyph name="copyright" format="1">
  <advance width="819"/>
  <unicode hex="00A9"/>
  <outline>
    <contour>
      <point x="511" y="304" type="line"/>
      <point x="511" y="225"/>
      <point x="473" y="192"/>
      <point x="403" y="192" type="curve" smooth="yes"/>
      <point x="329" y="192"/>
      <point x="287" y="255"/>
      <point x="287" y="340" type="curve" smooth="yes"/>
      <point x="287" y="389" type="line" smooth="yes"/>
      <point x="287" y="473"/>
      <point x="329" y="538"/>
      <point x="403" y="538" type="curve" smooth="yes"/>
      <point x="473" y="538"/>
      <point x="511" y="503"/>
      <point x="511" y="426" type="curve"/>
      <point x="562" y="426" type="line"/>
      <point x="562" y="530"/>
      <point x="500" y="582"/>
      <point x="403" y="582" type="curve" smooth="yes"/>
      <point x="302" y="582"/>
      <point x="237" y="503"/>
      <point x="237" y="389" type="curve"/>
      <point x="237" y="340" type="line"/>
      <point x="237" y="225"/>
      <point x="302" y="147"/>
      <point x="403" y="147" type="curve" smooth="yes"/>
      <point x="500" y="147"/>
      <point x="561" y="199"/>
      <point x="561" y="304" type="curve"/>
    </contour>
    <contour>
      <point x="97" y="365" type="curve"/>
      <point x="97" y="551"/>
      <point x="237" y="696"/>
      <point x="409" y="696" type="curve" smooth="yes"/>
      <point x="580" y="696"/>
      <point x="720" y="551"/>
      <point x="720" y="365" type="curve" smooth="yes"/>
      <point x="720" y="178"/>
      <point x="580" y="32"/>
      <point x="409" y="32" type="curve" smooth="yes"/>
      <point x="237" y="32"/>
      <point x="97" y="178"/>
    </contour>
    <contour>
      <point x="54" y="365" type="curve"/>
      <point x="54" y="153"/>
      <point x="213" y="-10"/>
      <point x="409" y="-10" type="curve" smooth="yes"/>
      <point x="604" y="-10"/>
      <point x="763" y="153"/>
      <point x="763" y="365" type="curve" smooth="yes"/>
      <point x="763" y="576"/>
      <point x="604" y="738"/>
      <point x="409" y="738" type="curve" smooth="yes"/>
      <point x="213" y="738"/>
      <point x="54" y="576"/>
    </contour>
  </outline>
</glyph>
<glyph name="ordfeminine" format="1">
  <advance width="454"/>
  <unicode hex="00AA"/>
  <outline>
    <contour>
      <point x="313" y="431" type="line"/>
      <point x="313" y="403"/>
      <point x="317" y="376"/>
      <point x="324" y="353" type="curve"/>
      <point x="381" y="353" type="line"/>
      <point x="372" y="382"/>
      <point x="368" y="411"/>
      <point x="368" y="443" type="curve" smooth="yes"/>
      <point x="368" y="600" type="line"/>
      <point x="368" y="692"/>
      <point x="313" y="738"/>
      <point x="233" y="738" type="curve" smooth="yes"/>
      <point x="142" y="738"/>
      <point x="82" y="689"/>
      <point x="82" y="622" type="curve"/>
      <point x="137" y="619" type="line"/>
      <point x="137" y="667"/>
      <point x="174" y="691"/>
      <point x="233" y="691" type="curve" smooth="yes"/>
      <point x="286" y="691"/>
      <point x="313" y="658"/>
      <point x="313" y="601" type="curve"/>
    </contour>
    <contour>
      <point x="327" y="570" type="line"/>
      <point x="244" y="570" type="line"/>
      <point x="136" y="570"/>
      <point x="79" y="528"/>
      <point x="79" y="455" type="curve" smooth="yes"/>
      <point x="79" y="389"/>
      <point x="123" y="346"/>
      <point x="203" y="346" type="curve" smooth="yes"/>
      <point x="271" y="346"/>
      <point x="317" y="391"/>
      <point x="331" y="429" type="curve"/>
      <point x="321" y="469" type="line"/>
      <point x="321" y="437"/>
      <point x="264" y="393"/>
      <point x="214" y="393" type="curve" smooth="yes"/>
      <point x="158" y="393"/>
      <point x="134" y="418"/>
      <point x="134" y="457" type="curve" smooth="yes"/>
      <point x="134" y="503"/>
      <point x="172" y="530"/>
      <point x="244" y="530" type="curve"/>
      <point x="328" y="530" type="line"/>
    </contour>
  </outline>
</glyph>
<glyph name="macron" format="1">
  <advance width="439"/>
  <unicode hex="00AF"/>
  <outline>
    <contour>
      <point x="380" y="720" type="line"/>
      <point x="69" y="720" type="line"/>
      <point x="69" y="673" type="line"/>
      <point x="380" y="673" type="line"/>
    </contour>
    <contour>
      <point x="222" y="779" type="move" name="mkmktop_acc"/>
    </contour>
    <contour>
      <point x="222" y="641" type="move" name="_top"/>
    </contour>
  </outline>
</glyph>
<glyph name="degree" format="1">
  <advance width="387"/>
  <unicode hex="00B0"/>
  <outline>
    <contour>
      <point x="72" y="614" type="curve"/>
      <point x="72" y="545"/>
      <point x="127" y="491"/>
      <point x="195" y="491" type="curve" smooth="yes"/>
      <point x="261" y="491"/>
      <point x="316" y="545"/>
      <point x="316" y="614" type="curve" smooth="yes"/>
      <point x="316" y="682"/>
      <point x="261" y="738"/>
      <point x="195" y="738" type="curve" smooth="yes"/>
      <point x="127" y="738"/>
      <point x="72" y="682"/>
    </contour>
    <contour>
      <point x="117" y="614" type="curve"/>
      <point x="117" y="660"/>
      <point x="151" y="694"/>
      <point x="195" y="694" type="curve" smooth="yes"/>
      <point x="238" y="694"/>
      <point x="270" y="660"/>
      <point x="270" y="614" type="curve" smooth="yes"/>
      <point x="270" y="569"/>
      <point x="238" y="536"/>
      <point x="195" y="536" type="curve" smooth="yes"/>
      <point x="151" y="536"/>
      <point x="117" y="569"/>
    </contour>
  </outline>
</glyph>
<glyph name="mu" format="1">
  <advance width="571"/>
  <unicode hex="00B5"/>
  <outline>
    <contour>
      <point x="429" y="541" type="line"/>
      <point x="429" y="125" type="line"/>
      <point x="435" y="0" type="line"/>
      <point x="490" y="0" type="line"/>
      <point x="490" y="541" type="line"/>
    </contour>
    <contour>
      <point x="439" y="252" type="line"/>
      <point x="439" y="132"/>
      <point x="408" y="40"/>
      <point x="273" y="40" type="curve" smooth="yes"/>
      <point x="203" y="40"/>
      <point x="142" y="75"/>
      <point x="142" y="225" type="curve"/>
      <point x="102" y="225" type="line"/>
      <point x="110" y="139" type="line"/>
      <point x="130" y="27"/>
      <point x="196" y="-10"/>
      <point x="277" y="-10" type="curve" smooth="yes"/>
      <point x="414" y="-10"/>
      <point x="469" y="101"/>
      <point x="469" y="253" type="curve"/>
    </contour>
    <contour>
      <point x="82" y="541" type="line"/>
      <point x="82" y="-208" type="line"/>
      <point x="142" y="-208" type="line"/>
      <point x="142" y="541" type="line"/>
    </contour>
  </outline>
</glyph>
<glyph name="cedilla" format="1">
  <advance width="250"/>
  <unicode hex="00B8"/>
  <outline>
    <contour>
      <point x="77" y="0" type="line"/>
      <point x="63" y="-64" type="line"/>
      <point x="122" y="-69"/>
      <point x="150" y="-80"/>
      <point x="150" y="-119" type="curve" smooth="yes"/>
      <point x="150" y="-161"/>
      <point x="99" y="-179"/>
      <point x="50" y="-179" type="curve"/>
      <point x="53" y="-217" type="line"/>
      <point x="147" y="-217"/>
      <point x="200" y="-177"/>
      <point x="200" y="-118" type="curve" smooth="yes"/>
      <point x="200" y="-58"/>
      <point x="160" y="-38"/>
      <point x="118" y="-32" type="curve"/>
      <point x="124" y="0" type="line"/>
    </contour>
    <contour>
      <point x="99" y="0" type="move" name="_bottom"/>
    </contour>
    <contour>
      <point x="99" y="-218" type="move" name="mkmkbottom_acc"/>
    </contour>
  </outline>
</glyph>
<glyph name="ordmasculine" format="1">
  <advance width="462"/>
  <unicode hex="00BA"/>
  <outline>
    <contour>
      <point x="68" y="517" type="line"/>
      <point x="68" y="417"/>
      <point x="130" y="345"/>
      <point x="231" y="345" type="curve" smooth="yes"/>
      <point x="330" y="345"/>
      <point x="392" y="417"/>
      <point x="392" y="517" type="curve"/>
      <point x="392" y="567" type="line"/>
      <point x="392" y="667"/>
      <point x="330" y="738"/>
      <point x="230" y="738" type="curve" smooth="yes"/>
      <point x="130" y="738"/>
      <point x="68" y="667"/>
      <point x="68" y="567" type="curve"/>
    </contour>
    <contour>
      <point x="123" y="567" type="line"/>
      <point x="123" y="636"/>
      <point x="158" y="691"/>
      <point x="230" y="691" type="curve" smooth="yes"/>
      <point x="302" y="691"/>
      <point x="337" y="636"/>
      <point x="337" y="567" type="curve"/>
      <point x="337" y="517" type="line"/>
      <point x="337" y="447"/>
      <point x="302" y="392"/>
      <point x="231" y="392" type="curve" smooth="yes"/>
      <point x="156" y="392"/>
      <point x="123" y="447"/>
      <point x="123" y="517" type="curve"/>
    </contour>
  </outline>
</glyph>
<glyph name="multiply" format="1">
  <advance width="537"/>
  <unicode hex="00D7"/>
  <outline>
    <contour>
      <point x="87" y="49" type="line"/>
      <point x="477" y="446" type="line"/>
      <point x="436" y="485" type="line"/>
      <point x="47" y="87" type="line"/>
    </contour>
    <contour>
      <point x="444" y="49" type="line"/>
      <point x="484" y="87" type="line"/>
      <point x="94" y="485" type="line"/>
      <point x="54" y="446" type="line"/>
    </contour>
  </outline>
</glyph>
<glyph name="Thorn" format="1">
  <advance width="607"/>
  <unicode hex="00DE"/>
  <outline>
    <contour>
      <point x="92" y="728" type="line"/>
      <point x="92" y="0" type="line"/>
      <point x="153" y="0" type="line"/>
      <point x="153" y="728" type="line"/>
    </contour>
    <contour>
      <point x="120" y="577" type="line"/>
      <point x="147" y="527" type="line"/>
      <point x="314" y="527" type="line" smooth="yes"/>
      <point x="437" y="527"/>
      <point x="488" y="447"/>
      <point x="488" y="368" type="curve" smooth="yes"/>
      <point x="488" y="293"/>
      <point x="437" y="212"/>
      <point x="314" y="212" type="curve" smooth="yes"/>
      <point x="132" y="212" type="line"/>
      <point x="132" y="162" type="line"/>
      <point x="314" y="162" type="line" smooth="yes"/>
      <point x="466" y="162"/>
      <point x="549" y="250"/>
      <point x="549" y="369" type="curve" smooth="yes"/>
      <point x="549" y="488"/>
      <point x="466" y="577"/>
      <point x="314" y="577" type="curve" smooth="yes"/>
    </contour>
  </outline>
</glyph>
<glyph name="germandbls" format="1">
  <advance width="601"/>
  <unicode hex="00DF"/>
  <outline>
    <contour>
      <point x="137" y="530" type="line"/>
      <point x="137" y="638"/>
      <point x="185" y="682"/>
      <point x="262" y="682" type="curve" smooth="yes"/>
      <point x="320" y="682"/>
      <point x="371" y="645"/>
      <point x="371" y="588" type="curve" smooth="yes"/>
      <point x="371" y="512"/>
      <point x="307" y="487"/>
      <point x="307" y="404" type="curve" smooth="yes"/>
      <point x="307" y="280"/>
      <point x="488" y="255"/>
      <point x="488" y="154" type="curve" smooth="yes"/>
      <point x="488" y="92"/>
      <point x="440" y="40"/>
      <point x="354" y="40" type="curve" smooth="yes"/>
      <point x="304" y="40"/>
      <point x="250" y="62"/>
      <point x="225" y="80" type="curve"/>
      <point x="208" y="31" type="line"/>
      <point x="234" y="9"/>
      <point x="304" y="-10"/>
      <point x="361" y="-10" type="curve" smooth="yes"/>
      <point x="458" y="-10"/>
      <point x="549" y="46"/>
      <point x="549" y="154" type="curve" smooth="yes"/>
      <point x="549" y="281"/>
      <point x="368" y="308"/>
      <point x="368" y="403" type="curve" smooth="yes"/>
      <point x="368" y="482"/>
      <point x="429" y="500"/>
      <point x="429" y="591" type="curve" smooth="yes"/>
      <point x="429" y="682"/>
      <point x="351" y="732"/>
      <point x="257" y="732" type="curve" smooth="yes"/>
      <point x="145" y="732"/>
      <point x="76" y="662"/>
      <point x="76" y="530" type="curve" smooth="yes"/>
      <point x="76" y="0" type="line"/>
      <point x="137" y="0" type="line"/>
    </contour>
  </outline>
</glyph>
<glyph name="divide" format="1">
  <advance width="583"/>
  <unicode hex="00F7"/>
  <outline>
    <contour>
      <point x="535" y="380" type="line"/>
      <point x="36" y="380" type="line"/>
      <point x="36" y="323" type="line"/>
      <point x="535" y="323" type="line"/>
    </contour>
    <contour>
      <point x="247" y="544" type="curve" smooth="yes"/>
      <point x="247" y="522"/>
      <point x="263" y="504"/>
      <point x="290" y="504" type="curve" smooth="yes"/>
      <point x="317" y="504"/>
      <point x="334" y="522"/>
      <point x="334" y="544" type="curve" smooth="yes"/>
      <point x="334" y="567"/>
      <point x="317" y="586"/>
      <point x="290" y="586" type="curve" smooth="yes"/>
      <point x="263" y="586"/>
      <point x="247" y="567"/>
    </contour>
    <contour>
      <point x="247" y="146" type="curve" smooth="yes"/>
      <point x="247" y="124"/>
      <point x="263" y="106"/>
      <point x="290" y="106" type="curve" smooth="yes"/>
      <point x="317" y="106"/>
      <point x="334" y="124"/>
      <point x="334" y="146" type="curve" smooth="yes"/>
      <point x="334" y="169"/>
      <point x="317" y="187"/>
      <point x="290" y="187" type="curve" smooth="yes"/>
      <point x="263" y="187"/>
      <point x="247" y="169"/>
    </contour>
  </outline>
</glyph>
<glyph name="oslash" format="1">
  <advance width="571"/>
  <unicode hex="00F8"/>
  <outline>
    <contour>
      <point x="479" y="607" type="line"/>
      <point x="432" y="607" type="line"/>
      <point x="101" y="-70" type="line"/>
      <point x="148" y="-70" type="line"/>
    </contour>
    <component base="o" xOffset="-2"/>
    <contour>
      <point x="262" y="645" type="move" name="top"/>
    </contour>
    <contour>
      <point x="571" y="645" type="move" name="top0315"/>
    </contour>
    <contour>
      <point x="571" y="800" type="move" name="top_dd"/>
    </contour>
  </outline>
</glyph>
<glyph name="dcroat" format="1">
  <advance width="587"/>
  <unicode hex="0111"/>
  <outline>
    <contour>
      <point x="430" y="105" type="line"/>
      <point x="434" y="0" type="line"/>
      <point x="491" y="0" type="line"/>
      <point x="491" y="768" type="line"/>
      <point x="430" y="768" type="line"/>
    </contour>
    <contour>
      <point x="54" y="265" type="line"/>
      <point x="54" y="104"/>
      <point x="135" y="-10"/>
      <point x="262" y="-10" type="curve" smooth="yes"/>
      <point x="392" y="-10"/>
      <point x="461" y="77"/>
      <point x="477" y="197" type="curve"/>
      <point x="477" y="335" type="line"/>
      <point x="457" y="464"/>
      <point x="391" y="551"/>
      <point x="263" y="551" type="curve" smooth="yes"/>
      <point x="135" y="551"/>
      <point x="54" y="444"/>
      <point x="54" y="276" type="curve" smooth="yes"/>
    </contour>
    <contour>
      <point x="116" y="276" type="line"/>
      <point x="116" y="402"/>
      <point x="165" y="500"/>
      <point x="275" y="500" type="curve" smooth="yes"/>
      <point x="389" y="500"/>
      <point x="431" y="413"/>
      <point x="446" y="343" type="curve"/>
      <point x="446" y="186" type="line"/>
      <point x="427" y="107"/>
      <point x="376" y="42"/>
      <point x="274" y="42" type="curve" smooth="yes"/>
      <point x="165" y="42"/>
      <point x="116" y="138"/>
      <point x="116" y="265" type="curve" smooth="yes"/>
    </contour>
    <contour>
      <point x="578" y="679" type="line"/>
      <point x="272" y="679" type="line"/>
      <point x="272" y="629" type="line"/>
      <point x="578" y="629" type="line"/>
    </contour>
    <contour>
      <point x="570" y="800" type="move" name="top_dd"/>
    </contour>
    <contour>
      <point x="304" y="0" type="move" name="bottom"/>
    </contour>
    <contour>
      <point x="304" y="0" type="move" name="markbottom"/>
    </contour>
    <contour>
      <point x="570" y="-203" type="move" name="bottom_dd"/>
    </contour>
    <contour>
      <point x="424" y="654" type="move" name="parenthesses.w2"/>
    </contour>
    <contour>
      <point x="587" y="806" type="move" name="top0315"/>
    </contour>
    <contour>
      <point x="555" y="768" type="move" name="caron"/>
    </contour>
    <contour>
      <point x="272" y="806" type="move" name="top"/>
    </contour>
  </outline>
</glyph>
<glyph name="idotless" format="1">
  <advance width="229"/>
  <unicode hex="0131"/>
  <outline>
    <contour>
      <point x="145" y="541" type="line"/>
      <point x="84" y="541" type="line"/>
      <point x="84" y="0" type="line"/>
      <point x="145" y="0" type="line"/>
    </contour>
    <contour>
      <point x="84" y="489" type="line"/>
      <point x="145" y="489" type="line"/>
      <point x="145" y="541" type="line"/>
      <point x="84" y="541" type="line"/>
    </contour>
    <contour>
      <point x="84" y="0" type="line"/>
      <point x="145" y="0" type="line"/>
      <point x="145" y="52" type="line"/>
      <point x="84" y="52" type="line"/>
    </contour>
    <contour>
      <point x="229" y="639" type="move" name="top0315"/>
    </contour>
    <contour>
      <point x="115" y="5" type="move" name="bottom"/>
    </contour>
    <contour>
      <point x="116" y="639" type="move" name="top"/>
    </contour>
    <contour>
      <point x="123" y="327" type="move" name="rhotichook"/>
    </contour>
  </outline>
</glyph>
<glyph name="kgreenlandic" format="1">
  <advance width="557"/>
  <unicode hex="0138"/>
  <outline>
    <contour>
      <point x="143" y="541" type="line"/>
      <point x="82" y="541" type="line"/>
      <point x="82" y="0" type="line"/>
      <point x="143" y="0" type="line"/>
    </contour>
    <contour>
      <point x="505" y="541" type="line"/>
      <point x="430" y="541" type="line"/>
      <point x="209" y="301" type="line"/>
      <point x="115" y="301" type="line"/>
      <point x="121" y="249" type="line"/>
      <point x="238" y="249" type="line"/>
    </contour>
    <contour>
      <point x="451" y="0" type="line"/>
      <point x="529" y="0" type="line"/>
      <point x="242" y="302" type="line"/>
      <point x="204" y="257" type="line"/>
    </contour>
    <contour>
      <point x="288" y="645" type="move" name="top"/>
    </contour>
    <contour>
      <point x="288" y="5" type="move" name="bottom"/>
    </contour>
    <contour>
      <point x="557" y="645" type="move" name="top0315"/>
    </contour>
  </outline>
</glyph>
<glyph name="Lslash" format="1">
  <advance width="542"/>
  <unicode hex="0141"/>
  <outline>
    <contour>
      <point x="306" y="457" type="line"/>
      <point x="11" y="364" type="line"/>
      <point x="11" y="319" type="line"/>
      <point x="306" y="413" type="line"/>
    </contour>
    <component base="L" xOffset="-4"/>
    <contour>
      <point x="120" y="786" type="move" name="top"/>
    </contour>
    <contour>
      <point x="307" y="5" type="move" name="bottom"/>
    </contour>
    <contour>
      <point x="542" y="786" type="move" name="top0315"/>
    </contour>
  </outline>
</glyph>
<glyph name="lslash" format="1">
  <advance width="265"/>
  <unicode hex="0142"/>
  <outline>
    <contour>
      <point x="253" y="465" type="line"/>
      <point x="13" y="372" type="line"/>
      <point x="13" y="327" type="line"/>
      <point x="253" y="421" type="line"/>
    </contour>
    <component base="l" xOffset="34"/>
    <contour>
      <point x="135" y="842" type="move" name="top"/>
    </contour>
    <contour>
      <point x="135" y="5" type="move" name="bottom"/>
    </contour>
    <contour>
      <point x="265" y="842" type="move" name="top0315"/>
    </contour>
  </outline>
</glyph>
<glyph name="OE" format="1">
  <advance width="957"/>
  <unicode hex="0152"/>
  <outline>
    <contour>
      <point x="323" y="738" type="curve" smooth="yes"/>
      <point x="163" y="738"/>
      <point x="54" y="617"/>
      <point x="54" y="440" type="curve"/>
      <point x="54" y="288" type="line"/>
      <point x="54" y="112"/>
      <point x="164" y="-10"/>
      <point x="324" y="-10" type="curve" smooth="yes"/>
      <point x="378" y="-10"/>
      <point x="431" y="-5"/>
      <point x="479" y="0" type="curve"/>
      <point x="479" y="51" type="line"/>
      <point x="434" y="44"/>
      <point x="378" y="40"/>
      <point x="324" y="40" type="curve" smooth="yes"/>
      <point x="197" y="40"/>
      <point x="115" y="136"/>
      <point x="115" y="288" type="curve"/>
      <point x="115" y="441" type="line"/>
      <point x="115" y="595"/>
      <point x="196" y="688"/>
      <point x="323" y="688" type="curve" smooth="yes"/>
      <point x="379" y="688"/>
      <point x="432" y="685"/>
      <point x="479" y="677" type="curve"/>
      <point x="479" y="728" type="line"/>
      <point x="431" y="734"/>
      <point x="377" y="738"/>
    </contour>
    <component base="E" xOffset="711"/>
    <contour>
      <point x="957" y="810" type="move" name="top0315"/>
    </contour>
    <contour>
      <point x="957" y="800" type="move" name="top_dd"/>
    </contour>
    <contour>
      <point x="478" y="810" type="move" name="top"/>
    </contour>
    <contour>
      <point x="957" y="-203" type="move" name="bottom_dd"/>
    </contour>
    <contour>
      <point x="478" y="0" type="move" name="bottom"/>
    </contour>
  </outline>
</glyph>
<glyph name="tonesix" format="1">
  <advance width="595"/>
  <unicode hex="0185"/>
  <outline>
    <contour>
      <point x="110" y="768" type="line"/>
      <point x="110" y="768"/>
      <point x="42" y="660"/>
      <point x="42" y="660" type="curve"/>
      <point x="42" y="631" type="line"/>
      <point x="42" y="631"/>
      <point x="110" y="524"/>
      <point x="110" y="524" type="curve"/>
      <point x="129" y="524" type="line"/>
      <point x="129" y="768" type="line"/>
    </contour>
    <component base="b" xOffset="66"/>
  </outline>
</glyph>
<glyph name="Oopen" format="1">
  <advance width="665"/>
  <unicode hex="0186"/>
  <outline>
    <contour>
      <point x="57" y="228" type="line"/>
      <point x="72" y="78"/>
      <point x="165" y="-10"/>
      <point x="321" y="-10" type="curve" smooth="yes"/>
      <point x="492" y="-10"/>
      <point x="600" y="122"/>
      <point x="600" y="318" type="curve" smooth="yes"/>
      <point x="600" y="410" type="line" smooth="yes"/>
      <point x="600" y="607"/>
      <point x="491" y="738"/>
      <point x="325" y="738" type="curve" smooth="yes"/>
      <point x="165" y="738"/>
      <point x="73" y="650"/>
      <point x="57" y="501" type="curve"/>
      <point x="120" y="501" type="line"/>
      <point x="136" y="625"/>
      <point x="197" y="687"/>
      <point x="325" y="687" type="curve" smooth="yes"/>
      <point x="461" y="687"/>
      <point x="537" y="571"/>
      <point x="537" y="410" type="curve" smooth="yes"/>
      <point x="537" y="317" type="line" smooth="yes"/>
      <point x="537" y="152"/>
      <point x="456" y="42"/>
      <point x="321" y="42" type="curve" smooth="yes"/>
      <point x="196" y="42"/>
      <point x="135" y="109"/>
      <point x="120" y="228" type="curve"/>
    </contour>
  </outline>
</glyph>
<glyph name="Chook" format="1">
  <advance width="713"/>
  <unicode hex="0187"/>
  <outline>
    <contour>
      <point x="608" y="501" type="line"/>
      <point x="608" y="589" type="line" smooth="yes"/>
      <point x="608" y="672"/>
      <point x="636" y="710"/>
      <point x="700" y="710" type="curve" smooth="yes"/>
      <point x="714" y="710"/>
      <point x="731" y="707"/>
      <point x="741" y="704" type="curve"/>
      <point x="745" y="754" type="line"/>
      <point x="727" y="760"/>
      <point x="707" y="763"/>
      <point x="688" y="763" type="curve" smooth="yes"/>
      <point x="596" y="763"/>
      <point x="555" y="702"/>
      <point x="555" y="589" type="curve" smooth="yes"/>
      <point x="555" y="501" type="line"/>
    </contour>
    <component base="C"/>
  </outline>
</glyph>
<glyph name="chook" format="1">
  <advance width="631"/>
  <unicode hex="0188"/>
  <outline>
    <contour>
      <point x="487" y="359" type="line"/>
      <point x="487" y="408" type="line" smooth="yes"/>
      <point x="487" y="487"/>
      <point x="512" y="525"/>
      <point x="573" y="525" type="curve" smooth="yes"/>
      <point x="586" y="525"/>
      <point x="603" y="522"/>
      <point x="612" y="519" type="curve"/>
      <point x="616" y="563" type="line"/>
      <point x="599" y="568"/>
      <point x="580" y="572"/>
      <point x="563" y="572" type="curve" smooth="yes"/>
      <point x="477" y="572"/>
      <point x="441" y="514"/>
      <point x="441" y="408" type="curve" smooth="yes"/>
      <point x="441" y="359" type="line"/>
    </contour>
    <component base="c"/>
  </outline>
</glyph>
<glyph name="Eturn" format="1">
  <advance width="583"/>
  <unicode hex="018E"/>
  <outline>
    <contour>
      <point x="38" y="677" type="line"/>
      <point x="446" y="677" type="line"/>
      <point x="446" y="728" type="line"/>
      <point x="38" y="728" type="line"/>
    </contour>
    <contour>
      <point x="428" y="0" type="line"/>
      <point x="491" y="0" type="line"/>
      <point x="491" y="728" type="line"/>
      <point x="428" y="728" type="line"/>
    </contour>
    <contour>
      <point x="89" y="342" type="line"/>
      <point x="446" y="342" type="line"/>
      <point x="446" y="393" type="line"/>
      <point x="89" y="393" type="line"/>
    </contour>
    <contour>
      <point x="40" y="0" type="line"/>
      <point x="446" y="0" type="line"/>
      <point x="446" y="52" type="line"/>
      <point x="40" y="52" type="line"/>
    </contour>
  </outline>
</glyph>
<glyph name="Epsilon1" format="1">
  <advance width="638"/>
  <unicode hex="0190"/>
  <outline>
    <contour>
      <point x="398" y="355" type="line"/>
      <point x="398" y="398" type="line"/>
      <point x="310" y="398" type="line" smooth="yes"/>
      <point x="177" y="398"/>
      <point x="123" y="453"/>
      <point x="123" y="539" type="curve" smooth="yes"/>
      <point x="123" y="624"/>
      <point x="180" y="687"/>
      <point x="313" y="687" type="curve" smooth="yes"/>
      <point x="413" y="687"/>
      <point x="493" y="629"/>
      <point x="493" y="538" type="curve"/>
      <point x="556" y="538" type="line"/>
      <point x="556" y="662"/>
      <point x="444" y="738"/>
      <point x="313" y="738" type="curve" smooth="yes"/>
      <point x="160" y="738"/>
      <point x="60" y="669"/>
      <point x="60" y="537" type="curve" smooth="yes"/>
      <point x="60" y="427"/>
      <point x="155" y="355"/>
      <point x="308" y="355" type="curve"/>
    </contour>
    <contour>
      <point x="308" y="387" type="line"/>
      <point x="138" y="387"/>
      <point x="49" y="320"/>
      <point x="49" y="198" type="curve" smooth="yes"/>
      <point x="49" y="54"/>
      <point x="165" y="-10"/>
      <point x="313" y="-10" type="curve" smooth="yes"/>
      <point x="436" y="-10"/>
      <point x="567" y="55"/>
      <point x="567" y="202" type="curve"/>
      <point x="503" y="202" type="line"/>
      <point x="503" y="110"/>
      <point x="427" y="41"/>
      <point x="313" y="41" type="curve" smooth="yes"/>
      <point x="187" y="41"/>
      <point x="112" y="96"/>
      <point x="112" y="196" type="curve" smooth="yes"/>
      <point x="112" y="302"/>
      <point x="181" y="346"/>
      <point x="310" y="346" type="curve" smooth="yes"/>
      <point x="398" y="346" type="line"/>
      <point x="398" y="387" type="line"/>
    </contour>
    <contour>
      <point x="308" y="810" type="move" name="top"/>
    </contour>
    <contour>
      <point x="308" y="0" type="move" name="bottom"/>
    </contour>
    <contour>
      <point x="638" y="810" type="move" name="top0315"/>
    </contour>
  </outline>
</glyph>
<glyph name="Ghook" format="1">
  <advance width="722"/>
  <unicode hex="0193"/>
  <outline>
    <contour>
      <point x="618" y="524" type="line"/>
      <point x="618" y="589" type="line" smooth="yes"/>
      <point x="618" y="672"/>
      <point x="645" y="712"/>
      <point x="710" y="712" type="curve" smooth="yes"/>
      <point x="723" y="712"/>
      <point x="741" y="709"/>
      <point x="751" y="705" type="curve"/>
      <point x="754" y="754" type="line"/>
      <point x="737" y="760"/>
      <point x="716" y="763"/>
      <point x="698" y="763" type="curve" smooth="yes"/>
      <point x="605" y="763"/>
      <point x="565" y="702"/>
      <point x="565" y="589" type="curve" smooth="yes"/>
      <point x="565" y="524" type="line"/>
    </contour>
    <component base="G"/>
  </outline>
</glyph>
<glyph name="Gamma1" format="1">
  <advance width="628"/>
  <unicode hex="0194"/>
  <outline>
    <contour>
      <point x="14" y="728" type="curve"/>
      <point x="311" y="39" type="line" smooth="yes"/>
      <point x="340" y="-26"/>
      <point x="352" y="-63"/>
      <point x="352" y="-92" type="curve" smooth="yes"/>
      <point x="352" y="-121"/>
      <point x="340" y="-139"/>
      <point x="314" y="-139" type="curve" smooth="yes"/>
      <point x="288" y="-139"/>
      <point x="276" y="-121"/>
      <point x="276" y="-92" type="curve" smooth="yes"/>
      <point x="276" y="-64"/>
      <point x="290" y="-24"/>
      <point x="318" y="39" type="curve" smooth="yes"/>
      <point x="615" y="728" type="line"/>
      <point x="615" y="728"/>
      <point x="545" y="728"/>
      <point x="545" y="728" type="curve"/>
      <point x="280" y="91" type="line" smooth="yes"/>
      <point x="242" y="2"/>
      <point x="216" y="-47"/>
      <point x="216" y="-92" type="curve" smooth="yes"/>
      <point x="216" y="-154"/>
      <point x="253" y="-190"/>
      <point x="314" y="-190" type="curve" smooth="yes"/>
      <point x="375" y="-190"/>
      <point x="413" y="-154"/>
      <point x="413" y="-92" type="curve" smooth="yes"/>
      <point x="413" y="-47"/>
      <point x="384" y="2"/>
      <point x="346" y="91" type="curve" smooth="yes"/>
      <point x="84" y="728" type="line"/>
      <point x="84" y="728"/>
      <point x="14" y="728"/>
    </contour>
  </outline>
</glyph>
<glyph name="hv" format="1">
  <advance width="872"/>
  <unicode hex="0195"/>
  <outline>
    <contour>
      <point x="139" y="768" type="line"/>
      <point x="78" y="768" type="line"/>
      <point x="78" y="0" type="line"/>
      <point x="139" y="0" type="line"/>
    </contour>
    <contour>
      <point x="126" y="305" type="line"/>
      <point x="128" y="385"/>
      <point x="186" y="500"/>
      <point x="299" y="500" type="curve" smooth="yes"/>
      <point x="396" y="500"/>
      <point x="426" y="445"/>
      <point x="426" y="349" type="curve" smooth="yes"/>
      <point x="426" y="250" type="line"/>
      <point x="487" y="250" type="line"/>
      <point x="487" y="349" type="line" smooth="yes"/>
      <point x="487" y="466"/>
      <point x="447" y="551"/>
      <point x="314" y="551" type="curve" smooth="yes"/>
      <point x="190" y="551"/>
      <point x="106" y="447"/>
      <point x="99" y="321" type="curve"/>
    </contour>
    <contour>
      <point x="611" y="-10" type="curve" smooth="yes"/>
      <point x="725" y="-10"/>
      <point x="796" y="59"/>
      <point x="796" y="228" type="curve" smooth="yes"/>
      <point x="796" y="541" type="line"/>
      <point x="735" y="541" type="line"/>
      <point x="735" y="227" type="line" smooth="yes"/>
      <point x="735" y="89"/>
      <point x="679" y="41"/>
      <point x="611" y="41" type="curve" smooth="yes"/>
      <point x="543" y="41"/>
      <point x="487" y="89"/>
      <point x="487" y="227" type="curve" smooth="yes"/>
      <point x="487" y="291" type="line"/>
      <point x="426" y="291" type="line"/>
      <point x="426" y="228" type="line" smooth="yes"/>
      <point x="426" y="59"/>
      <point x="497" y="-10"/>
    </contour>
  </outline>
</glyph>
<glyph name="Ibar" format="1">
  <advance width="327"/>
  <unicode hex="0197"/>
  <outline>
    <component base="I"/>
    <component base="crossbar" xOffset="-106"/>
    <contour>
      <point x="164" y="806" type="move" name="top"/>
    </contour>
    <contour>
      <point x="164" y="2" type="move" name="bottom"/>
    </contour>
    <contour>
      <point x="327" y="806" type="move" name="top0315"/>
    </contour>
  </outline>
</glyph>
<glyph name="Khook" format="1">
  <advance width="646"/>
  <unicode hex="0198"/>
  <outline>
    <contour>
      <point x="155" y="728" type="line"/>
      <point x="92" y="728" type="line"/>
      <point x="92" y="0" type="line"/>
      <point x="155" y="0" type="line"/>
    </contour>
    <contour>
      <point x="552" y="0" type="line"/>
      <point x="629" y="0" type="line"/>
      <point x="285" y="424" type="line"/>
      <point x="247" y="375" type="line"/>
    </contour>
    <contour>
      <point x="411" y="643" type="curve" smooth="yes"/>
      <point x="253" y="439" type="line"/>
      <point x="127" y="277" type="line"/>
      <point x="133" y="205" type="line"/>
      <point x="291" y="395" type="line"/>
      <point x="463" y="616" type="line" smooth="yes"/>
      <point x="490" y="653"/>
      <point x="513" y="682"/>
      <point x="554" y="682" type="curve" smooth="yes"/>
      <point x="587" y="682"/>
      <point x="609" y="664"/>
      <point x="626" y="649" type="curve"/>
      <point x="652" y="690" type="line"/>
      <point x="627" y="715"/>
      <point x="590" y="738"/>
      <point x="549" y="738" type="curve" smooth="yes"/>
      <point x="485" y="738"/>
      <point x="452" y="694"/>
    </contour>
  </outline>
</glyph>
<glyph name="khook" format="1">
  <advance width="503"/>
  <unicode hex="0199"/>
  <outline>
    <contour>
      <point x="139" y="592" type="line"/>
      <point x="78" y="592" type="line"/>
      <point x="78" y="0" type="line"/>
      <point x="139" y="0" type="line"/>
    </contour>
    <contour>
      <point x="478" y="541" type="line"/>
      <point x="401" y="541" type="line"/>
      <point x="196" y="337" type="line"/>
      <point x="109" y="245" type="line"/>
      <point x="118" y="188" type="line"/>
      <point x="226" y="290" type="line"/>
    </contour>
    <contour>
      <point x="425" y="0" type="line"/>
      <point x="498" y="0" type="line"/>
      <point x="234" y="333" type="line"/>
      <point x="200" y="283" type="line"/>
    </contour>
    <contour>
      <point x="139" y="566" type="line"/>
      <point x="139" y="616" type="line" smooth="yes"/>
      <point x="139" y="694"/>
      <point x="164" y="733"/>
      <point x="225" y="733" type="curve" smooth="yes"/>
      <point x="239" y="733"/>
      <point x="255" y="729"/>
      <point x="265" y="726" type="curve"/>
      <point x="268" y="770" type="line"/>
      <point x="251" y="775"/>
      <point x="233" y="779"/>
      <point x="215" y="779" type="curve" smooth="yes"/>
      <point x="129" y="779"/>
      <point x="78" y="721"/>
      <point x="78" y="616" type="curve" smooth="yes"/>
      <point x="78" y="566" type="line"/>
    </contour>
  </outline>
</glyph>
<glyph name="mcapturn" format="1">
  <advance width="945"/>
  <unicode hex="019C"/>
  <outline>
    <contour>
      <point x="790" y="117" type="line"/>
      <point x="793" y="0" type="line"/>
      <point x="852" y="0" type="line"/>
      <point x="852" y="728" type="line"/>
      <point x="790" y="728" type="line"/>
    </contour>
    <contour>
      <point x="797" y="235" type="line"/>
      <point x="797" y="133"/>
      <point x="755" y="41"/>
      <point x="627" y="41" type="curve" smooth="yes"/>
      <point x="559" y="41"/>
      <point x="503" y="89"/>
      <point x="503" y="227" type="curve"/>
      <point x="503" y="728" type="line"/>
      <point x="442" y="728" type="line"/>
      <point x="442" y="228" type="line"/>
      <point x="442" y="55"/>
      <point x="514" y="-10"/>
      <point x="620" y="-10" type="curve" smooth="yes"/>
      <point x="769" y="-10"/>
      <point x="831" y="94"/>
      <point x="831" y="236" type="curve"/>
    </contour>
    <contour>
      <point x="448" y="235" type="line"/>
      <point x="448" y="133"/>
      <point x="406" y="41"/>
      <point x="278" y="41" type="curve" smooth="yes"/>
      <point x="210" y="41"/>
      <point x="154" y="89"/>
      <point x="154" y="227" type="curve" smooth="yes"/>
      <point x="154" y="728" type="line"/>
      <point x="93" y="728" type="line"/>
      <point x="93" y="228" type="line" smooth="yes"/>
      <point x="93" y="55"/>
      <point x="164" y="-10"/>
      <point x="271" y="-10" type="curve" smooth="yes"/>
      <point x="420" y="-10"/>
      <point x="482" y="94"/>
      <point x="482" y="236" type="curve"/>
    </contour>
  </outline>
</glyph>
<glyph name="ohorn" format="1">
  <advance width="574"/>
  <unicode hex="01A1"/>
  <outline>
    <contour>
      <point x="541" y="599" type="line"/>
      <point x="541" y="525"/>
      <point x="527" y="479"/>
      <point x="444" y="479" type="curve"/>
      <point x="444" y="437" type="line"/>
      <point x="556" y="437"/>
      <point x="593" y="497"/>
      <point x="593" y="599" type="curve"/>
    </contour>
    <component base="o" xOffset="-2"/>
    <contour>
      <point x="291" y="645" type="move" name="top"/>
    </contour>
    <contour>
      <point x="291" y="-5" type="move" name="bottom"/>
    </contour>
    <contour>
      <point x="574" y="645" type="move" name="top0315"/>
    </contour>
  </outline>
</glyph>
<glyph name="phook" format="1">
  <advance width="568"/>
  <unicode hex="01A5"/>
  <outline>
    <contour>
      <point x="139" y="448" type="line"/>
      <point x="139" y="511" type="line" smooth="yes"/>
      <point x="139" y="589"/>
      <point x="164" y="628"/>
      <point x="225" y="628" type="curve" smooth="yes"/>
      <point x="238" y="628"/>
      <point x="254" y="625"/>
      <point x="264" y="622" type="curve"/>
      <point x="267" y="665" type="line"/>
      <point x="251" y="671"/>
      <point x="232" y="674"/>
      <point x="214" y="674" type="curve" smooth="yes"/>
      <point x="128" y="674"/>
      <point x="78" y="617"/>
      <point x="78" y="511" type="curve" smooth="yes"/>
      <point x="78" y="448" type="line"/>
    </contour>
    <contour>
      <point x="139" y="437" type="line"/>
      <point x="134" y="541" type="line"/>
      <point x="78" y="541" type="line"/>
      <point x="78" y="-208" type="line"/>
      <point x="139" y="-208" type="line"/>
    </contour>
    <contour>
      <point x="514" y="276" type="line"/>
      <point x="514" y="444"/>
      <point x="439" y="551"/>
      <point x="306" y="551" type="curve" smooth="yes"/>
      <point x="179" y="551"/>
      <point x="109" y="464"/>
      <point x="90" y="335" type="curve"/>
      <point x="90" y="193" type="line"/>
      <point x="106" y="75"/>
      <point x="177" y="-10"/>
      <point x="308" y="-10" type="curve" smooth="yes"/>
      <point x="439" y="-10"/>
      <point x="514" y="104"/>
      <point x="514" y="265" type="curve" smooth="yes"/>
    </contour>
    <contour>
      <point x="453" y="265" type="line"/>
      <point x="453" y="138"/>
      <point x="402" y="40"/>
      <point x="294" y="40" type="curve" smooth="yes"/>
      <point x="191" y="40"/>
      <point x="141" y="105"/>
      <point x="122" y="182" type="curve"/>
      <point x="122" y="343" type="line"/>
      <point x="136" y="413"/>
      <point x="179" y="500"/>
      <point x="293" y="500" type="curve" smooth="yes"/>
      <point x="402" y="500"/>
      <point x="453" y="402"/>
      <point x="453" y="276" type="curve" smooth="yes"/>
    </contour>
  </outline>
</glyph>
<glyph name="YR" format="1">
  <advance width="688"/>
  <unicode hex="01A6"/>
  <outline>
    <contour>
      <point x="91" y="694" type="line" name="hr00"/>
      <point x="154" y="694" type="line"/>
      <point x="154" y="773" type="line"/>
      <point x="91" y="773" type="line"/>
    </contour>
    <contour>
      <point x="91" y="728" type="line"/>
      <point x="91" y="0" type="line"/>
      <point x="154" y="0" type="line"/>
      <point x="154" y="677" type="line"/>
      <point x="328" y="677" type="line" smooth="yes"/>
      <point x="447" y="677"/>
      <point x="512" y="614"/>
      <point x="512" y="514" type="curve" smooth="yes"/>
      <point x="512" y="431"/>
      <point x="455" y="355"/>
      <point x="341" y="355" type="curve" smooth="yes"/>
      <point x="131" y="355" type="line"/>
      <point x="132" y="304" type="line"/>
      <point x="384" y="304" type="line"/>
      <point x="405" y="312" type="line"/>
      <point x="505" y="332"/>
      <point x="575" y="411"/>
      <point x="575" y="514" type="curve" smooth="yes"/>
      <point x="575" y="653"/>
      <point x="479" y="728"/>
      <point x="328" y="728" type="curve" smooth="yes"/>
    </contour>
    <contour>
      <point x="645" y="-177" type="line"/>
      <point x="712" y="-177" type="line"/>
      <point x="712" y="-171" type="line"/>
      <point x="419" y="326" type="line"/>
      <point x="351" y="326" type="line"/>
    </contour>
  </outline>
</glyph>
<glyph name="eshlooprev" format="1">
  <advance width="477"/>
  <unicode hex="01AA"/>
  <outline>
    <contour>
      <point x="290" y="579" type="line"/>
      <point x="290" y="-38" type="line" smooth="yes"/>
      <point x="290" y="-150"/>
      <point x="339" y="-212"/>
      <point x="432" y="-212" type="curve" smooth="yes"/>
      <point x="451" y="-212"/>
      <point x="471" y="-208"/>
      <point x="489" y="-202" type="curve"/>
      <point x="485" y="-154" type="line"/>
      <point x="475" y="-157"/>
      <point x="458" y="-160"/>
      <point x="444" y="-160" type="curve" smooth="yes"/>
      <point x="384" y="-160"/>
      <point x="351" y="-120"/>
      <point x="351" y="-38" type="curve" smooth="yes"/>
      <point x="351" y="618" type="line"/>
    </contour>
    <contour>
      <point x="16" y="618" type="curve" smooth="yes"/>
      <point x="16" y="518"/>
      <point x="91" y="451"/>
      <point x="183" y="451" type="curve" smooth="yes"/>
      <point x="276" y="451"/>
      <point x="351" y="526"/>
      <point x="351" y="618" type="curve" smooth="yes"/>
      <point x="351" y="715"/>
      <point x="276" y="786"/>
      <point x="183" y="786" type="curve" smooth="yes"/>
      <point x="93" y="786"/>
      <point x="16" y="717"/>
    </contour>
    <contour>
      <point x="183" y="506" type="curve" smooth="yes"/>
      <point x="123" y="506"/>
      <point x="74" y="546"/>
      <point x="74" y="618" type="curve" smooth="yes"/>
      <point x="74" y="691"/>
      <point x="123" y="732"/>
      <point x="183" y="732" type="curve" smooth="yes"/>
      <point x="241" y="732"/>
      <point x="293" y="691"/>
      <point x="293" y="619" type="curve" smooth="yes"/>
      <point x="293" y="546"/>
      <point x="241" y="506"/>
    </contour>
  </outline>
</glyph>
<glyph name="tpalatalhook" format="1">
  <advance width="330"/>
  <unicode hex="01AB"/>
  <outline>
    <contour>
      <point x="247" y="17" type="line"/>
      <point x="247" y="-38" type="line" smooth="yes"/>
      <point x="247" y="-116"/>
      <point x="222" y="-155"/>
      <point x="161" y="-155" type="curve" smooth="yes"/>
      <point x="148" y="-155"/>
      <point x="131" y="-152"/>
      <point x="122" y="-149" type="curve"/>
      <point x="118" y="-192" type="line"/>
      <point x="135" y="-198"/>
      <point x="153" y="-201"/>
      <point x="171" y="-201" type="curve" smooth="yes"/>
      <point x="257" y="-201"/>
      <point x="293" y="-143"/>
      <point x="293" y="-38" type="curve" smooth="yes"/>
      <point x="293" y="-2" type="line"/>
    </contour>
    <component base="t"/>
  </outline>
</glyph>
<glyph name="Trthook" format="1">
  <advance width="612"/>
  <unicode hex="01AE"/>
  <outline>
    <contour>
      <point x="586" y="728" type="line"/>
      <point x="26" y="728" type="line"/>
      <point x="26" y="677" type="line"/>
      <point x="586" y="677" type="line"/>
    </contour>
    <contour>
      <point x="483" y="-209" type="curve"/>
      <point x="477" y="-159" type="line"/>
      <point x="466" y="-162"/>
      <point x="443" y="-167"/>
      <point x="427" y="-167" type="curve" smooth="yes"/>
      <point x="369" y="-167"/>
      <point x="337" y="-123"/>
      <point x="337" y="-44" type="curve" smooth="yes"/>
      <point x="337" y="728" type="line"/>
      <point x="275" y="728" type="line"/>
      <point x="275" y="-44" type="line" smooth="yes"/>
      <point x="275" y="-157"/>
      <point x="332" y="-218"/>
      <point x="427" y="-218" type="curve" smooth="yes"/>
      <point x="448" y="-218"/>
      <point x="464" y="-215"/>
    </contour>
  </outline>
</glyph>
<glyph name="Upsilon2" format="1">
  <advance width="681"/>
  <unicode hex="01B1"/>
  <outline>
    <contour>
      <point x="134" y="363" type="line"/>
      <point x="134" y="550"/>
      <point x="213" y="639"/>
      <point x="299" y="669" type="curve"/>
      <point x="299" y="718" type="line"/>
      <point x="179" y="687"/>
      <point x="71" y="556"/>
      <point x="71" y="363" type="curve" smooth="yes"/>
      <point x="71" y="306" type="line" smooth="yes"/>
      <point x="71" y="117"/>
      <point x="180" y="-10"/>
      <point x="340" y="-10" type="curve" smooth="yes"/>
      <point x="499" y="-10"/>
      <point x="609" y="117"/>
      <point x="609" y="306" type="curve" smooth="yes"/>
      <point x="609" y="363" type="line" smooth="yes"/>
      <point x="609" y="556"/>
      <point x="500" y="687"/>
      <point x="381" y="718" type="curve"/>
      <point x="381" y="669" type="line"/>
      <point x="467" y="639"/>
      <point x="545" y="550"/>
      <point x="545" y="363" type="curve" smooth="yes"/>
      <point x="545" y="305" type="line" smooth="yes"/>
      <point x="545" y="147"/>
      <point x="466" y="41"/>
      <point x="340" y="41" type="curve" smooth="yes"/>
      <point x="214" y="41"/>
      <point x="134" y="147"/>
      <point x="134" y="305" type="curve" smooth="yes"/>
    </contour>
    <contour>
      <point x="299" y="728" type="line"/>
      <point x="69" y="728" type="line"/>
      <point x="69" y="677" type="line"/>
      <point x="299" y="677" type="line"/>
    </contour>
    <contour>
      <point x="613" y="728" type="line"/>
      <point x="381" y="728" type="line"/>
      <point x="381" y="677" type="line"/>
      <point x="613" y="677" type="line"/>
    </contour>
  </outline>
</glyph>
<glyph name="Yhook" format="1">
  <advance width="639"/>
  <unicode hex="01B3"/>
  <outline>
    <contour>
      <point x="294" y="308" type="line"/>
      <point x="290" y="266" type="line"/>
      <point x="333" y="266" type="line"/>
      <point x="502" y="560" type="line" smooth="yes"/>
      <point x="540" y="626"/>
      <point x="564" y="682"/>
      <point x="615" y="682" type="curve" smooth="yes"/>
      <point x="648" y="682"/>
      <point x="670" y="664"/>
      <point x="687" y="649" type="curve"/>
      <point x="714" y="690" type="line"/>
      <point x="688" y="716"/>
      <point x="649" y="738"/>
      <point x="608" y="738" type="curve" smooth="yes"/>
      <point x="530" y="738"/>
      <point x="492" y="666"/>
      <point x="448" y="585" type="curve" smooth="yes"/>
    </contour>
    <contour>
      <point x="87" y="728" type="line"/>
      <point x="12" y="728" type="line"/>
      <point x="280" y="266" type="line"/>
      <point x="321" y="266" type="line"/>
      <point x="318" y="307" type="line"/>
    </contour>
    <contour>
      <point x="337" y="312" type="line"/>
      <point x="274" y="312" type="line"/>
      <point x="274" y="0" type="line"/>
      <point x="337" y="0" type="line"/>
    </contour>
  </outline>
</glyph>
<glyph name="Zbar" format="1">
  <advance width="613"/>
  <unicode hex="01B5"/>
  <outline>
    <contour>
      <point x="523" y="399" type="line"/>
      <point x="78" y="399" type="line"/>
      <point x="78" y="349" type="line"/>
      <point x="523" y="349" type="line"/>
    </contour>
    <component base="Z"/>
    <contour>
      <point x="307" y="804" type="move" name="top"/>
    </contour>
    <contour>
      <point x="314" y="5" type="move" name="bottom"/>
    </contour>
    <contour>
      <point x="613" y="804" type="move" name="top0315"/>
    </contour>
  </outline>
</glyph>
<glyph name="zbar" format="1">
  <advance width="504"/>
  <unicode hex="01B6"/>
  <outline>
    <contour>
      <point x="420" y="301" type="line"/>
      <point x="82" y="301" type="line"/>
      <point x="82" y="251" type="line"/>
      <point x="420" y="251" type="line"/>
    </contour>
    <component base="z" xOffset="5"/>
    <contour>
      <point x="251" y="646" type="move" name="top"/>
    </contour>
    <contour>
      <point x="261" y="5" type="move" name="bottom"/>
    </contour>
    <contour>
      <point x="504" y="646" type="move" name="top0315"/>
    </contour>
  </outline>
</glyph>
<glyph name="uni01B9" format="1">
  <advance width="581"/>
  <unicode hex="01B9"/>
  <outline>
    <contour>
      <point x="78" y="541" type="line"/>
      <point x="77" y="496" type="line"/>
      <point x="320" y="202" type="line"/>
      <point x="367" y="202" type="line"/>
      <point x="367" y="234" type="line"/>
      <point x="153" y="491" type="line"/>
      <point x="512" y="491" type="line"/>
      <point x="512" y="541" type="line"/>
    </contour>
    <contour>
      <point x="311" y="231" type="line"/>
      <point x="157" y="231"/>
      <point x="67" y="153"/>
      <point x="67" y="11" type="curve" smooth="yes"/>
      <point x="67" y="-121"/>
      <point x="165" y="-197"/>
      <point x="298" y="-197" type="curve" smooth="yes"/>
      <point x="411" y="-197"/>
      <point x="529" y="-132"/>
      <point x="529" y="15" type="curve"/>
      <point x="467" y="15" type="line"/>
      <point x="467" y="-77"/>
      <point x="400" y="-147"/>
      <point x="298" y="-147" type="curve" smooth="yes"/>
      <point x="190" y="-147"/>
      <point x="128" y="-86"/>
      <point x="128" y="9" type="curve" smooth="yes"/>
      <point x="128" y="133"/>
      <point x="198" y="184"/>
      <point x="313" y="184" type="curve" smooth="yes"/>
      <point x="367" y="184" type="line"/>
      <point x="367" y="231" type="line"/>
    </contour>
  </outline>
</glyph>
<glyph name="uni01BA" format="1">
  <advance width="523"/>
  <unicode hex="01BA"/>
  <outline>
    <contour>
      <point x="55" y="541" type="line" name="hr00"/>
      <point x="55" y="491" type="line"/>
      <point x="369" y="491" type="line"/>
      <point x="175" y="326" type="line"/>
      <point x="175" y="287" type="line"/>
      <point x="220" y="287" type="line"/>
      <point x="459" y="501" type="line"/>
      <point x="459" y="541" type="line"/>
    </contour>
    <contour>
      <point x="103" y="-70" type="curve" smooth="yes"/>
      <point x="103" y="-25"/>
      <point x="129" y="18"/>
      <point x="246" y="43" type="curve" smooth="yes"/>
      <point x="366" y="69"/>
      <point x="436" y="105"/>
      <point x="436" y="196" type="curve" smooth="yes"/>
      <point x="436" y="277"/>
      <point x="363" y="337"/>
      <point x="245" y="337" type="curve" smooth="yes"/>
      <point x="205" y="337" type="line"/>
      <point x="205" y="287" type="line"/>
      <point x="245" y="287" type="line" smooth="yes"/>
      <point x="338" y="287"/>
      <point x="375" y="243"/>
      <point x="375" y="198" type="curve" smooth="yes"/>
      <point x="375" y="142"/>
      <point x="343" y="116"/>
      <point x="235" y="92" type="curve" smooth="yes"/>
      <point x="108" y="64"/>
      <point x="42" y="21"/>
      <point x="42" y="-67" type="curve" smooth="yes"/>
      <point x="42" y="-156"/>
      <point x="120" y="-218"/>
      <point x="242" y="-218" type="curve" smooth="yes"/>
      <point x="379" y="-218"/>
      <point x="454" y="-141"/>
      <point x="454" y="-57" type="curve"/>
      <point x="393" y="-57" type="line"/>
      <point x="388" y="-142"/>
      <point x="310" y="-168"/>
      <point x="242" y="-168" type="curve" smooth="yes"/>
      <point x="151" y="-168"/>
      <point x="103" y="-121"/>
    </contour>
  </outline>
</glyph>
<glyph name="wynn" format="1">
  <advance width="568"/>
  <unicode hex="01BF"/>
  <outline>
    <contour>
      <point x="139" y="437" type="line"/>
      <point x="134" y="541" type="line"/>
      <point x="78" y="541" type="line"/>
      <point x="78" y="-208" type="line"/>
      <point x="139" y="-208" type="line"/>
    </contour>
    <contour>
      <point x="122" y="343" type="line"/>
      <point x="136" y="413"/>
      <point x="179" y="500"/>
      <point x="293" y="500" type="curve" smooth="yes"/>
      <point x="402" y="500"/>
      <point x="453" y="411"/>
      <point x="453" y="293" type="curve" smooth="yes"/>
      <point x="453" y="282" type="line" smooth="yes"/>
      <point x="453" y="111"/>
      <point x="309" y="30"/>
      <point x="114" y="-6" type="curve"/>
      <point x="114" y="-56" type="line"/>
      <point x="354" y="-5"/>
      <point x="514" y="81"/>
      <point x="514" y="282" type="curve" smooth="yes"/>
      <point x="514" y="293" type="line" smooth="yes"/>
      <point x="514" y="452"/>
      <point x="439" y="551"/>
      <point x="306" y="551" type="curve" smooth="yes"/>
      <point x="179" y="551"/>
      <point x="109" y="464"/>
      <point x="90" y="335" type="curve"/>
    </contour>
  </outline>
</glyph>
<glyph name="uni01C5" format="1">
  <advance width="1088"/>
  <unicode hex="01C5"/>
  <outline>
    <contour>
      <point x="1058" y="50" type="line"/>
      <point x="655" y="50" type="line"/>
      <point x="655" y="0" type="line"/>
      <point x="1058" y="0" type="line"/>
    </contour>
    <contour>
      <point x="1037" y="498" type="line"/>
      <point x="1037" y="541" type="line"/>
      <point x="998" y="541" type="line"/>
      <point x="633" y="44" type="line"/>
      <point x="633" y="0" type="line"/>
      <point x="670" y="0" type="line"/>
    </contour>
    <contour>
      <point x="1009" y="541" type="line"/>
      <point x="643" y="541" type="line"/>
      <point x="643" y="491" type="line"/>
      <point x="1009" y="491" type="line"/>
    </contour>
    <contour>
      <point x="760" y="747" type="line"/>
      <point x="702" y="747" type="line"/>
      <point x="702" y="739" type="line"/>
      <point x="818" y="626" type="line"/>
      <point x="867" y="626" type="line"/>
      <point x="984" y="739" type="line"/>
      <point x="984" y="747" type="line"/>
      <point x="926" y="747" type="line"/>
      <point x="843" y="662" type="line"/>
    </contour>
    <component base="D"/>
  </outline>
</glyph>
<glyph name="Gbar" format="1">
  <advance width="700"/>
  <unicode hex="01E4"/>
  <outline>
    <contour>
      <point x="705" y="229" type="line"/>
      <point x="398" y="229" type="line"/>
      <point x="398" y="179" type="line"/>
      <point x="705" y="179" type="line"/>
    </contour>
    <component base="G"/>
    <contour>
      <point x="344" y="817" type="move" name="top"/>
    </contour>
    <contour>
      <point x="351" y="-2" type="move" name="bottom"/>
    </contour>
    <contour>
      <point x="700" y="817" type="move" name="top0315"/>
    </contour>
  </outline>
</glyph>
<glyph name="uni01EF" format="1">
  <advance width="590"/>
  <unicode hex="01EF"/>
  <outline>
    <contour>
      <point x="198" y="747" type="line"/>
      <point x="140" y="747" type="line"/>
      <point x="140" y="739" type="line"/>
      <point x="256" y="626" type="line"/>
      <point x="305" y="626" type="line"/>
      <point x="422" y="739" type="line"/>
      <point x="422" y="747" type="line"/>
      <point x="364" y="747" type="line"/>
      <point x="281" y="662" type="line"/>
    </contour>
    <contour>
      <point x="73" y="541" type="line"/>
      <point x="73" y="491" type="line"/>
      <point x="433" y="491" type="line"/>
      <point x="219" y="234" type="line"/>
      <point x="219" y="202" type="line"/>
      <point x="265" y="202" type="line"/>
      <point x="509" y="496" type="line"/>
      <point x="508" y="541" type="line"/>
    </contour>
    <contour>
      <point x="219" y="231" type="line"/>
      <point x="219" y="184" type="line"/>
      <point x="273" y="184" type="line" smooth="yes"/>
      <point x="387" y="184"/>
      <point x="458" y="133"/>
      <point x="458" y="9" type="curve" smooth="yes"/>
      <point x="458" y="-86"/>
      <point x="396" y="-147"/>
      <point x="287" y="-147" type="curve" smooth="yes"/>
      <point x="186" y="-147"/>
      <point x="119" y="-77"/>
      <point x="119" y="15" type="curve"/>
      <point x="57" y="15" type="line"/>
      <point x="57" y="-132"/>
      <point x="175" y="-197"/>
      <point x="287" y="-197" type="curve" smooth="yes"/>
      <point x="421" y="-197"/>
      <point x="519" y="-121"/>
      <point x="519" y="11" type="curve" smooth="yes"/>
      <point x="519" y="153"/>
      <point x="428" y="231"/>
      <point x="275" y="231" type="curve" smooth="yes"/>
    </contour>
  </outline>
</glyph>
<glyph name="uni021C" format="1">
  <advance width="615"/>
  <unicode hex="021C"/>
  <outline>
    <contour>
      <point x="106" y="184" type="line"/>
      <point x="393" y="279"/>
      <point x="549" y="359"/>
      <point x="549" y="532" type="curve" smooth="yes"/>
      <point x="549" y="669"/>
      <point x="451" y="738"/>
      <point x="297" y="738" type="curve" smooth="yes"/>
      <point x="166" y="738"/>
      <point x="54" y="661"/>
      <point x="54" y="537" type="curve"/>
      <point x="116" y="537" type="line"/>
      <point x="116" y="629"/>
      <point x="199" y="687"/>
      <point x="297" y="687" type="curve" smooth="yes"/>
      <point x="429" y="687"/>
      <point x="487" y="622"/>
      <point x="487" y="533" type="curve" smooth="yes"/>
      <point x="487" y="369"/>
      <point x="346" y="320"/>
      <point x="105" y="233" type="curve"/>
    </contour>
    <contour>
      <point x="390" y="326" type="line"/>
      <point x="450" y="316"/>
      <point x="498" y="274"/>
      <point x="498" y="168" type="curve" smooth="yes"/>
      <point x="498" y="-20"/>
      <point x="349" y="-100"/>
      <point x="106" y="-166" type="curve"/>
      <point x="106" y="-218" type="line"/>
      <point x="376" y="-146"/>
      <point x="561" y="-59"/>
      <point x="561" y="168" type="curve" smooth="yes"/>
      <point x="561" y="288"/>
      <point x="506" y="344"/>
      <point x="423" y="363" type="curve"/>
    </contour>
  </outline>
</glyph>
<glyph name="uni0222" format="1">
  <advance width="695"/>
  <unicode hex="0222"/>
  <outline>
    <contour>
      <point x="339" y="430" type="line"/>
      <point x="182" y="430"/>
      <point x="66" y="356"/>
      <point x="66" y="211" type="curve" smooth="yes"/>
      <point x="66" y="66"/>
      <point x="182" y="-10"/>
      <point x="339" y="-10" type="curve" smooth="yes"/>
      <point x="355" y="-10" type="line" smooth="yes"/>
      <point x="513" y="-10"/>
      <point x="629" y="66"/>
      <point x="629" y="212" type="curve" smooth="yes"/>
      <point x="629" y="356"/>
      <point x="513" y="430"/>
      <point x="355" y="430" type="curve" smooth="yes"/>
    </contour>
    <contour>
      <point x="355" y="383" type="line"/>
      <point x="473" y="383"/>
      <point x="566" y="330"/>
      <point x="566" y="212" type="curve" smooth="yes"/>
      <point x="566" y="94"/>
      <point x="473" y="43"/>
      <point x="355" y="43" type="curve" smooth="yes"/>
      <point x="339" y="43" type="line" smooth="yes"/>
      <point x="223" y="43"/>
      <point x="129" y="94"/>
      <point x="129" y="211" type="curve" smooth="yes"/>
      <point x="129" y="330"/>
      <point x="223" y="383"/>
      <point x="339" y="383" type="curve" smooth="yes"/>
    </contour>
    <contour>
      <point x="337" y="436" type="line"/>
      <point x="222" y="436"/>
      <point x="128" y="463"/>
      <point x="128" y="568" type="curve" smooth="yes"/>
      <point x="128" y="641"/>
      <point x="172" y="679"/>
      <point x="251" y="689" type="curve"/>
      <point x="251" y="738" type="line"/>
      <point x="147" y="733"/>
      <point x="66" y="679"/>
      <point x="66" y="568" type="curve" smooth="yes"/>
      <point x="66" y="436"/>
      <point x="185" y="389"/>
      <point x="337" y="389" type="curve" smooth="yes"/>
      <point x="358" y="389" type="line" smooth="yes"/>
      <point x="510" y="389"/>
      <point x="629" y="436"/>
      <point x="629" y="568" type="curve" smooth="yes"/>
      <point x="629" y="679"/>
      <point x="548" y="733"/>
      <point x="443" y="738" type="curve"/>
      <point x="443" y="689" type="line"/>
      <point x="523" y="679"/>
      <point x="566" y="641"/>
      <point x="566" y="568" type="curve" smooth="yes"/>
      <point x="566" y="463"/>
      <point x="472" y="436"/>
      <point x="358" y="436" type="curve" smooth="yes"/>
    </contour>
  </outline>
</glyph>
<glyph name="uni0223" format="1">
  <advance width="685"/>
  <unicode hex="0223"/>
  <outline>
    <contour>
      <point x="334" y="426" type="line"/>
      <point x="177" y="426"/>
      <point x="62" y="352"/>
      <point x="62" y="210" type="curve" smooth="yes"/>
      <point x="62" y="66"/>
      <point x="177" y="-10"/>
      <point x="334" y="-10" type="curve" smooth="yes"/>
      <point x="350" y="-10" type="line" smooth="yes"/>
      <point x="508" y="-10"/>
      <point x="623" y="66"/>
      <point x="623" y="211" type="curve" smooth="yes"/>
      <point x="623" y="352"/>
      <point x="508" y="426"/>
      <point x="350" y="426" type="curve" smooth="yes"/>
    </contour>
    <contour>
      <point x="350" y="381" type="line"/>
      <point x="468" y="381"/>
      <point x="562" y="326"/>
      <point x="562" y="211" type="curve" smooth="yes"/>
      <point x="562" y="94"/>
      <point x="468" y="40"/>
      <point x="350" y="40" type="curve" smooth="yes"/>
      <point x="334" y="40" type="line" smooth="yes"/>
      <point x="218" y="40"/>
      <point x="123" y="94"/>
      <point x="123" y="210" type="curve" smooth="yes"/>
      <point x="123" y="326"/>
      <point x="218" y="381"/>
      <point x="334" y="381" type="curve" smooth="yes"/>
    </contour>
    <contour>
      <point x="353" y="431" type="curve" smooth="yes"/>
      <point x="332" y="431" type="line" smooth="yes"/>
      <point x="218" y="431"/>
      <point x="123" y="468"/>
      <point x="123" y="585" type="curve"/>
      <point x="123" y="665"/>
      <point x="167" y="717"/>
      <point x="254" y="731" type="curve"/>
      <point x="254" y="779" type="line"/>
      <point x="137" y="774"/>
      <point x="62" y="699"/>
      <point x="62" y="585" type="curve" smooth="yes"/>
      <point x="62" y="443"/>
      <point x="180" y="386"/>
      <point x="332" y="386" type="curve" smooth="yes"/>
      <point x="353" y="386" type="line" smooth="yes"/>
      <point x="505" y="386"/>
      <point x="623" y="443"/>
      <point x="623" y="586" type="curve"/>
      <point x="623" y="700"/>
      <point x="549" y="773"/>
      <point x="439" y="779" type="curve"/>
      <point x="439" y="731" type="line"/>
      <point x="523" y="717"/>
      <point x="562" y="663"/>
      <point x="562" y="586" type="curve" smooth="yes"/>
      <point x="562" y="468"/>
      <point x="468" y="431"/>
    </contour>
  </outline>
</glyph>
<glyph name="uni0234" format="1">
  <advance width="393"/>
  <unicode hex="0234"/>
  <outline>
    <contour>
      <point x="100" y="114" type="curve"/>
      <point x="100" y="114"/>
      <point x="100" y="-65"/>
      <point x="100" y="-65" type="curve"/>
      <point x="100" y="-158"/>
      <point x="143" y="-218"/>
      <point x="246" y="-218" type="curve" smooth="yes"/>
      <point x="329" y="-218"/>
      <point x="378" y="-163"/>
      <point x="378" y="-95" type="curve" smooth="yes"/>
      <point x="378" y="-16"/>
      <point x="323" y="26"/>
      <point x="254" y="26" type="curve" smooth="yes"/>
      <point x="195" y="26"/>
      <point x="148" y="-5"/>
      <point x="104" y="-47" type="curve"/>
      <point x="10" y="-164" type="line"/>
      <point x="10" y="-164"/>
      <point x="50" y="-199"/>
      <point x="50" y="-199" type="curve"/>
      <point x="113" y="-115" type="line"/>
      <point x="158" y="-58"/>
      <point x="197" y="-24"/>
      <point x="245" y="-24" type="curve" smooth="yes"/>
      <point x="290" y="-24"/>
      <point x="317" y="-53"/>
      <point x="317" y="-95" type="curve" smooth="yes"/>
      <point x="317" y="-136"/>
      <point x="292" y="-168"/>
      <point x="247" y="-168" type="curve" smooth="yes"/>
      <point x="183" y="-168"/>
      <point x="161" y="-132"/>
      <point x="161" y="-76" type="curve" smooth="yes"/>
      <point x="161" y="-36"/>
      <point x="161" y="114"/>
      <point x="161" y="114" type="curve"/>
      <point x="161" y="114"/>
      <point x="100" y="114"/>
    </contour>
    <component base="l" xOffset="30"/>
  </outline>
</glyph>
<glyph name="uni0237" format="1">
  <advance width="235"/>
  <unicode hex="0237"/>
  <outline>
    <contour>
      <point x="90" y="541" type="line"/>
      <point x="90" y="-44" type="line"/>
      <point x="90" y="-123"/>
      <point x="57" y="-168"/>
      <point x="-2" y="-168" type="curve" smooth="yes"/>
      <point x="-16" y="-168"/>
      <point x="-41" y="-164"/>
      <point x="-51" y="-160" type="curve"/>
      <point x="-58" y="-209" type="line"/>
      <point x="-39" y="-215"/>
      <point x="-22" y="-218"/>
      <point x="-2" y="-218" type="curve" smooth="yes"/>
      <point x="94" y="-218"/>
      <point x="151" y="-157"/>
      <point x="151" y="-44" type="curve"/>
      <point x="151" y="541" type="line"/>
    </contour>
    <contour>
      <point x="119" y="625" type="move" name="top"/>
    </contour>
    <contour>
      <point x="151" y="0" type="move" name="_right"/>
    </contour>
    <contour>
      <point x="235" y="625" type="move" name="top0315"/>
    </contour>
  </outline>
</glyph>
<glyph name="uni0238" format="1">
  <advance width="921"/>
  <unicode hex="0238"/>
  <outline>
    <contour>
      <point x="867" y="276" type="line"/>
      <point x="867" y="444"/>
      <point x="791" y="551"/>
      <point x="659" y="551" type="curve" smooth="yes"/>
      <point x="532" y="551"/>
      <point x="464" y="464"/>
      <point x="445" y="335" type="curve"/>
      <point x="445" y="197" type="line"/>
      <point x="461" y="77"/>
      <point x="530" y="-10"/>
      <point x="660" y="-10" type="curve" smooth="yes"/>
      <point x="791" y="-10"/>
      <point x="867" y="104"/>
      <point x="867" y="265" type="curve" smooth="yes"/>
    </contour>
    <contour>
      <point x="805" y="265" type="line"/>
      <point x="805" y="138"/>
      <point x="757" y="42"/>
      <point x="648" y="42" type="curve" smooth="yes"/>
      <point x="546" y="42"/>
      <point x="494" y="110"/>
      <point x="477" y="186" type="curve"/>
      <point x="477" y="343" type="line"/>
      <point x="492" y="413"/>
      <point x="534" y="500"/>
      <point x="647" y="500" type="curve" smooth="yes"/>
      <point x="759" y="500"/>
      <point x="805" y="402"/>
      <point x="805" y="276" type="curve" smooth="yes"/>
    </contour>
    <contour>
      <point x="430" y="105" type="line"/>
      <point x="434" y="0" type="line"/>
      <point x="491" y="0" type="line"/>
      <point x="491" y="768" type="line"/>
      <point x="430" y="768" type="line"/>
    </contour>
    <contour>
      <point x="54" y="265" type="line"/>
      <point x="54" y="104"/>
      <point x="135" y="-10"/>
      <point x="262" y="-10" type="curve" smooth="yes"/>
      <point x="392" y="-10"/>
      <point x="461" y="77"/>
      <point x="477" y="197" type="curve"/>
      <point x="477" y="335" type="line"/>
      <point x="457" y="464"/>
      <point x="391" y="551"/>
      <point x="263" y="551" type="curve" smooth="yes"/>
      <point x="135" y="551"/>
      <point x="54" y="444"/>
      <point x="54" y="276" type="curve" smooth="yes"/>
    </contour>
    <contour>
      <point x="116" y="276" type="line"/>
      <point x="116" y="402"/>
      <point x="165" y="500"/>
      <point x="275" y="500" type="curve" smooth="yes"/>
      <point x="389" y="500"/>
      <point x="431" y="413"/>
      <point x="446" y="343" type="curve"/>
      <point x="446" y="186" type="line"/>
      <point x="427" y="107"/>
      <point x="376" y="42"/>
      <point x="274" y="42" type="curve" smooth="yes"/>
      <point x="165" y="42"/>
      <point x="116" y="138"/>
      <point x="116" y="265" type="curve" smooth="yes"/>
    </contour>
  </outline>
</glyph>
<glyph name="uni023D" format="1">
  <advance width="585"/>
  <unicode hex="023D"/>
  <outline>
    <component base="L"/>
    <component base="crossbar" xOffset="-91" yOffset="41"/>
    <contour>
      <point x="165" y="786" type="move" name="top"/>
    </contour>
    <contour>
      <point x="311" y="5" type="move" name="bottom"/>
    </contour>
    <contour>
      <point x="585" y="786" type="move" name="top0315"/>
    </contour>
  </outline>
</glyph>
<glyph name="uni023F" format="1">
  <advance width="520"/>
  <unicode hex="023F"/>
  <outline>
    <contour>
      <point x="401" y="138" type="curve" smooth="yes"/>
      <point x="401" y="87"/>
      <point x="353" y="40"/>
      <point x="263" y="40" type="curve" smooth="yes"/>
      <point x="195" y="40"/>
      <point x="127" y="66"/>
      <point x="95" y="147" type="curve"/>
      <point x="47" y="126" type="line"/>
      <point x="150" y="-68" type="line" smooth="yes"/>
      <point x="202" y="-172"/>
      <point x="248" y="-218"/>
      <point x="306" y="-218" type="curve" smooth="yes"/>
      <point x="351" y="-218"/>
      <point x="388" y="-190"/>
      <point x="412" y="-164" type="curve"/>
      <point x="386" y="-128" type="line"/>
      <point x="369" y="-146"/>
      <point x="341" y="-169"/>
      <point x="308" y="-169" type="curve" smooth="yes"/>
      <point x="260" y="-169"/>
      <point x="227" y="-114"/>
      <point x="170" y="7" type="curve"/>
      <point x="196" y="-4"/>
      <point x="224" y="-10"/>
      <point x="263" y="-10" type="curve" smooth="yes"/>
      <point x="384" y="-10"/>
      <point x="462" y="52"/>
      <point x="462" y="141" type="curve" smooth="yes"/>
      <point x="462" y="230"/>
      <point x="396" y="272"/>
      <point x="276" y="300" type="curve" smooth="yes"/>
      <point x="184" y="321"/>
      <point x="129" y="342"/>
      <point x="129" y="406" type="curve" smooth="yes"/>
      <point x="129" y="452"/>
      <point x="167" y="501"/>
      <point x="259" y="501" type="curve" smooth="yes"/>
      <point x="349" y="501"/>
      <point x="398" y="446"/>
      <point x="398" y="390" type="curve"/>
      <point x="459" y="390" type="line"/>
      <point x="459" y="482"/>
      <point x="385" y="551"/>
      <point x="259" y="551" type="curve" smooth="yes"/>
      <point x="142" y="551"/>
      <point x="68" y="485"/>
      <point x="68" y="405" type="curve" smooth="yes"/>
      <point x="68" y="315"/>
      <point x="138" y="279"/>
      <point x="259" y="252" type="curve" smooth="yes"/>
      <point x="373" y="227"/>
      <point x="401" y="185"/>
    </contour>
  </outline>
</glyph>
<glyph name="uni0240" format="1">
  <advance width="505"/>
  <unicode hex="0240"/>
  <outline>
    <contour>
      <point x="66" y="50" type="line"/>
      <point x="66" y="0" type="line"/>
      <point x="164" y="0" type="line" smooth="yes"/>
      <point x="310" y="0"/>
      <point x="291" y="-218"/>
      <point x="426" y="-218" type="curve" smooth="yes"/>
      <point x="471" y="-218"/>
      <point x="505" y="-193"/>
      <point x="529" y="-169" type="curve"/>
      <point x="504" y="-132" type="line"/>
      <point x="484" y="-153"/>
      <point x="459" y="-169"/>
      <point x="429" y="-169" type="curve" smooth="yes"/>
      <point x="342" y="-169"/>
      <point x="342" y="50"/>
      <point x="182" y="50" type="curve" smooth="yes"/>
    </contour>
    <contour>
      <point x="448" y="498" type="line"/>
      <point x="448" y="541" type="line"/>
      <point x="409" y="541" type="line"/>
      <point x="44" y="44" type="line"/>
      <point x="44" y="0" type="line"/>
      <point x="82" y="0" type="line"/>
    </contour>
    <contour>
      <point x="421" y="541" type="line"/>
      <point x="54" y="541" type="line"/>
      <point x="54" y="491" type="line"/>
      <point x="421" y="491" type="line"/>
    </contour>
  </outline>
</glyph>
<glyph name="uni0247" format="1">
  <advance width="530"/>
  <unicode hex="0247"/>
  <outline>
    <contour>
      <point x="466" y="728" type="line"/>
      <point x="418" y="728" type="line"/>
      <point x="48" y="-208" type="line"/>
      <point x="96" y="-208" type="line"/>
    </contour>
    <contour>
      <point x="288" y="-10" type="curve" smooth="yes"/>
      <point x="385" y="-10"/>
      <point x="445" y="33"/>
      <point x="480" y="86" type="curve"/>
      <point x="442" y="114" type="line"/>
      <point x="403" y="62"/>
      <point x="354" y="40"/>
      <point x="291" y="40" type="curve" smooth="yes"/>
      <point x="181" y="40"/>
      <point x="106" y="136"/>
      <point x="106" y="256" type="curve" smooth="yes"/>
      <point x="106" y="277" type="line" smooth="yes"/>
      <point x="106" y="409"/>
      <point x="176" y="501"/>
      <point x="277" y="501" type="curve" smooth="yes"/>
      <point x="379" y="501"/>
      <point x="431" y="416"/>
      <point x="431" y="325" type="curve" smooth="yes"/>
      <point x="431" y="318" type="line"/>
      <point x="82" y="318" type="line"/>
      <point x="82" y="268" type="line"/>
      <point x="492" y="268" type="line"/>
      <point x="492" y="304" type="line" smooth="yes"/>
      <point x="492" y="448"/>
      <point x="415" y="551"/>
      <point x="277" y="551" type="curve" smooth="yes"/>
      <point x="154" y="551"/>
      <point x="45" y="444"/>
      <point x="45" y="277" type="curve" smooth="yes"/>
      <point x="45" y="256" type="line" smooth="yes"/>
      <point x="45" y="101"/>
      <point x="147" y="-10"/>
    </contour>
  </outline>
</glyph>
<glyph name="uni024C" format="1">
  <advance width="664"/>
  <unicode hex="024C"/>
  <outline>
    <contour>
      <point x="114" y="728" type="line"/>
      <point x="114" y="0" type="line"/>
      <point x="176" y="0" type="line"/>
      <point x="176" y="677" type="line"/>
      <point x="350" y="677" type="line" smooth="yes"/>
      <point x="470" y="677"/>
      <point x="535" y="614"/>
      <point x="535" y="514" type="curve" smooth="yes"/>
      <point x="535" y="431"/>
      <point x="477" y="355"/>
      <point x="363" y="355" type="curve" smooth="yes"/>
      <point x="15" y="355" type="line"/>
      <point x="15" y="304" type="line"/>
      <point x="406" y="304" type="line"/>
      <point x="428" y="312" type="line"/>
      <point x="528" y="332"/>
      <point x="598" y="411"/>
      <point x="598" y="514" type="curve" smooth="yes"/>
      <point x="598" y="653"/>
      <point x="502" y="728"/>
      <point x="350" y="728" type="curve" smooth="yes"/>
    </contour>
    <contour>
      <point x="562" y="0" type="line"/>
      <point x="629" y="0" type="line"/>
      <point x="629" y="7" type="line"/>
      <point x="441" y="326" type="line"/>
      <point x="374" y="326" type="line"/>
    </contour>
    <contour>
      <point x="304" y="804" type="move" name="top"/>
    </contour>
    <contour>
      <point x="304" y="5" type="move" name="bottom"/>
    </contour>
    <contour>
      <point x="664" y="804" type="move" name="top0315"/>
    </contour>
  </outline>
</glyph>
<glyph name="uni024D" format="1">
  <advance width="383"/>
  <unicode hex="024D"/>
  <outline>
    <component base="r"/>
    <component base="crossbar" xOffset="-91" yOffset="-154"/>
    <contour>
      <point x="205" y="645" type="move" name="top"/>
    </contour>
    <contour>
      <point x="146" y="8" type="move" name="bottom"/>
    </contour>
    <contour>
      <point x="383" y="645" type="move" name="top0315"/>
    </contour>
  </outline>
</glyph>
<glyph name="uni024E" format="1">
  <advance width="673"/>
  <unicode hex="024E"/>
  <outline>
    <contour>
      <point x="655" y="571" type="line"/>
      <point x="18" y="571" type="line"/>
      <point x="18" y="530" type="line"/>
      <point x="655" y="530" type="line"/>
    </contour>
    <component base="Y" xOffset="61"/>
    <contour>
      <point x="337" y="801" type="move" name="top"/>
    </contour>
    <contour>
      <point x="337" y="3" type="move" name="bottom"/>
    </contour>
    <contour>
      <point x="673" y="801" type="move" name="top0315"/>
    </contour>
  </outline>
</glyph>
<glyph name="uni024F" format="1">
  <advance width="524"/>
  <unicode hex="024F"/>
  <outline>
    <contour>
      <point x="507" y="348" type="line"/>
      <point x="18" y="348" type="line"/>
      <point x="18" y="307" type="line"/>
      <point x="507" y="307" type="line"/>
    </contour>
    <component base="y" xOffset="37"/>
    <contour>
      <point x="257" y="646" type="move" name="top"/>
    </contour>
    <contour>
      <point x="357" y="-79" type="move" name="bottom"/>
    </contour>
    <contour>
      <point x="524" y="646" type="move" name="top0315"/>
    </contour>
  </outline>
</glyph>
<glyph name="aturn" format="1">
  <advance width="549"/>
  <unicode hex="0250"/>
  <outline>
    <contour>
      <point x="142" y="444" type="line"/>
      <point x="142" y="477"/>
      <point x="138" y="518"/>
      <point x="130" y="541" type="curve"/>
      <point x="65" y="541" type="line"/>
      <point x="65" y="535" type="line"/>
      <point x="76" y="510"/>
      <point x="81" y="466"/>
      <point x="81" y="428" type="curve" smooth="yes"/>
      <point x="81" y="166" type="line"/>
      <point x="81" y="49"/>
      <point x="163" y="-10"/>
      <point x="278" y="-10" type="curve" smooth="yes"/>
      <point x="402" y="-10"/>
      <point x="486" y="68"/>
      <point x="486" y="149" type="curve"/>
      <point x="425" y="150" type="line"/>
      <point x="425" y="89"/>
      <point x="365" y="40"/>
      <point x="281" y="40" type="curve" smooth="yes"/>
      <point x="192" y="40"/>
      <point x="142" y="87"/>
      <point x="142" y="165" type="curve"/>
    </contour>
    <contour>
      <point x="128" y="227" type="line"/>
      <point x="252" y="227" type="line"/>
      <point x="405" y="227"/>
      <point x="499" y="292"/>
      <point x="499" y="398" type="curve" smooth="yes"/>
      <point x="499" y="486"/>
      <point x="430" y="551"/>
      <point x="324" y="551" type="curve" smooth="yes"/>
      <point x="198" y="551"/>
      <point x="125" y="465"/>
      <point x="107" y="400" type="curve"/>
      <point x="133" y="366" type="line"/>
      <point x="151" y="438"/>
      <point x="218" y="499"/>
      <point x="317" y="499" type="curve" smooth="yes"/>
      <point x="392" y="499"/>
      <point x="438" y="452"/>
      <point x="438" y="393" type="curve" smooth="yes"/>
      <point x="438" y="318"/>
      <point x="366" y="272"/>
      <point x="244" y="272" type="curve"/>
      <point x="127" y="272" type="line"/>
    </contour>
    <contour>
      <point x="549" y="645" type="move" name="top0315"/>
    </contour>
    <contour>
      <point x="275" y="0" type="move" name="bottom"/>
    </contour>
    <contour>
      <point x="275" y="645" type="move" name="top"/>
    </contour>
    <contour>
      <point x="452" y="317" type="move" name="rhotichook"/>
    </contour>
  </outline>
</glyph>
<glyph name="ascriptturn" format="1">
  <advance width="591"/>
  <unicode hex="0252"/>
  <outline>
    <contour>
      <point x="542" y="285" type="line"/>
      <point x="542" y="444"/>
      <point x="466" y="551"/>
      <point x="335" y="551" type="curve" smooth="yes"/>
      <point x="208" y="551"/>
      <point x="142" y="456"/>
      <point x="126" y="327" type="curve"/>
      <point x="126" y="223" type="line"/>
      <point x="146" y="85"/>
      <point x="210" y="-10"/>
      <point x="334" y="-10" type="curve" smooth="yes"/>
      <point x="466" y="-10"/>
      <point x="542" y="104"/>
      <point x="542" y="275" type="curve" smooth="yes"/>
    </contour>
    <contour>
      <point x="480" y="275" type="line"/>
      <point x="480" y="144"/>
      <point x="432" y="40"/>
      <point x="322" y="40" type="curve" smooth="yes"/>
      <point x="213" y="40"/>
      <point x="167" y="149"/>
      <point x="151" y="237" type="curve"/>
      <point x="151" y="321" type="line"/>
      <point x="171" y="417"/>
      <point x="218" y="501"/>
      <point x="323" y="501" type="curve" smooth="yes"/>
      <point x="432" y="501"/>
      <point x="480" y="409"/>
      <point x="480" y="285" type="curve" smooth="yes"/>
    </contour>
    <contour>
      <point x="160" y="0" type="line"/>
      <point x="169" y="115" type="line"/>
      <point x="169" y="404" type="line"/>
      <point x="169" y="510"/>
      <point x="135" y="551"/>
      <point x="73" y="551" type="curve" smooth="yes"/>
      <point x="57" y="551"/>
      <point x="41" y="550"/>
      <point x="24" y="539" type="curve"/>
      <point x="33" y="494" type="line"/>
      <point x="40" y="496"/>
      <point x="48" y="498"/>
      <point x="57" y="498" type="curve" smooth="yes"/>
      <point x="86" y="498"/>
      <point x="108" y="478"/>
      <point x="108" y="404" type="curve"/>
      <point x="108" y="0" type="line"/>
    </contour>
    <contour>
      <point x="591" y="645" type="move" name="top0315"/>
    </contour>
    <contour>
      <point x="289" y="0" type="move" name="bottom"/>
    </contour>
    <contour>
      <point x="289" y="645" type="move" name="top"/>
    </contour>
    <contour>
      <point x="502" y="327" type="move" name="rhotichook"/>
    </contour>
  </outline>
</glyph>
<glyph name="bhook" format="1">
  <advance width="569"/>
  <unicode hex="0253"/>
  <outline>
    <contour>
      <point x="139" y="574" type="line"/>
      <point x="139" y="623" type="line" smooth="yes"/>
      <point x="139" y="701"/>
      <point x="164" y="740"/>
      <point x="225" y="740" type="curve" smooth="yes"/>
      <point x="238" y="740"/>
      <point x="254" y="737"/>
      <point x="264" y="733" type="curve"/>
      <point x="267" y="777" type="line"/>
      <point x="251" y="783"/>
      <point x="232" y="786"/>
      <point x="214" y="786" type="curve" smooth="yes"/>
      <point x="128" y="786"/>
      <point x="78" y="728"/>
      <point x="78" y="623" type="curve" smooth="yes"/>
      <point x="78" y="574" type="line"/>
    </contour>
    <contour>
      <point x="78" y="592" type="line"/>
      <point x="78" y="0" type="line"/>
      <point x="135" y="0" type="line"/>
      <point x="139" y="105" type="line"/>
      <point x="139" y="592" type="line"/>
    </contour>
    <contour>
      <point x="515" y="276" type="line"/>
      <point x="515" y="444"/>
      <point x="439" y="551"/>
      <point x="307" y="551" type="curve" smooth="yes"/>
      <point x="180" y="551"/>
      <point x="112" y="464"/>
      <point x="93" y="335" type="curve"/>
      <point x="93" y="197" type="line"/>
      <point x="109" y="77"/>
      <point x="178" y="-10"/>
      <point x="308" y="-10" type="curve" smooth="yes"/>
      <point x="439" y="-10"/>
      <point x="515" y="104"/>
      <point x="515" y="265" type="curve" smooth="yes"/>
    </contour>
    <contour>
      <point x="453" y="265" type="line"/>
      <point x="453" y="138"/>
      <point x="405" y="42"/>
      <point x="296" y="42" type="curve" smooth="yes"/>
      <point x="194" y="42"/>
      <point x="142" y="110"/>
      <point x="125" y="186" type="curve"/>
      <point x="125" y="343" type="line"/>
      <point x="139" y="413"/>
      <point x="181" y="500"/>
      <point x="295" y="500" type="curve" smooth="yes"/>
      <point x="407" y="500"/>
      <point x="453" y="402"/>
      <point x="453" y="276" type="curve" smooth="yes"/>
    </contour>
    <contour>
      <point x="305" y="850" type="move" name="top"/>
    </contour>
    <contour>
      <point x="296" y="0" type="move" name="bottom"/>
    </contour>
    <contour>
      <point x="569" y="850" type="move" name="top0315"/>
    </contour>
  </outline>
</glyph>
<glyph name="ccurl" format="1">
  <advance width="531"/>
  <unicode hex="0255"/>
  <outline>
    <contour>
      <point x="292" y="40" type="curve" smooth="yes"/>
      <point x="158" y="40"/>
      <point x="112" y="144"/>
      <point x="112" y="260" type="curve" smooth="yes"/>
      <point x="112" y="281" type="line" smooth="yes"/>
      <point x="112" y="397"/>
      <point x="158" y="501"/>
      <point x="281" y="501" type="curve"/>
      <point x="363" y="501"/>
      <point x="427" y="447"/>
      <point x="432" y="359" type="curve"/>
      <point x="490" y="359" type="line"/>
      <point x="485" y="477"/>
      <point x="397" y="551"/>
      <point x="281" y="551" type="curve" smooth="yes"/>
      <point x="130" y="551"/>
      <point x="51" y="433"/>
      <point x="51" y="281" type="curve" smooth="yes"/>
      <point x="51" y="260" type="line" smooth="yes"/>
      <point x="51" y="108"/>
      <point x="129" y="-10"/>
      <point x="293" y="-10" type="curve" smooth="yes"/>
      <point x="392" y="-10"/>
      <point x="490" y="43"/>
      <point x="490" y="141" type="curve" smooth="yes"/>
      <point x="490" y="215"/>
      <point x="436" y="255"/>
      <point x="356" y="255" type="curve" smooth="yes"/>
      <point x="255" y="255"/>
      <point x="177" y="177"/>
      <point x="81" y="45" type="curve"/>
      <point x="25" y="-29" type="line"/>
      <point x="70" y="-63" type="line"/>
      <point x="117" y="4" type="line"/>
      <point x="204" y="128"/>
      <point x="276" y="204"/>
      <point x="354" y="204" type="curve" smooth="yes"/>
      <point x="396" y="204"/>
      <point x="432" y="184"/>
      <point x="432" y="136" type="curve" smooth="yes"/>
      <point x="432" y="69"/>
      <point x="357" y="40"/>
    </contour>
    <contour>
      <point x="281" y="645" type="move" name="top"/>
    </contour>
    <contour>
      <point x="281" y="0" type="move" name="bottom"/>
    </contour>
    <contour>
      <point x="531" y="645" type="move" name="top0315"/>
    </contour>
  </outline>
</glyph>
<glyph name="erev" format="1">
  <advance width="530"/>
  <unicode hex="0258"/>
  <outline>
    <contour>
      <point x="242" y="-10" type="curve" smooth="yes"/>
      <point x="384" y="-10"/>
      <point x="485" y="101"/>
      <point x="485" y="256" type="curve" smooth="yes"/>
      <point x="485" y="277" type="line" smooth="yes"/>
      <point x="485" y="444"/>
      <point x="377" y="551"/>
      <point x="253" y="551" type="curve" smooth="yes"/>
      <point x="115" y="551"/>
      <point x="39" y="448"/>
      <point x="39" y="304" type="curve" smooth="yes"/>
      <point x="39" y="268" type="line"/>
      <point x="448" y="268" type="line"/>
      <point x="448" y="318" type="line"/>
      <point x="100" y="318" type="line"/>
      <point x="100" y="325" type="line"/>
      <point x="102" y="416"/>
      <point x="152" y="501"/>
      <point x="253" y="501" type="curve" smooth="yes"/>
      <point x="355" y="501"/>
      <point x="424" y="409"/>
      <point x="424" y="277" type="curve" smooth="yes"/>
      <point x="424" y="256" type="line" smooth="yes"/>
      <point x="424" y="136"/>
      <point x="349" y="40"/>
      <point x="240" y="40" type="curve" smooth="yes"/>
      <point x="176" y="40"/>
      <point x="128" y="62"/>
      <point x="89" y="114" type="curve"/>
      <point x="50" y="86" type="line"/>
      <point x="86" y="33"/>
      <point x="145" y="-10"/>
    </contour>
    <contour>
      <point x="530" y="645" type="move" name="top0315"/>
    </contour>
    <contour>
      <point x="242" y="0" type="move" name="bottom"/>
    </contour>
    <contour>
      <point x="253" y="645" type="move" name="top"/>
    </contour>
    <contour>
      <point x="446" y="327" type="move" name="rhotichook"/>
    </contour>
  </outline>
</glyph>
<glyph name="schwahook" format="1">
  <advance width="683"/>
  <unicode hex="025A"/>
  <outline>
    <contour>
      <point x="242" y="551" type="curve" smooth="yes"/>
      <point x="145" y="551"/>
      <point x="86" y="508"/>
      <point x="50" y="455" type="curve"/>
      <point x="89" y="427" type="line"/>
      <point x="128" y="479"/>
      <point x="176" y="502"/>
      <point x="240" y="502" type="curve" smooth="yes"/>
      <point x="349" y="502"/>
      <point x="424" y="405"/>
      <point x="424" y="285" type="curve" smooth="yes"/>
      <point x="424" y="264" type="line" smooth="yes"/>
      <point x="424" y="132"/>
      <point x="355" y="40"/>
      <point x="253" y="40" type="curve" smooth="yes"/>
      <point x="152" y="40"/>
      <point x="100" y="125"/>
      <point x="100" y="217" type="curve" smooth="yes"/>
      <point x="100" y="230" type="line"/>
      <point x="436" y="307" type="line"/>
      <point x="436" y="357" type="line"/>
      <point x="39" y="269" type="line"/>
      <point x="39" y="237" type="line" smooth="yes"/>
      <point x="39" y="93"/>
      <point x="115" y="-10"/>
      <point x="253" y="-10" type="curve" smooth="yes"/>
      <point x="377" y="-10"/>
      <point x="485" y="97"/>
      <point x="485" y="264" type="curve" smooth="yes"/>
      <point x="485" y="285" type="line" smooth="yes"/>
      <point x="485" y="440"/>
      <point x="384" y="551"/>
    </contour>
    <contour>
      <point x="455" y="311" type="line"/>
      <point x="513" y="323" type="line"/>
      <point x="520" y="221"/>
      <point x="549" y="185"/>
      <point x="614" y="185" type="curve" smooth="yes"/>
      <point x="632" y="185"/>
      <point x="654" y="190"/>
      <point x="674" y="199" type="curve"/>
      <point x="665" y="240" type="line"/>
      <point x="654" y="237"/>
      <point x="640" y="233"/>
      <point x="625" y="233" type="curve" smooth="yes"/>
      <point x="582" y="233"/>
      <point x="561" y="265"/>
      <point x="557" y="382" type="curve"/>
      <point x="455" y="361" type="line"/>
    </contour>
    <contour>
      <point x="282" y="645" type="move" name="top"/>
    </contour>
    <contour>
      <point x="285" y="0" type="move" name="bottom"/>
    </contour>
    <contour>
      <point x="683" y="645" type="move" name="top0315"/>
    </contour>
  </outline>
</glyph>
<glyph name="epsilon1revhook" format="1">
  <advance width="705"/>
  <unicode hex="025D"/>
  <outline>
    <contour>
      <point x="477" y="388" type="line"/>
      <point x="535" y="400" type="line"/>
      <point x="542" y="298"/>
      <point x="571" y="263"/>
      <point x="635" y="263" type="curve" smooth="yes"/>
      <point x="654" y="263"/>
      <point x="676" y="268"/>
      <point x="696" y="277" type="curve"/>
      <point x="687" y="318" type="line"/>
      <point x="674" y="314"/>
      <point x="662" y="311"/>
      <point x="646" y="311" type="curve" smooth="yes"/>
      <point x="604" y="311"/>
      <point x="583" y="343"/>
      <point x="579" y="460" type="curve"/>
      <point x="477" y="439" type="line"/>
    </contour>
    <contour>
      <point x="191" y="290" type="line"/>
      <point x="191" y="252" type="line"/>
      <point x="284" y="252" type="line" smooth="yes"/>
      <point x="386" y="252"/>
      <point x="442" y="221"/>
      <point x="442" y="148" type="curve" smooth="yes"/>
      <point x="442" y="85"/>
      <point x="384" y="40"/>
      <point x="281" y="40" type="curve" smooth="yes"/>
      <point x="183" y="40"/>
      <point x="117" y="92"/>
      <point x="117" y="155" type="curve"/>
      <point x="56" y="155" type="line"/>
      <point x="56" y="42"/>
      <point x="171" y="-10"/>
      <point x="281" y="-10" type="curve" smooth="yes"/>
      <point x="410" y="-10"/>
      <point x="503" y="49"/>
      <point x="503" y="149" type="curve" smooth="yes"/>
      <point x="503" y="239"/>
      <point x="428" y="290"/>
      <point x="288" y="290" type="curve"/>
    </contour>
    <contour>
      <point x="288" y="262" type="line"/>
      <point x="416" y="262"/>
      <point x="494" y="323"/>
      <point x="494" y="398" type="curve"/>
      <point x="494" y="497"/>
      <point x="410" y="551"/>
      <point x="281" y="551" type="curve" smooth="yes"/>
      <point x="164" y="551"/>
      <point x="65" y="491"/>
      <point x="65" y="395" type="curve"/>
      <point x="126" y="395" type="line"/>
      <point x="126" y="458"/>
      <point x="195" y="501"/>
      <point x="281" y="501" type="curve" smooth="yes"/>
      <point x="386" y="501"/>
      <point x="432" y="455"/>
      <point x="432" y="398" type="curve"/>
      <point x="432" y="340"/>
      <point x="389" y="301"/>
      <point x="284" y="301" type="curve" smooth="yes"/>
      <point x="191" y="301" type="line"/>
      <point x="191" y="262" type="line"/>
    </contour>
    <contour>
      <point x="283" y="645" type="move" name="top"/>
    </contour>
    <contour>
      <point x="283" y="0" type="move" name="bottom"/>
    </contour>
    <contour>
      <point x="705" y="645" type="move" name="top0315"/>
    </contour>
  </outline>
</glyph>
<glyph name="jdotlessbar" format="1">
  <advance width="329"/>
  <unicode hex="025F"/>
  <outline>
    <contour>
      <point x="317" y="50" type="line"/>
      <point x="37" y="50" type="line"/>
      <point x="37" y="0" type="line"/>
      <point x="317" y="0" type="line"/>
    </contour>
    <contour>
      <point x="161" y="541" type="line"/>
      <point x="161" y="-64" type="line" smooth="yes"/>
      <point x="161" y="-133"/>
      <point x="129" y="-167"/>
      <point x="72" y="-167" type="curve" smooth="yes"/>
      <point x="57" y="-167"/>
      <point x="39" y="-164"/>
      <point x="27" y="-160" type="curve"/>
      <point x="26" y="-209" type="line"/>
      <point x="42" y="-215"/>
      <point x="63" y="-218"/>
      <point x="80" y="-218" type="curve" smooth="yes"/>
      <point x="172" y="-218"/>
      <point x="222" y="-164"/>
      <point x="222" y="-64" type="curve" smooth="yes"/>
      <point x="222" y="541" type="line"/>
    </contour>
    <contour>
      <point x="193" y="646" type="move" name="top"/>
    </contour>
    <contour>
      <point x="193" y="-223" type="move" name="bottom"/>
    </contour>
    <contour>
      <point x="329" y="646" type="move" name="top0315"/>
    </contour>
  </outline>
</glyph>
<glyph name="Gsmallcap" format="1">
  <advance width="605"/>
  <unicode hex="0262"/>
  <outline>
    <contour>
      <point x="541" y="260" type="line"/>
      <point x="327" y="260" type="line"/>
      <point x="327" y="210" type="line"/>
      <point x="475" y="210" type="line"/>
      <point x="475" y="95" type="line"/>
      <point x="458" y="73"/>
      <point x="408" y="41"/>
      <point x="313" y="41" type="curve" smooth="yes"/>
      <point x="198" y="41"/>
      <point x="125" y="121"/>
      <point x="125" y="231" type="curve" smooth="yes"/>
      <point x="125" y="313" type="line" smooth="yes"/>
      <point x="125" y="421"/>
      <point x="198" y="501"/>
      <point x="309" y="501" type="curve" smooth="yes"/>
      <point x="419" y="501"/>
      <point x="464" y="457"/>
      <point x="474" y="375" type="curve"/>
      <point x="535" y="375" type="line"/>
      <point x="525" y="484"/>
      <point x="455" y="551"/>
      <point x="309" y="551" type="curve" smooth="yes"/>
      <point x="165" y="551"/>
      <point x="64" y="454"/>
      <point x="64" y="312" type="curve" smooth="yes"/>
      <point x="64" y="231" type="line" smooth="yes"/>
      <point x="64" y="89"/>
      <point x="165" y="-9"/>
      <point x="313" y="-9" type="curve" smooth="yes"/>
      <point x="441" y="-9"/>
      <point x="519" y="46"/>
      <point x="541" y="79" type="curve"/>
    </contour>
    <contour>
      <point x="309" y="645" type="move" name="top"/>
    </contour>
    <contour>
      <point x="309" y="0" type="move" name="bottom"/>
    </contour>
    <contour>
      <point x="605" y="645" type="move" name="top0315"/>
    </contour>
  </outline>
</glyph>
<glyph name="gamma1" format="1">
  <advance width="507"/>
  <unicode hex="0263"/>
  <outline>
    <contour>
      <point x="253" y="-190" type="curve" smooth="yes"/>
      <point x="314" y="-190"/>
      <point x="352" y="-154"/>
      <point x="352" y="-92" type="curve" smooth="yes"/>
      <point x="352" y="-69"/>
      <point x="348" y="-42"/>
      <point x="333" y="-10" type="curve" smooth="yes"/>
      <point x="82" y="541" type="line"/>
      <point x="82" y="541"/>
      <point x="15" y="541"/>
      <point x="15" y="541" type="curve"/>
      <point x="249" y="37" type="line" smooth="yes"/>
      <point x="280" y="-27"/>
      <point x="291" y="-63"/>
      <point x="291" y="-92" type="curve" smooth="yes"/>
      <point x="291" y="-121"/>
      <point x="280" y="-139"/>
      <point x="253" y="-139" type="curve" smooth="yes"/>
      <point x="228" y="-139"/>
      <point x="216" y="-121"/>
      <point x="216" y="-92" type="curve" smooth="yes"/>
      <point x="216" y="-64"/>
      <point x="228" y="-27"/>
      <point x="258" y="35" type="curve" smooth="yes"/>
      <point x="492" y="541" type="line"/>
      <point x="492" y="541"/>
      <point x="426" y="541"/>
      <point x="426" y="541" type="curve"/>
      <point x="175" y="-12" type="line" smooth="yes"/>
      <point x="161" y="-42"/>
      <point x="156" y="-67"/>
      <point x="156" y="-92" type="curve" smooth="yes"/>
      <point x="156" y="-154"/>
      <point x="192" y="-190"/>
    </contour>
    <contour>
      <point x="254" y="645" type="move" name="top"/>
    </contour>
    <contour>
      <point x="254" y="-223" type="move" name="bottom"/>
    </contour>
    <contour>
      <point x="507" y="645" type="move" name="top0315"/>
    </contour>
  </outline>
</glyph>
<glyph name="babygamma" format="1">
  <advance width="619"/>
  <unicode hex="0264"/>
  <outline>
    <contour>
      <point x="57" y="439" type="line"/>
      <point x="77" y="466"/>
      <point x="97" y="493"/>
      <point x="127" y="493" type="curve" smooth="yes"/>
      <point x="176" y="493"/>
      <point x="191" y="449"/>
      <point x="296" y="261" type="curve" smooth="yes"/>
      <point x="342" y="178"/>
      <point x="364" y="138"/>
      <point x="364" y="98" type="curve" smooth="yes"/>
      <point x="364" y="69"/>
      <point x="350" y="42"/>
      <point x="310" y="42" type="curve"/>
      <point x="310" y="-10" type="line"/>
      <point x="395" y="-10"/>
      <point x="425" y="43"/>
      <point x="425" y="99" type="curve" smooth="yes"/>
      <point x="425" y="150"/>
      <point x="396" y="204"/>
      <point x="344" y="295" type="curve" smooth="yes"/>
      <point x="248" y="469"/>
      <point x="214" y="551"/>
      <point x="135" y="551" type="curve" smooth="yes"/>
      <point x="82" y="551"/>
      <point x="48" y="516"/>
      <point x="15" y="474" type="curve"/>
    </contour>
    <contour>
      <point x="604" y="474" type="line"/>
      <point x="572" y="516"/>
      <point x="538" y="551"/>
      <point x="485" y="551" type="curve" smooth="yes"/>
      <point x="406" y="551"/>
      <point x="372" y="469"/>
      <point x="275" y="295" type="curve" smooth="yes"/>
      <point x="224" y="204"/>
      <point x="195" y="150"/>
      <point x="195" y="99" type="curve" smooth="yes"/>
      <point x="195" y="43"/>
      <point x="225" y="-10"/>
      <point x="310" y="-10" type="curve"/>
      <point x="310" y="42" type="line"/>
      <point x="270" y="42"/>
      <point x="256" y="69"/>
      <point x="256" y="98" type="curve" smooth="yes"/>
      <point x="256" y="138"/>
      <point x="277" y="178"/>
      <point x="324" y="261" type="curve" smooth="yes"/>
      <point x="428" y="449"/>
      <point x="444" y="493"/>
      <point x="492" y="493" type="curve" smooth="yes"/>
      <point x="523" y="493"/>
      <point x="542" y="466"/>
      <point x="563" y="439" type="curve"/>
    </contour>
    <contour>
      <point x="310" y="645" type="move" name="top"/>
    </contour>
    <contour>
      <point x="310" y="0" type="move" name="bottom"/>
    </contour>
    <contour>
      <point x="619" y="645" type="move" name="top0315"/>
    </contour>
  </outline>
</glyph>
<glyph name="hhook" format="1">
  <advance width="563"/>
  <unicode hex="0266"/>
  <outline>
    <contour>
      <point x="139" y="591" type="line"/>
      <point x="78" y="591" type="line"/>
      <point x="78" y="0" type="line"/>
      <point x="139" y="0" type="line"/>
    </contour>
    <contour>
      <point x="126" y="305" type="line"/>
      <point x="128" y="385"/>
      <point x="186" y="500"/>
      <point x="299" y="500" type="curve" smooth="yes"/>
      <point x="377" y="500"/>
      <point x="426" y="465"/>
      <point x="426" y="353" type="curve" smooth="yes"/>
      <point x="426" y="0" type="line"/>
      <point x="487" y="0" type="line"/>
      <point x="487" y="352" type="line" smooth="yes"/>
      <point x="487" y="495"/>
      <point x="422" y="551"/>
      <point x="314" y="551" type="curve" smooth="yes"/>
      <point x="190" y="551"/>
      <point x="106" y="447"/>
      <point x="99" y="321" type="curve"/>
    </contour>
    <contour>
      <point x="139" y="574" type="line"/>
      <point x="139" y="623" type="line" smooth="yes"/>
      <point x="139" y="701"/>
      <point x="164" y="740"/>
      <point x="225" y="740" type="curve" smooth="yes"/>
      <point x="238" y="740"/>
      <point x="255" y="737"/>
      <point x="264" y="733" type="curve"/>
      <point x="268" y="777" type="line"/>
      <point x="251" y="783"/>
      <point x="233" y="786"/>
      <point x="215" y="786" type="curve" smooth="yes"/>
      <point x="129" y="786"/>
      <point x="78" y="728"/>
      <point x="78" y="623" type="curve" smooth="yes"/>
      <point x="78" y="574" type="line"/>
    </contour>
    <contour>
      <point x="308" y="850" type="move" name="top"/>
    </contour>
    <contour>
      <point x="281" y="0" type="move" name="bottom"/>
    </contour>
    <contour>
      <point x="563" y="850" type="move" name="top0315"/>
    </contour>
  </outline>
</glyph>
<glyph name="iota1" format="1">
  <advance width="281"/>
  <unicode hex="0269"/>
  <outline>
    <contour>
      <point x="76" y="541" type="line"/>
      <point x="76" y="153" type="line" smooth="yes"/>
      <point x="76" y="48"/>
      <point x="127" y="-10"/>
      <point x="213" y="-10" type="curve" smooth="yes"/>
      <point x="231" y="-10"/>
      <point x="249" y="-7"/>
      <point x="266" y="-1" type="curve"/>
      <point x="262" y="42" type="line"/>
      <point x="253" y="39"/>
      <point x="236" y="36"/>
      <point x="223" y="36" type="curve" smooth="yes"/>
      <point x="162" y="36"/>
      <point x="137" y="75"/>
      <point x="137" y="153" type="curve" smooth="yes"/>
      <point x="137" y="541" type="line"/>
    </contour>
    <contour>
      <point x="281" y="645" type="move" name="top0315"/>
    </contour>
    <contour>
      <point x="107" y="0" type="move" name="bottom"/>
    </contour>
    <contour>
      <point x="107" y="645" type="move" name="top"/>
    </contour>
    <contour>
      <point x="112" y="322" type="move" name="rhotichook"/>
    </contour>
  </outline>
</glyph>
<glyph name="lmidtilde" format="1">
  <advance width="231"/>
  <unicode hex="026B"/>
  <outline>
    <component base="l"/>
    <component base="tilde" xOffset="-104" yOffset="201"/>
    <contour>
      <point x="363" y="800" type="move" name="top0315"/>
    </contour>
    <contour>
      <point x="182" y="800" type="move" name="top"/>
    </contour>
    <contour>
      <point x="181" y="393" type="move" name="parenthesses.w2"/>
    </contour>
    <contour>
      <point x="182" y="0" type="move" name="bottom"/>
    </contour>
  </outline>
</glyph>
<glyph name="lbelt" format="1">
  <advance width="423"/>
  <unicode hex="026C"/>
  <outline>
    <contour>
      <point x="295" y="397" type="line"/>
      <point x="295" y="490"/>
      <point x="252" y="551"/>
      <point x="149" y="551" type="curve" smooth="yes"/>
      <point x="67" y="551"/>
      <point x="18" y="496"/>
      <point x="18" y="427" type="curve" smooth="yes"/>
      <point x="18" y="348"/>
      <point x="72" y="307"/>
      <point x="142" y="307" type="curve" smooth="yes"/>
      <point x="408" y="307" type="line"/>
      <point x="408" y="357" type="line"/>
      <point x="150" y="357" type="line" smooth="yes"/>
      <point x="106" y="357"/>
      <point x="79" y="385"/>
      <point x="79" y="427" type="curve" smooth="yes"/>
      <point x="79" y="468"/>
      <point x="104" y="501"/>
      <point x="149" y="501" type="curve" smooth="yes"/>
      <point x="213" y="501"/>
      <point x="234" y="465"/>
      <point x="234" y="408" type="curve" smooth="yes"/>
      <point x="234" y="247" type="line"/>
      <point x="295" y="247" type="line"/>
    </contour>
    <component base="l" xOffset="298"/>
    <contour>
      <point x="265" y="798" type="move" name="top"/>
    </contour>
    <contour>
      <point x="265" y="0" type="move" name="bottom"/>
    </contour>
    <contour>
      <point x="423" y="798" type="move" name="top0315"/>
    </contour>
  </outline>
</glyph>
<glyph name="lrthook" format="1">
  <advance width="319"/>
  <unicode hex="026D"/>
  <outline>
    <contour>
      <point x="97" y="768" type="line"/>
      <point x="97" y="-55" type="line" smooth="yes"/>
      <point x="97" y="-160"/>
      <point x="147" y="-218"/>
      <point x="233" y="-218" type="curve" smooth="yes"/>
      <point x="252" y="-218"/>
      <point x="270" y="-215"/>
      <point x="286" y="-210" type="curve"/>
      <point x="283" y="-166" type="line"/>
      <point x="274" y="-169"/>
      <point x="257" y="-173"/>
      <point x="244" y="-173" type="curve" smooth="yes"/>
      <point x="183" y="-173"/>
      <point x="158" y="-133"/>
      <point x="158" y="-55" type="curve" smooth="yes"/>
      <point x="158" y="768" type="line"/>
    </contour>
    <contour>
      <point x="129" y="800" type="move" name="top"/>
    </contour>
    <contour>
      <point x="129" y="-223" type="move" name="bottom"/>
    </contour>
    <contour>
      <point x="319" y="800" type="move" name="top0315"/>
    </contour>
  </outline>
</glyph>
<glyph name="mturndescend" format="1">
  <advance width="908"/>
  <unicode hex="0270"/>
  <outline>
    <contour>
      <point x="772" y="112" type="line"/>
      <point x="772" y="-208" type="line"/>
      <point x="833" y="-208" type="line"/>
      <point x="833" y="541" type="line"/>
      <point x="772" y="541" type="line"/>
    </contour>
    <contour>
      <point x="783" y="236" type="line"/>
      <point x="781" y="156"/>
      <point x="737" y="41"/>
      <point x="616" y="41" type="curve" smooth="yes"/>
      <point x="538" y="41"/>
      <point x="484" y="75"/>
      <point x="484" y="183" type="curve" smooth="yes"/>
      <point x="484" y="541" type="line"/>
      <point x="423" y="541" type="line"/>
      <point x="423" y="181" type="line" smooth="yes"/>
      <point x="423" y="45"/>
      <point x="492" y="-10"/>
      <point x="598" y="-10" type="curve" smooth="yes"/>
      <point x="729" y="-10"/>
      <point x="805" y="94"/>
      <point x="812" y="221" type="curve"/>
    </contour>
    <contour>
      <point x="424" y="190" type="line"/>
      <point x="421" y="126"/>
      <point x="370" y="42"/>
      <point x="266" y="41" type="curve" smooth="yes"/>
      <point x="188" y="40"/>
      <point x="135" y="73"/>
      <point x="135" y="188" type="curve" smooth="yes"/>
      <point x="135" y="541" type="line"/>
      <point x="74" y="541" type="line"/>
      <point x="74" y="189" type="line" smooth="yes"/>
      <point x="74" y="48"/>
      <point x="139" y="-10"/>
      <point x="251" y="-10" type="curve" smooth="yes"/>
      <point x="379" y="-10"/>
      <point x="458" y="86"/>
      <point x="465" y="190" type="curve"/>
    </contour>
    <contour>
      <point x="456" y="645" type="move" name="top"/>
    </contour>
    <contour>
      <point x="456" y="-223" type="move" name="bottom"/>
    </contour>
    <contour>
      <point x="908" y="645" type="move" name="top0315"/>
    </contour>
  </outline>
</glyph>
<glyph name="mhook" format="1">
  <advance width="908"/>
  <unicode hex="0271"/>
  <outline>
    <contour>
      <point x="773" y="95" type="line"/>
      <point x="773" y="-55" type="line" smooth="yes"/>
      <point x="773" y="-133"/>
      <point x="748" y="-172"/>
      <point x="687" y="-172" type="curve" smooth="yes"/>
      <point x="674" y="-172"/>
      <point x="658" y="-169"/>
      <point x="648" y="-166" type="curve"/>
      <point x="645" y="-209" type="line"/>
      <point x="661" y="-215"/>
      <point x="680" y="-218"/>
      <point x="697" y="-218" type="curve" smooth="yes"/>
      <point x="783" y="-218"/>
      <point x="834" y="-160"/>
      <point x="834" y="-55" type="curve" smooth="yes"/>
      <point x="834" y="95" type="line"/>
    </contour>
    <component base="m"/>
    <contour>
      <point x="457" y="645" type="move" name="top"/>
    </contour>
    <contour>
      <point x="457" y="-223" type="move" name="bottom"/>
    </contour>
    <contour>
      <point x="908" y="645" type="move" name="top0315"/>
    </contour>
  </outline>
</glyph>
<glyph name="omegaclosed" format="1">
  <advance width="846"/>
  <unicode hex="0277"/>
  <outline>
    <contour>
      <point x="423" y="551" type="line"/>
      <point x="171" y="551"/>
      <point x="69" y="393"/>
      <point x="69" y="241" type="curve" smooth="yes"/>
      <point x="69" y="113"/>
      <point x="128" y="-10"/>
      <point x="260" y="-10" type="curve" smooth="yes"/>
      <point x="370" y="-10"/>
      <point x="439" y="70"/>
      <point x="439" y="240" type="curve" smooth="yes"/>
      <point x="439" y="353" type="line"/>
      <point x="392" y="353" type="line"/>
      <point x="392" y="239" type="line" smooth="yes"/>
      <point x="392" y="96"/>
      <point x="337" y="40"/>
      <point x="263" y="40" type="curve" smooth="yes"/>
      <point x="168" y="40"/>
      <point x="130" y="148"/>
      <point x="130" y="241" type="curve" smooth="yes"/>
      <point x="130" y="377"/>
      <point x="209" y="501"/>
      <point x="423" y="501" type="curve"/>
    </contour>
    <contour>
      <point x="422" y="501" type="line"/>
      <point x="636" y="501"/>
      <point x="716" y="377"/>
      <point x="716" y="241" type="curve" smooth="yes"/>
      <point x="716" y="148"/>
      <point x="678" y="40"/>
      <point x="583" y="40" type="curve" smooth="yes"/>
      <point x="509" y="40"/>
      <point x="454" y="96"/>
      <point x="454" y="239" type="curve" smooth="yes"/>
      <point x="454" y="353" type="line"/>
      <point x="407" y="353" type="line"/>
      <point x="407" y="240" type="line" smooth="yes"/>
      <point x="407" y="70"/>
      <point x="476" y="-10"/>
      <point x="586" y="-10" type="curve" smooth="yes"/>
      <point x="718" y="-10"/>
      <point x="777" y="113"/>
      <point x="777" y="241" type="curve" smooth="yes"/>
      <point x="777" y="393"/>
      <point x="674" y="551"/>
      <point x="422" y="551" type="curve"/>
    </contour>
    <contour>
      <point x="422" y="645" type="move" name="top"/>
    </contour>
    <contour>
      <point x="422" y="0" type="move" name="bottom"/>
    </contour>
    <contour>
      <point x="846" y="645" type="move" name="top0315"/>
    </contour>
  </outline>
</glyph>
<glyph name="philatin" format="1">
  <advance width="574"/>
  <unicode hex="0278"/>
  <outline>
    <contour>
      <point x="46" y="262" type="line"/>
      <point x="46" y="105"/>
      <point x="141" y="-10"/>
      <point x="288" y="-10" type="curve" smooth="yes"/>
      <point x="434" y="-10"/>
      <point x="529" y="105"/>
      <point x="529" y="262" type="curve" smooth="yes"/>
      <point x="529" y="279" type="line" smooth="yes"/>
      <point x="529" y="436"/>
      <point x="434" y="551"/>
      <point x="287" y="551" type="curve" smooth="yes"/>
      <point x="141" y="551"/>
      <point x="46" y="436"/>
      <point x="46" y="279" type="curve" smooth="yes"/>
    </contour>
    <contour>
      <point x="107" y="279" type="line"/>
      <point x="107" y="396"/>
      <point x="170" y="501"/>
      <point x="287" y="501" type="curve" smooth="yes"/>
      <point x="404" y="501"/>
      <point x="468" y="396"/>
      <point x="468" y="279" type="curve" smooth="yes"/>
      <point x="468" y="262" type="line" smooth="yes"/>
      <point x="468" y="143"/>
      <point x="404" y="40"/>
      <point x="288" y="40" type="curve" smooth="yes"/>
      <point x="170" y="40"/>
      <point x="107" y="143"/>
      <point x="107" y="262" type="curve" smooth="yes"/>
    </contour>
    <contour>
      <point x="257" y="-208" type="line"/>
      <point x="318" y="-208" type="line"/>
      <point x="318" y="768" type="line"/>
      <point x="257" y="768" type="line"/>
    </contour>
    <contour>
      <point x="287" y="800" type="move" name="top"/>
    </contour>
    <contour>
      <point x="287" y="-223" type="move" name="bottom"/>
    </contour>
    <contour>
      <point x="574" y="800" type="move" name="top0315"/>
    </contour>
  </outline>
</glyph>
<glyph name="rturnrthook" format="1">
  <advance width="386"/>
  <unicode hex="027B"/>
  <outline>
    <contour>
      <point x="206" y="130" type="line"/>
      <point x="206" y="-55" type="line" smooth="yes"/>
      <point x="206" y="-160"/>
      <point x="257" y="-218"/>
      <point x="343" y="-218" type="curve" smooth="yes"/>
      <point x="361" y="-218"/>
      <point x="379" y="-215"/>
      <point x="396" y="-210" type="curve"/>
      <point x="392" y="-166" type="line"/>
      <point x="383" y="-169"/>
      <point x="367" y="-173"/>
      <point x="353" y="-173" type="curve" smooth="yes"/>
      <point x="292" y="-173"/>
      <point x="267" y="-133"/>
      <point x="267" y="-55" type="curve" smooth="yes"/>
      <point x="267" y="130" type="line"/>
    </contour>
    <component base="r" xOffset="690" yOffset="1082" xScale="-1" yScale="-1"/>
    <contour>
      <point x="122" y="645" type="move" name="top"/>
    </contour>
    <contour>
      <point x="122" y="-223" type="move" name="bottom"/>
    </contour>
    <contour>
      <point x="386" y="645" type="move" name="top0315"/>
    </contour>
  </outline>
</glyph>
<glyph name="rdescend" format="1">
  <advance width="345"/>
  <unicode hex="027C"/>
  <outline>
    <contour>
      <point x="139" y="452" type="line"/>
      <point x="138" y="541" type="line"/>
      <point x="78" y="541" type="line"/>
      <point x="78" y="-208" type="line"/>
      <point x="139" y="-208" type="line"/>
    </contour>
    <contour>
      <point x="330" y="545" type="line"/>
      <point x="323" y="548"/>
      <point x="305" y="551"/>
      <point x="290" y="551" type="curve"/>
      <point x="165" y="551"/>
      <point x="107" y="441"/>
      <point x="107" y="300" type="curve"/>
      <point x="129" y="308" type="line"/>
      <point x="133" y="412"/>
      <point x="185" y="495"/>
      <point x="288" y="495" type="curve"/>
      <point x="303" y="495"/>
      <point x="315" y="494"/>
      <point x="328" y="492" type="curve"/>
    </contour>
    <contour>
      <point x="229" y="645" type="move" name="top"/>
    </contour>
    <contour>
      <point x="229" y="-223" type="move" name="bottom"/>
    </contour>
    <contour>
      <point x="345" y="645" type="move" name="top0315"/>
    </contour>
  </outline>
</glyph>
<glyph name="rfishhookrev" format="1">
  <advance width="282"/>
  <unicode hex="027F"/>
  <outline>
    <contour>
      <point x="205" y="-208" type="line"/>
      <point x="205" y="388" type="line" smooth="yes"/>
      <point x="205" y="493"/>
      <point x="154" y="551"/>
      <point x="68" y="551" type="curve" smooth="yes"/>
      <point x="50" y="551"/>
      <point x="32" y="548"/>
      <point x="15" y="543" type="curve"/>
      <point x="19" y="499" type="line"/>
      <point x="28" y="502"/>
      <point x="45" y="506"/>
      <point x="58" y="506" type="curve" smooth="yes"/>
      <point x="119" y="506"/>
      <point x="144" y="466"/>
      <point x="144" y="388" type="curve" smooth="yes"/>
      <point x="144" y="-208" type="line"/>
    </contour>
    <contour>
      <point x="175" y="645" type="move" name="top"/>
    </contour>
    <contour>
      <point x="175" y="-223" type="move" name="bottom"/>
    </contour>
    <contour>
      <point x="282" y="645" type="move" name="top0315"/>
    </contour>
  </outline>
</glyph>
<glyph name="Rsmallcap" format="1">
  <advance width="540"/>
  <unicode hex="0280"/>
  <outline>
    <contour>
      <point x="281" y="248" type="line"/>
      <point x="431" y="0" type="line"/>
      <point x="498" y="0" type="line"/>
      <point x="348" y="248" type="line"/>
    </contour>
    <contour>
      <point x="71" y="541" type="line"/>
      <point x="71" y="0" type="line"/>
      <point x="132" y="0" type="line"/>
      <point x="132" y="491" type="line"/>
      <point x="284" y="491" type="line" smooth="yes"/>
      <point x="379" y="491"/>
      <point x="417" y="437"/>
      <point x="417" y="379" type="curve" smooth="yes"/>
      <point x="417" y="323"/>
      <point x="383" y="269"/>
      <point x="300" y="269" type="curve" smooth="yes"/>
      <point x="110" y="269" type="line"/>
      <point x="110" y="219" type="line"/>
      <point x="300" y="219" type="line" smooth="yes"/>
      <point x="414" y="219"/>
      <point x="478" y="287"/>
      <point x="478" y="380" type="curve" smooth="yes"/>
      <point x="478" y="472"/>
      <point x="409" y="541"/>
      <point x="284" y="541" type="curve" smooth="yes"/>
    </contour>
    <contour>
      <point x="262" y="645" type="move" name="top"/>
    </contour>
    <contour>
      <point x="262" y="0" type="move" name="bottom"/>
    </contour>
    <contour>
      <point x="540" y="645" type="move" name="top0315"/>
    </contour>
  </outline>
</glyph>
<glyph name="jhookdblbar" format="1">
  <advance width="418"/>
  <unicode hex="0284"/>
  <outline>
    <component base="esh"/>
    <component base="crossbar" xOffset="-2" yOffset="-689"/>
    <contour>
      <point x="292" y="850" type="move" name="top"/>
    </contour>
    <contour>
      <point x="111" y="-223" type="move" name="bottom"/>
    </contour>
    <contour>
      <point x="418" y="850" type="move" name="top0315"/>
    </contour>
  </outline>
</glyph>
<glyph name="eshshortrev" format="1">
  <advance width="418"/>
  <unicode hex="0285"/>
  <outline>
    <contour>
      <point x="239" y="0" type="line"/>
      <point x="239" y="381" type="line" smooth="yes"/>
      <point x="239" y="491"/>
      <point x="179" y="551"/>
      <point x="79" y="551" type="curve" smooth="yes"/>
      <point x="58" y="551"/>
      <point x="36" y="549"/>
      <point x="15" y="543" type="curve"/>
      <point x="20" y="494" type="line"/>
      <point x="36" y="498"/>
      <point x="52" y="500"/>
      <point x="74" y="500" type="curve" smooth="yes"/>
      <point x="139" y="500"/>
      <point x="178" y="457"/>
      <point x="178" y="381" type="curve" smooth="yes"/>
      <point x="178" y="0" type="line"/>
    </contour>
    <contour>
      <point x="178" y="332" type="line"/>
      <point x="178" y="-48" type="line" smooth="yes"/>
      <point x="178" y="-158"/>
      <point x="239" y="-218"/>
      <point x="339" y="-218" type="curve" smooth="yes"/>
      <point x="359" y="-218"/>
      <point x="382" y="-216"/>
      <point x="403" y="-210" type="curve"/>
      <point x="398" y="-161" type="line"/>
      <point x="382" y="-165"/>
      <point x="366" y="-167"/>
      <point x="343" y="-167" type="curve" smooth="yes"/>
      <point x="278" y="-167"/>
      <point x="239" y="-124"/>
      <point x="239" y="-48" type="curve" smooth="yes"/>
      <point x="239" y="332" type="line"/>
    </contour>
    <contour>
      <point x="118" y="645" type="move" name="top"/>
    </contour>
    <contour>
      <point x="301" y="-223" type="move" name="bottom"/>
    </contour>
    <contour>
      <point x="418" y="645" type="move" name="top0315"/>
    </contour>
  </outline>
</glyph>
